**ABCDEFGHIJKLMNOPQRSTUVWXYZabcdefghijklmnopqrstuvwxyz**************************
**PARASOLID !"#$%&'()*+,-./:;<=>?@[\]^_`{|}~0123456789**************************
**PART1;
MC=unknown;
MC_MODEL=unknown;
MC_ID=unknown;
OS=unknown;
OS_RELEASE=unknown;
FRU=sdl_parasolid_customer_support;
APPL=parasolid_acceptance_tests;
SITE=unknown;
USER=unknown;
FORMAT=text;
GUISE=transmit;
KEY=/fasttmp/liuc11/ARO/20170228-test_blquery/chef-0420/blend/blend_nat.x_t;
FILE=/fasttmp/liuc11/ARO/20170228-test_blquery/chef-0420/blend/blend_nat.x_t;
DATE=unknown;
**PART2;
SCH=SCH_2700142_26105;
USFLD_SIZE=1;
**PART3;
**END_OF_HEADER*****************************************************************
T51 : TRANSMIT FILE created by modeller version 270014223 SCH_2700142_26105_1300
6196 1 12 30 CCCCCCCCCCCCCDI5 owner1040 0 CCCCCCCCCA13 boundary_mesh1006 0 A16 i
ndex_map_offset0 0 1 dA9 index_map82 0 A17 node_id_index_map82 0 A20 schema_embe
dding_map82 0 A5 child12 0 A14 lowest_node_id0 0 1 dZ1 212 2 3 0 0 0 0 1e3 1e-8
 0 0 0 1 0 1 1 4 5 6 7 8 9 10 0 0 0 0 0 0 0 0 81 255 1 2 212 11 1 12 0 0 0 13 0
 70 11 CI9 list_type0 0 1 uI10 notransmit0 0 1 lCCCDCCDI12 finger_index0 0 1 dI1
2 finger_block1012 0 CZ3 0 4 T1 0 0 4 20 1 14 14 0 13 255 4 145 0 1 0 15 0 0 16
 0 0 50 255 5 144 0 15 17 0 0 +1054309828124272e-30 -1.1 1 1 -1171455364582524e-
30 0 1171455364582524e-30 1 0 0 30 255 6 137 0 18 19 0 0 +1054309828124272e-30 -
1.1 1 0 0 -1 0 29 255 7 103 0 20 21 0 .996194698091746 -1.01284425725234 -.001 0
 19 8 CCCCCCCA5 owner12 0 Z8 1 0 1 16 0 22 V0 0 16 255 9 115 23 ?24 0 25 19 0 0
 1 0 18 255 10 30 0 26 0 27 28 ?1 0 17 255 26 0 29 30 31 10 32 33 0 34 +0 18 27
 25 0 31 10 35 36 ?1 0 29 28 32 0 10 36 37 .996194698091746 -1.01284425725234 1
 0 29 36 27 0 27 38 28 -3362769628805345e-30 -.9 1 0 29 37 109 0 39 28 40 105430
9828124272e-30 -1.1 -.001 0 18 39 93 0 41 42 0 37 ?1 0 29 40 108 0 42 37 43 0 -2
 -.001 0 18 42 91 0 44 45 39 40 ?1 0 29 43 107 0 45 40 46 2 -2 -.001 0 18 45 89
 0 47 48 42 43 ?1 0 29 46 106 0 48 43 49 2 0 -.001 0 18 48 87 0 50 51 45 46 ?1 0
 29 49 105 0 51 46 21 0 0 -.001 0 18 51 85 0 52 53 48 49 ?1 0 29 21 104 0 53 49
 7 -3362769628805345e-30 -.9 -.001 0 18 53 83 0 54 20 51 21 ?1 0 17 54 0 55 56 5
7 53 58 59 0 60 +0 18 20 81 0 61 62 53 7 ?1 0 17 61 0 63 34 60 20 64 65 0 66 +0
 18 62 2 0 30 67 20 68 ?1 0 17 30 0 29 69 26 62 70 71 0 72 +0 18 67 5 0 73 74 62
 75 ?1 0 29 68 4 0 62 0 75 1054309828124272e-30 -1.1 1 0 29 75 7 0 67 68 76 0 -2
 1 0 29 76 12 0 74 75 77 2 -2 1 0 18 74 10 0 78 79 67 76 ?1 0 29 77 17 0 79 76 3
8 2 0 1 0 18 79 15 0 80 35 74 77 ?1 0 29 38 22 0 35 77 36 0 0 1 0 18 35 20 0 81
 27 79 38 ?1 0 17 81 0 29 31 80 35 82 83 0 84 +0 15 255 29 38 0 69 85 0 0 17 31
 0 29 26 81 27 86 87 0 56 +0 17 80 0 29 81 78 79 88 89 0 90 +0 17 82 0 91 92 84
 79 81 83 0 0 -0 16 83 21 93 ?81 87 89 94 0 0 1 0 17 84 0 91 82 52 35 57 95 0 86
 -0 15 91 123 0 52 96 0 0 17 52 0 91 84 92 51 97 98 0 57 +0 17 57 0 55 54 86 51
 84 95 0 58 +0 16 95 112 99 ?57 100 101 102 0 0 1 0 17 86 0 55 57 56 35 31 87 0
 0 -0 15 55 121 0 54 103 0 0 17 56 0 55 86 54 27 60 101 0 32 -0 16 87 26 104 ?31
 33 83 105 0 0 1 0 81 1 104 171 106 87 0 0 0 107 108 0 16 33 31 109 ?26 71 87 11
0 0 0 1 0 30 105 29 0 87 94 110 0 +0 0 1 -3736410698672605e-30 -1 0 0 30 94 24 0
 83 111 105 0 +2 0 1 -1 0 0 0 30 110 34 0 33 105 112 0 +-341060513164848e-29 -.9
 1 .993645440697071 -.1125554893460264 0 0 30 112 37 0 71 110 113 0 +.9961946980
91747 -1.012844257252336 1 -.996194698091746 -.0871557427476581 0 0 16 71 35 114
 ?30 18 33 112 0 0 1 0 30 113 102 0 115 112 116 0 +1054309828124272e-30 -1.1 -.0
01 -1171455364582524e-30 -1 0 0 16 115 79 117 ?118 119 0 113 0 0 1 0 30 116 101
 0 119 113 120 0 +-750333128962666e-29 -2 -.001 1 -233146835171283e-29 0 0 16 11
9 77 121 ?47 122 115 116 0 0 1 0 30 120 100 0 122 116 123 0 +2 -2 -.001 37747582
83725535e-30 1 0 0 16 122 75 124 ?50 98 119 120 0 0 1 0 30 123 99 0 98 120 125 0
 +2 0 -.001 -1 0 0 0 16 98 73 126 ?52 59 122 123 0 0 1 0 30 125 98 0 59 123 127
 0 +0 0 -.001 -3736410698672605e-30 -1 0 0 16 59 71 128 ?54 65 98 125 0 0 1 0 30
 127 97 0 65 125 129 0 +-341060513164848e-29 -.9 -.001 .993645440697071 -.112555
4893460264 0 0 16 65 69 130 ?61 131 59 127 0 0 1 0 30 129 96 0 131 127 132 0 +.9
96194698091747 -1.012844257252336 -.001 -.996194698091746 -.0871557427476581 0 0
 16 131 67 107 ?41 133 65 129 0 0 1 0 30 132 131 0 134 129 135 0 +.9961946980917
46 -1.01284425725234 1 0 0 -1 0 16 134 110 136 ?66 101 18 132 0 0 1 0 30 135 132
 0 101 132 102 0 +-3362769628805345e-30 -.9 1 0 0 -1 0 16 101 111 137 ?60 95 134
 135 0 0 1 0 30 102 133 0 95 135 138 0 +0 0 1 0 0 -1 0 30 138 134 0 100 102 139
 0 +2 0 1 0 0 -1 0 16 100 113 140 ?92 25 95 138 0 0 1 0 30 139 135 0 25 138 19 0
 +2 -2 1 0 0 -1 0 16 25 114 141 ?142 9 100 139 0 0 1 0 30 19 136 0 9 139 6 0 +0
 -2 1 0 0 -1 0 81 1 141 173 106 25 0 0 107 143 144 0 17 142 0 145 50 88 45 146 2
5 0 147 +0 15 145 125 0 50 148 0 0 17 50 0 145 90 142 48 147 122 0 92 +0 17 88 0
 145 142 90 74 80 89 0 0 -0 17 146 0 149 73 47 74 142 25 0 88 -0 17 147 0 150 44
 97 45 50 122 0 0 -0 15 150 66 0 151 152 0 0 17 44 0 150 151 147 42 47 119 0 24
 -0 17 97 0 150 147 58 48 52 98 0 0 -0 17 58 0 150 97 64 51 54 59 0 0 -0 17 64 0
 150 58 153 53 61 65 0 0 -0 17 153 0 150 64 151 20 41 131 0 0 -0 17 151 0 150 15
3 44 39 118 115 0 0 -0 17 41 0 154 72 66 39 153 131 0 155 +0 15 154 117 0 41 156
 0 0 17 72 0 154 70 41 62 155 18 0 157 -0 17 66 0 154 41 70 20 34 134 0 153 +0 1
7 155 0 158 118 157 39 72 18 0 151 +0 15 158 129 0 118 15 0 0 17 118 0 158 159 1
55 42 151 115 0 0 +0 17 157 0 158 155 159 62 69 133 0 0 -0 16 18 116 160 ?155 13
4 71 6 0 0 1 0 81 1 160 177 106 18 0 0 161 93 162 0 80 255 1 106 163 164 9000 1
 1 1 1 1 1 1 1 0 FFFFTFTFFFFFFF3 0 81 1 161 176 106 89 0 0 126 160 165 0 81 1 93
 178 106 83 0 0 160 124 166 0 84 255 32 162 b398038ae20ea26f8961dbba87bee43a0 81
 1 124 179 106 122 0 0 93 117 167 0 84 32 166 3f4dbb2a7484650bb02a3bc27e8e51800
 81 1 117 180 106 115 0 0 124 137 168 0 84 32 167 ff9ec6f20db1661b23a9acff78474e
f60 81 1 137 181 106 101 0 0 117 169 170 0 84 32 168 b21491da437d32d5101a3ca4599
9aaa50 81 1 169 182 106 133 0 0 137 130 171 0 84 32 170 99b2aa478024ca446906c217
c6b107b60 16 133 6 169 ?69 172 131 173 0 0 1 0 81 1 130 183 106 65 0 0 169 140 1
74 0 84 32 171 c8fcdeec05a6f42efd2bbdbf5b0fd7660 81 1 140 184 106 100 0 0 130 23
 175 0 84 32 174 29b9f514e18b55d5bcc9cf5252712d260 81 1 23 185 106 9 0 0 140 109
 176 0 84 32 175 3ec80e0dc4465011e46fe2e58d6f48cb0 81 1 109 186 106 33 0 0 23 12
8 177 0 84 32 176 94f2a8a401be701f4af4f8d9be0667ff0 81 1 128 187 106 59 0 0 109
 114 178 0 84 32 177 2a354c83a6dda4a76a63d3239ed5a54b0 81 1 114 188 106 71 0 0 1
28 121 179 0 84 32 178 917b6d60110756b1a0253d96dabed7a70 81 1 121 189 106 119 0
 0 114 99 180 0 84 32 179 32dce971021d4aa6c403f9d8d88daede0 81 1 99 190 106 95 0
 0 121 136 181 0 84 32 180 e360c090b971c55c10567927fa78288d0 81 1 136 191 106 13
4 0 0 99 182 183 0 84 32 181 12718c8a2fb95592782c4c73a8c887150 81 1 182 192 106
 184 0 185 136 186 187 0 84 32 183 d97ef24e73388b11d2dfdc4f1f81aacf0 14 255 184
 128 185 ?148 15 149 4 17 -0 0 148 15 22 0 81 1 185 204 188 184 182 0 189 190 19
1 0 81 1 186 193 106 96 0 192 182 193 194 0 84 32 187 2286b4561e3c4ffa8e2b2b0573
83195a0 14 96 124 192 ?103 148 91 4 195 -0 0 103 148 22 0 81 1 192 206 188 96 18
6 0 190 196 197 0 81 1 193 194 106 198 0 199 186 200 201 0 84 32 194 1a0bcc73edb
a0ce400acfdb03b7901ba0 14 198 120 199 ?156 103 63 4 202 -0 0 156 103 22 0 81 1 1
99 208 188 198 193 0 196 203 204 0 81 1 200 195 106 15 0 189 193 205 206 0 84 32
 201 1a847355234791f14b21f5acba6ef2680 14 15 130 189 ?184 0 158 4 5 -0 0 184 0 2
2 0 81 1 189 203 188 15 200 0 0 185 207 0 81 1 205 196 106 152 0 208 200 209 210
 0 84 32 206 39820ee15aae8f6b22294bb50129ef9f0 14 152 63 208 ?0 85 150 4 211 -0
 0 0 85 22 0 81 1 208 211 188 152 205 0 212 0 213 0 81 1 209 197 106 148 0 190 2
05 214 215 0 84 32 210 c1b4a3d7f5a1791ef8f960b4d919d4620 14 148 126 190 ?96 184
 145 4 216 -0 0 96 184 22 0 81 1 190 205 188 148 209 0 185 192 217 0 81 1 214 19
8 106 85 0 212 209 218 219 0 84 32 215 9ef11c6831c0fb7c2f547c8b3c5878750 14 85 3
9 212 ?152 156 29 4 220 +0 0 152 156 22 0 81 1 212 210 188 85 214 0 203 208 221
 0 81 1 218 199 106 103 0 196 214 222 223 0 84 32 219 0c6dd9427eea34222524162f3c
b81dad0 14 103 122 196 ?198 96 55 4 224 -0 0 198 96 22 0 81 1 196 207 188 103 21
8 0 192 199 225 0 81 1 222 200 106 156 0 203 218 0 226 0 84 32 223 74d1ab789772c
c615af2c6fda02f3cc20 14 156 118 203 ?85 198 154 4 227 -0 0 85 198 22 0 81 1 203
 209 188 156 222 0 199 212 228 0 84 32 226 5bec28158f8c0cf32dfe9f50bfd518250 80
 1 188 0 229 8001 0 0 0 0 3 5 0 0 0 FFFFTFTFFFFFFF2 0 83 255 3 228 .5960784 .666
6667 .6862745 0 79 255 15 229 SDL/TYSA_COLOUR0 50 227 138 0 156 211 202 0 +.9961
94698091747 -1.012844257252336 1 .0871557427476582 -.996194698091746 0 .99619469
8091746 .0871557427476582 0 0 13 22 3 0 0 0 0 0 0 8 15 0 50 211 95 0 152 220 227
 0 +0 0 -.001 0 0 1 1 0 0 0 50 202 139 0 198 227 224 0 +-341060513164848e-29 -.9
 1 .1125554893460266 .993645440697071 0 -.993645440697071 .1125554893460266 0 0
 50 224 140 0 103 202 195 0 +0 0 1 1 -3736410698672605e-30 0 3736410698672605e-3
0 1 0 0 50 195 141 0 96 224 216 0 +2 0 1 0 -1 0 0 0 -1 0 50 216 142 0 148 195 17
 0 +2 -2 1 -1 3774758283725535e-30 0 -3774758283725535e-30 -1 0 0 50 17 143 0 18
4 216 5 0 +-750333128962666e-29 -2 1 233146835171283e-29 1 0 -1 233146835171283e
-29 0 0 50 220 40 0 85 0 211 0 +0 0 1 0 0 1 1 0 0 0 83 3 225 .5960784 .6666667 .
6862745 0 83 3 221 .5960784 .6666667 .6862745 0 83 3 217 .5960784 .6666667 .6862
745 0 83 3 213 .5960784 .6666667 .6862745 0 83 3 207 .5960784 .6666667 .6862745
 0 83 3 204 .5960784 .6666667 .6862745 0 15 63 119 0 61 198 0 0 83 3 197 .596078
4 .6666667 .6862745 0 83 3 191 .5960784 .6666667 .6862745 0 15 149 127 0 47 184
 0 0 17 47 0 149 146 24 45 44 119 0 142 +0 17 24 0 149 47 73 42 159 9 0 118 +0 1
7 73 0 149 24 146 67 78 172 0 69 -0 17 159 0 158 157 118 67 24 9 0 0 -0 17 78 0
 29 80 69 74 73 172 0 146 +0 16 172 11 143 ?78 89 133 230 0 0 1 0 17 69 0 29 78
 30 67 157 133 0 159 +0 81 1 143 174 106 172 0 0 141 126 231 0 16 89 16 161 ?80
 83 172 111 0 0 1 0 30 230 14 0 172 173 111 0 +-750333128962666e-29 -2 1 1 -2331
46835171283e-29 0 0 30 173 9 0 133 0 230 0 +1054309828124272e-30 -1.1 1 -1171455
364582524e-30 -1 0 0 30 111 19 0 89 230 94 0 +2 -2 1 3774758283725535e-30 1 0 0
 81 1 126 175 106 98 0 0 143 161 232 0 84 32 231 76d1323b068e51b2cb72af64e430489
90 84 32 232 8cf1974c110e21f4e52a6d417ac37e9c0 84 32 165 daa2fab864e424b722970ae
199f3e7660 79 15 164 UGS/ObjectState0 17 70 0 154 66 72 10 30 71 0 0 -0 17 34 0
 63 32 61 10 66 134 0 70 -0 17 32 0 63 60 34 27 26 33 0 0 -0 17 60 0 63 61 32 53
 56 101 0 64 +0 17 90 0 145 88 50 79 92 100 0 82 -0 17 92 0 91 52 82 48 90 100 0
 97 +0 81 1 107 172 106 131 0 0 104 141 233 0 84 32 144 6c7885ff9875177961ca82e9
e1f101c10 84 32 233 4f9004357a3fa1af9457be17f638ef9c0 84 32 108 d8d2997611ffefad
adc18ac191d3c1790 19 16 146 0 1 0 8 4 S0 0 74 4 CI16 index_map_offset0 0 1 dCCZ2
0 14 4 0 0 12 222 208 2 0 0 0 0 0 0 0 0 0 0 0 0 0 0 0 0 0 81 2 12 170 234 1 0 2
 0 0 235 236 0 80 2 234 237 238 8004 0 0 0 0 3 5 0 0 0 FFTFFFFFFFFFFF2 3 0 83 1
 235 7830.64 0 84 8 236 Kg/Cu M 0 79 16 238 SDL/TYSA_DENSITY0 80 1 11 106 239 90
00 0 0 0 0 3 5 0 0 0 FFTFFFFFFFFFFF1 0 82 255 1 13 129 0 79 24 239 UG2/BODY_COLO
R_ATTRIBUTE0 1 0 
