**ABCDEFGHIJKLMNOPQRSTUVWXYZabcdefghijklmnopqrstuvwxyz**************************
**PARASOLID !"#$%&'()*+,-./:;<=>?@[\]^_`{|}~0123456789**************************
**PART1;
MC=unknown;
MC_MODEL=unknown;
MC_ID=unknown;
OS=unknown;
OS_RELEASE=unknown;
FRU=sdl_parasolid_customer_support;
APPL=parasolid_acceptance_tests;
SITE=unknown;
USER=unknown;
FORMAT=text;
GUISE=transmit;
KEY=/bigtmp/behaff/Runs/Compressible/2D-Short-Channel/geom.xmt_txt;
FILE=/bigtmp/behaff/Runs/Compressible/2D-Short-Channel/geom.xmt_txt;
DATE=unknown;
**PART2;
SCH=SCH_2200175_20000;
USFLD_SIZE=1;
**PART3;
**END_OF_HEADER*****************************************************************
T51 : TRANSMIT FILE created by modeller version 220017523 SCH_2200175_20000_1300
6186 1 12 27 CCCCCCCCCCCCCCCCCCCCCCCA16 index_map_offset0 0 1 dA9 index_map82 0
 A17 node_id_index_map82 0 A20 schema_embedding_map82 0 Z1 221 0 2 0 0 0 0 1e3 1
e-8 0 3 4 1 0 1 1 5 6 7 8 9 10 11 0 0 0 0 0 70 11 CI9 list_type0 0 1 uI10 notran
smit0 0 1 lCCCDCCDI12 finger_index0 0 1 dI12 finger_block1012 0 CZ2 0 4 T1 0 0 2
 20 1 12 12 0 13 255 5 94 0 1 0 13 0 0 14 0 0 50 255 6 93 0 13 15 0 0 +-.05 .01
 25e-5 1 0 0 0 0 -1 0 30 255 7 89 0 10 16 0 0 +-.05 -.01 25e-5 0 0 -1 0 29 255 8
 70 0 17 18 0 -.05 .01 -25e-5 0 19 255 9 28 0 1 14 0 19 V0 16 255 10 77 0 ?20 0
 21 7 0 0 1 0 18 255 11 25 0 22 0 23 24 ?1 0 17 255 22 0 25 26 27 11 28 29 0 30
 +0 18 23 22 0 27 11 31 32 ?1 0 29 24 27 0 11 32 33 -.05 .01 25e-5 0 29 32 24 0
 23 34 24 .05 .01 25e-5 0 29 33 73 0 35 24 36 -.05 -.01 -25e-5 0 18 35 64 0 37 3
8 0 33 ?1 0 29 36 72 0 38 33 18 .05 -.01 -25e-5 0 18 38 63 0 39 40 35 36 ?1 0 29
 18 71 0 40 36 8 .05 .01 -25e-5 0 18 40 62 0 41 17 38 18 ?1 0 17 41 0 42 43 44 4
0 45 46 0 47 +0 18 17 61 0 48 49 40 8 ?1 0 17 48 0 50 30 47 17 51 52 0 53 +0 18
 49 16 0 54 31 17 55 ?1 0 17 54 0 56 20 57 49 58 59 0 26 -0 18 31 19 0 58 23 49
 34 ?1 0 29 55 18 0 49 0 34 -.05 -.01 25e-5 0 29 34 21 0 31 55 32 .05 -.01 25e-5
 0 17 58 0 25 27 26 31 54 59 0 57 +0 15 255 25 3 0 26 60 0 0 17 27 0 25 22 58 23
 61 62 0 43 +0 17 26 0 25 58 22 49 63 64 0 65 +0 16 59 7 0 ?58 62 64 66 0 0 1 0
 17 57 0 56 54 39 31 44 21 0 61 -0 15 56 82 0 39 67 0 0 17 39 0 56 57 20 38 37 6
8 0 44 +0 17 44 0 42 41 61 38 57 21 0 45 +0 16 21 76 0 ?44 10 69 16 0 0 1 0 17 6
1 0 42 44 43 31 27 62 0 0 -0 15 42 80 0 41 70 0 0 17 43 0 42 61 41 23 47 69 0 28
 -0 16 62 10 0 ?27 29 59 71 0 0 1 0 16 29 13 0 ?22 72 62 73 0 0 1 0 30 71 11 0 6
2 66 73 0 +.05 .01 25e-5 -3469446951953615e-31 1 0 0 30 66 8 0 59 74 71 0 +-.05
 -.01 25e-5 1 0 0 0 30 73 14 0 29 71 75 0 +-.05 .01 25e-5 -1 0 0 0 30 75 69 0 76
 73 77 0 +-.05 .01 -25e-5 0 -1 0 0 16 76 57 0 ?78 68 0 75 0 0 1 0 30 77 68 0 68
 75 79 0 +-.05 -.01 -25e-5 1 0 0 0 16 68 53 0 ?39 46 76 77 0 0 1 0 30 79 67 0 46
 77 80 0 +.05 .01 -25e-5 -3469446951953615e-31 1 0 0 16 46 49 0 ?41 52 68 79 0 0
 1 0 30 80 66 0 52 79 81 0 +-.05 .01 -25e-5 -1 0 0 0 16 52 45 0 ?48 64 46 80 0 0
 1 0 30 81 86 0 72 80 82 0 +-.05 .01 25e-5 0 0 -1 0 16 72 74 0 ?53 69 29 81 0 0
 1 0 30 82 87 0 69 81 16 0 +.05 .01 25e-5 0 0 -1 0 16 69 75 0 ?47 21 72 82 0 0 1
 0 30 16 88 0 21 82 7 0 +.05 -.01 25e-5 0 0 -1 0 17 47 0 50 48 28 40 43 69 0 51
 +0 15 50 78 0 48 83 0 0 17 28 0 50 47 30 23 22 29 0 0 -0 17 51 0 84 45 85 40 48
 52 0 0 -0 15 84 44 0 85 86 0 0 17 45 0 84 37 51 38 41 46 0 0 -0 17 85 0 84 51 3
7 17 78 76 0 0 -0 17 37 0 84 85 45 35 39 68 0 20 -0 17 78 0 87 65 53 35 85 76 0
 0 +0 15 87 84 0 78 13 0 0 17 65 0 87 63 78 49 20 10 0 0 -0 17 53 0 87 78 63 17
 30 72 0 85 +0 17 63 0 87 53 65 11 26 64 0 0 -0 17 30 0 50 28 48 11 53 72 0 63 -
0 16 64 4 0 ?26 59 52 74 0 0 1 0 30 74 5 0 64 0 66 0 +-.05 .01 25e-5 0 -1 0 0 17
 20 0 56 39 54 35 65 10 0 78 +0 14 255 13 85 88 ?67 0 87 5 6 -0 0 67 0 19 0 81 2
55 1 88 162 89 13 90 0 0 91 92 0 14 67 83 91 ?70 13 56 5 15 -0 0 70 13 19 0 13 1
9 29 0 0 0 0 0 0 9 13 0 81 1 91 163 89 67 93 0 88 94 95 0 14 70 81 94 ?83 67 42
 5 96 -0 0 83 67 19 0 50 15 92 0 67 96 6 0 +-.05 -.01 25e-5 0 1 0 0 0 1 0 50 96
 91 0 70 97 15 0 +.05 .01 25e-5 -1 -3469446951953615e-31 0 3469446951953615e-31
 -1 0 0 50 97 90 0 83 98 96 0 +-.05 .01 25e-5 0 -1 0 0 0 -1 0 14 83 79 99 ?60 70
 50 5 97 -0 0 60 70 19 0 50 98 65 0 86 100 97 0 +-.05 -.01 -25e-5 0 0 1 1 0 0 0
 14 86 43 101 ?0 60 84 5 98 -0 0 0 60 19 0 50 100 2 0 60 0 98 0 +-.05 -.01 25e-5
 0 0 1 1 0 0 0 14 60 1 102 ?86 83 25 5 100 +0 0 86 83 19 0 81 1 102 167 89 60 10
3 0 101 0 104 0 80 255 1 89 105 106 9000 1 1 1 1 1 1 1 1 0 FFFFTFTFFFFFFF1 0 81
 1 103 146 107 60 0 102 108 109 110 0 81 1 101 166 89 86 109 0 99 102 111 0 82 2
55 1 104 569770087 0 81 1 109 147 107 86 0 101 103 0 112 0 81 1 99 165 89 83 108
 0 94 101 113 0 82 1 111 573243495 0 81 1 108 145 107 83 0 99 114 103 115 0 81 1
 94 164 89 70 114 0 91 99 116 0 82 1 113 576323687 0 81 1 114 144 107 70 0 94 93
 108 117 0 82 1 116 576585831 0 80 1 107 0 118 8001 0 0 0 0 3 5 0 0 0 FFFFTFTFFF
FFFF2 0 81 1 93 143 107 67 0 91 90 114 119 0 83 255 3 117 .792156862745098 .8196
07843137255 .933333333333333 0 81 1 90 142 107 13 0 88 0 93 120 0 83 3 119 .7921
56862745098 .819607843137255 .933333333333333 0 83 3 120 .792156862745098 .81960
7843137255 .933333333333333 0 79 255 15 118 SDL/TYSA_COLOUR0 83 3 115 .792156862
745098 .819607843137255 .933333333333333 0 83 3 112 .792156862745098 .8196078431
37255 .933333333333333 0 83 3 110 .792156862745098 .819607843137255 .93333333333
3333 0 79 14 106 SWEntUnchanged0 82 1 95 576847975 0 82 1 92 577110119 0 19 14 9
5 0 1 0 9 5 S0 74 4 CI16 index_map_offset0 0 1 dCCZ20 12 2 0 0 102 109 0 0 0 0 0
 0 0 0 0 0 0 0 0 0 0 0 0 0 0 1 0 
