**ABCDEFGHIJKLMNOPQRSTUVWXYZabcdefghijklmnopqrstuvwxyz**************************
**PARASOLID !"#$%&'()*+,-./:;<=>?@[\]^_`{|}~0123456789**************************
**PART1;
MC=^_;
MC_MODEL=genuineintel family 6 model 5 stepping 2, intel(r) core(tm) i7-10850h cpu @ 2.70ghz;
MC_ID=^_;
OS=windows nt (x64);
OS_RELEASE=6.3 windows 10 education (build 19045) ;
FRU=mdc_ugii_v7.0_djl_can_vrh;
APPL=unigraphics;
SITE=unknown;
USER=^_;
FORMAT=text;
GUISE=transmit;
KEY=deformed_slab;
FILE=^_;
DATE=8-apr-2025;
**PART2;
SCH=SCH_3501171_35102;
USFLD_SIZE=0;
**PART3;
**END_OF_HEADER*****************************************************************
T51 : TRANSMIT FILE created by modeller version 350117123 SCH_3501171_35102_1300
6231 0 12 36 CCCI7 lattice222 0 CCCI4 mesh1006 0 I8 polyline1008 0 CCCCCCCDI5 ow
ner1040 0 CCCI16 boundary_lattice222 0 CCCI13 boundary_mesh1006 0 I17 boundary_p
olyline1008 0 CCCA16 index_map_offset0 0 1 dA9 index_map82 0 A17 node_id_index_m
ap82 0 A20 schema_embedding_map82 0 A5 child12 0 A14 lowest_node_id0 0 1 dA16 me
sh_offset_data206 0 Z1 282 2 3 0 0 0 0 0 0 0 1e3 1e-8 0 0 0 1 0 1 1 4 0 5 6 7 0
 0 8 9 10 0 0 0 0 0 0 0 81 255 1 2 270 11 1 12 0 0 0 13 70 11 CI9 list_type0 0 1
 uI10 notransmit0 0 1 lCCCDCCDI12 finger_index0 0 1 dI12 finger_block1012 0 CZ3
 0 4 T1 0 0 6 20 1 14 14 13 255 4 227 0 1 0 15 0 0 16 0 124 255 5 212 0 15 17 0
 0 +18 19 30 255 6 180 0 20 21 0 0 +-.499999999999984 -.499999999999985 0 -13322
67629550226e-30 1 0 29 255 7 154 0 22 23 0 -.499999999999985 -.499999999999985 0
 19 9 CCCCCCI5 frame230 0 CA5 owner12 0 Z8 228 0 1 16 0 24 0 V0 16 255 9 6 25 ?2
6 0 27 28 0 0 1 18 255 10 15 0 29 0 30 31 ?1 17 255 29 0 32 33 34 10 35 36 0 37
 -18 30 13 0 33 10 38 39 ?1 29 31 23 0 10 39 40 -.499999999999985 -.499999999999
985 .0625 29 39 21 0 30 41 31 .499999999999986 -.499999999999985 .0625 29 40 25
 0 42 31 43 -.499999999999985 .499999999999985 .0625 18 42 10 0 44 38 45 40 ?1 2
9 43 94 0 45 40 46 .499999999999985 .499999999999985 0 18 45 82 0 47 42 48 43 ?1
 29 46 91 0 48 43 23 -.499999999999985 .499999999999985 0 18 48 85 0 49 45 50 46
 ?1 29 23 124 0 50 46 7 .499999999999986 -.499999999999985 0 18 50 114 0 51 48 2
2 23 ?1 17 51 0 52 53 54 50 55 56 0 57 -18 22 146 0 58 50 0 7 ?1 17 58 0 59 37 6
0 22 61 20 0 54 -15 255 59 166 0 37 62 0 17 37 0 59 35 58 10 54 63 0 64 +17 60 0
 59 58 35 48 44 65 0 0 -17 61 0 66 67 55 48 58 20 0 60 +16 20 171 68 ?61 56 0 6
 0 0 1 17 54 0 52 51 64 22 37 63 0 55 -15 52 135 0 53 69 0 17 64 0 52 54 53 10 3
3 70 0 0 +16 63 138 71 ?37 72 56 73 0 0 1 17 55 0 66 61 74 22 51 56 0 0 +15 66 1
99 0 67 15 0 17 74 0 66 55 67 50 47 75 0 0 -16 56 140 76 ?55 63 20 21 0 0 1 81 1
 76 281 77 56 78 0 71 68 79 30 21 149 0 56 73 6 0 +.499999999999986 -.4999999999
99985 0 -1 0 0 30 73 150 0 63 80 21 0 +-.499999999999984 -.499999999999985 0 -21
316282072803e-27 177635683940025e-29 1 30 80 119 0 72 81 73 0 +.499999999999986
 -.499999999999985 .0625 0 0 -1 16 72 107 82 ?57 75 63 80 0 0 1 30 81 120 0 75 8
3 80 0 +.499999999999987 -.499999999999985 0 -1221245327087708e-30 1 0 16 75 105
 84 ?47 85 72 81 0 0 1 30 83 87 0 65 86 81 0 +-.499999999999985 .499999999999985
 0 0 0 1 16 65 78 87 ?44 88 85 83 0 0 1 30 86 89 0 88 89 83 0 +.499999999999985
 .499999999999985 .0625 0 0 -1 16 88 74 90 ?91 36 65 86 0 0 1 30 89 90 0 85 92 8
6 0 +.499999999999985 .499999999999985 0 -1 0 0 16 85 80 93 ?49 65 75 89 0 0 1 1
34 255 92 24 0 36 94 89 0 -95 96 16 36 16 97 ?35 70 88 92 0 0 1 134 94 22 0 70 9
8 92 0 -99 100 136 255 95 3 4 3 2 5 FFF1 101 102 103 135 255 96 2 0 45 255 12 10
1 -.499999999999985 .499999999999985 .0625 -.499999999999985 .1666666666666615 .
0625 -.499999999999985 -.1666666666666615 .0625 -.499999999999985 -.499999999999
985 .0625 127 255 2 102 4 4 128 255 2 103 0 1 16 70 14 104 ?64 27 36 94 0 0 1 13
4 98 20 0 27 28 94 0 +105 106 136 99 2 3 3 2 5 FFF1 107 108 109 135 100 2 0 45 9
 107 -.499999999999985 -.499999999999985 .0625 28421709430404e-29 -.499999999999
985 .0625 .499999999999986 -.499999999999985 .0625 127 2 108 3 3 128 2 109 0 1 1
6 27 12 110 ?111 9 70 98 0 0 1 134 28 18 0 9 0 98 0 +112 113 136 105 3 4 3 2 5 F
FF1 114 115 116 135 106 2 0 45 12 114 .499999999999985 .499999999999985 .0625 .4
99999999999985 .1666666666666615 .0625 .499999999999985 -.1666666666666615 .0625
 .499999999999986 -.499999999999985 .0625 127 2 115 4 4 128 2 116 0 1 136 112 2
 3 3 2 5 FFF1 117 118 119 135 113 2 0 45 9 117 -.499999999999985 .49999999999998
5 .0625 56843418860808e-30 .499999999999985 .0625 .499999999999985 .499999999999
985 .0625 127 2 118 3 3 128 2 119 0 1 81 1 110 272 77 27 120 0 25 104 121 17 111
 0 122 57 123 30 124 27 0 0 +15 122 104 0 123 125 0 17 57 0 122 47 111 50 53 72
 0 74 +17 123 0 122 111 47 38 91 88 0 26 -17 124 0 32 34 33 38 111 27 0 123 -15
 32 7 0 34 126 0 17 34 0 32 29 124 42 26 9 0 35 -17 33 0 32 124 29 30 64 70 0 53
 -18 38 11 0 124 30 42 41 ?1 29 41 19 0 38 0 39 .499999999999985 .49999999999998
5 .0625 17 53 0 52 64 51 30 57 72 0 111 -17 26 0 127 91 44 38 34 9 0 0 +17 35 0
 59 60 37 42 29 36 0 0 +15 127 73 0 49 128 0 17 91 0 127 49 26 45 123 88 0 67 +1
7 44 0 127 26 49 42 60 65 0 34 +17 49 0 127 44 91 48 67 85 0 61 +17 67 0 66 74 6
1 45 49 85 0 0 -14 255 128 71 129 ?126 125 127 4 130 -0 0 125 126 24 81 1 129 26
7 77 128 131 0 132 133 134 14 126 2 133 ?0 128 32 4 135 -0 0 128 0 24 14 125 102
 132 ?128 69 122 4 136 -0 0 69 128 24 50 255 130 86 0 128 135 136 0 --.059999999
9999982 .499999999999985 .025 0 1 0 1 0 0 13 24 3 0 0 0 0 0 0 8 126 124 135 17 0
 126 0 130 0 +137 138 50 136 117 0 125 130 139 0 -.499999999999985 .099999999999
997 .035 1 -666133814775114e-30 0 0 0 -1 50 139 148 0 69 136 17 0 -.099999999999
9977 -.499999999999985 .0275 0 1 0 0 0 1 14 69 133 140 ?125 62 52 4 139 +0 0 62
 125 24 50 17 179 0 62 139 5 0 --.499999999999985 -.0999999999999971 .0275 1 133
2267629550226e-30 21316282072803e-27 -21316282072803e-27 -278688780596487e-43 1
 14 62 164 141 ?69 15 59 4 17 +0 0 15 69 24 81 1 141 261 77 62 142 0 143 140 144
 14 15 197 143 ?62 0 66 4 5 +0 0 0 62 24 81 1 143 259 77 15 145 0 0 141 146 80 7
 CCCCCDI12 legal_owners0 16 1 lCZ1 77 0 147 8001 0 0 0 0 3 5 0 0 0 FFFFTFTFFFFFF
FFF2 81 1 145 258 148 15 149 143 0 142 150 83 255 3 146 .501960784313726 .635294
117647059 .705882352941177 80 1 148 151 152 8015 0 0 0 0 3 5 0 0 0 FFFFTFFFFFFFF
FFF2 81 1 149 248 153 15 0 145 154 155 156 81 1 142 260 148 62 157 141 145 158 1
59 83 1 150 0 81 1 157 250 153 62 0 142 155 160 161 81 1 158 262 148 69 162 140
 142 163 164 83 1 159 0 81 1 162 253 153 69 0 158 165 0 166 81 1 140 263 77 69 1
58 0 141 132 167 81 1 163 264 148 125 165 132 158 131 168 83 1 164 0 81 1 165 25
2 153 125 0 163 160 162 169 81 1 132 265 77 125 163 0 140 129 170 81 1 131 266 1
48 128 160 129 163 171 172 83 1 168 0 81 1 160 251 153 128 0 131 157 165 173 81
 1 171 268 148 126 155 133 131 0 174 83 1 172 0 81 1 155 249 153 126 0 171 149 1
57 175 81 1 133 269 77 126 171 0 129 25 176 83 1 174 0 81 1 25 271 77 9 177 0 13
3 110 178 83 3 176 .501960784313726 .635294117647059 .705882352941177 81 1 177 2
37 153 9 0 25 179 120 180 83 3 178 .501960784313726 .635294117647059 .7058823529
41177 80 1 153 181 182 9000 1 1 1 1 1 1 1 1 0 FFFFTFTFFFFFFFFF3 81 1 179 236 153
 72 0 82 0 177 183 81 1 120 238 153 27 0 110 177 78 184 84 255 32 180 625d5471e8
8b0c3433e8d4c7f30cd0ad81 1 78 239 153 56 0 76 120 185 186 84 32 184 ebf3dd57e407
df146376a7a4433d8f7781 1 185 240 153 85 0 93 78 187 188 84 32 186 c14ab32ba5be89
3c5079bf122835cf0781 1 93 277 77 85 185 0 87 84 189 81 1 187 241 153 20 0 68 185
 190 191 84 32 188 7e97a630f8787b2dde4476ddbfd0556e81 1 68 282 77 20 187 0 76 0
 192 81 1 190 242 153 63 0 71 187 193 194 84 32 191 12bdcc956eac9043d45e2e4c3da3
d1c581 1 71 280 77 63 190 0 82 76 195 81 1 193 243 153 75 0 84 190 196 197 84 32
 194 8984d1a9856b6df284a69eebe2c1b97f81 1 84 278 77 75 193 0 93 82 198 81 1 196
 244 153 70 0 104 193 199 200 84 32 197 45f465802bbbda27a9da5fefc67be62d81 1 104
 273 77 70 196 0 110 97 201 81 1 199 245 153 65 0 87 196 202 203 84 32 200 1cc90
0d7914e7a9e54c774c9ac1a2ce281 1 87 276 77 65 199 0 90 93 204 81 1 202 246 153 36
 0 97 199 154 205 84 32 203 6b22dbf36b4992d897f7161ad18a759181 1 97 274 77 36 20
2 0 104 90 206 81 1 154 247 153 88 0 90 202 149 207 84 32 205 5d4bf9e07fb34869d7
1316c8ed2f1fe781 1 90 275 77 88 154 0 97 87 208 84 32 207 4bd99c49f020fcfa96e659
a7334af4e383 3 208 .501960784313726 .635294117647059 .705882352941177 83 3 206 .
501960784313726 .635294117647059 .705882352941177 83 3 204 .501960784313726 .635
294117647059 .705882352941177 83 3 201 .501960784313726 .635294117647059 .705882
352941177 81 1 82 279 77 72 179 0 84 71 209 83 3 198 .501960784313726 .635294117
647059 .705882352941177 83 3 209 .501960784313726 .635294117647059 .705882352941
177 83 3 195 .501960784313726 .635294117647059 .705882352941177 83 3 192 .501960
784313726 .635294117647059 .705882352941177 83 3 189 .501960784313726 .635294117
647059 .705882352941177 84 32 183 1c146dfc4aea66a3020ff90c3790d10679 255 15 182
 UGS/ObjectState84 32 175 5fec0b3f1c03de46806dd32945eb52e084 32 173 4d9f022335ee
5ab88097f088bf900f8383 3 170 .501960784313726 .635294117647059 .705882352941177
 84 32 169 d6c4d87e78023b84cfb425d9e0a58ffe83 3 167 .501960784313726 .6352941176
47059 .705882352941177 84 32 166 224aa3b5cd8b77cd69e9023829da1d3d84 32 161 64b12
59a9e7731544770d52e60ac51b184 32 156 1c4e630f09c7cc2c1717ecc9e6607fa579 21 152 S
DL/TYSA_TRANSLUCENCY79 15 147 SDL/TYSA_COLOUR83 3 144 .501960784313726 .63529411
7647059 .705882352941177 126 255 137 FF2 3 3 4 5 5 2 2 FFF2 3 210 211 212 213 21
4 125 255 138 0 1 0 1 0 1 0 1 2 BBBBBBBB????0 0 0 0 45 36 210 -.499999999999985
 .499999999999985 .0625 -.499999999999985 .1666666666666615 .0625 -.499999999999
985 -.1666666666666615 .0625 -.499999999999985 -.499999999999985 .0625 568434188
60808e-30 .499999999999985 .0625 -147125414579437e-30 .1666666666666615 .7291666
66666667 -713341894316931e-31 -.1666666666666615 .729166666666667 28421709430404
e-29 -.499999999999985 .0625 .499999999999985 .499999999999985 .0625 .4999999999
99985 .1666666666666615 .0625 .499999999999985 -.1666666666666615 .0625 .4999999
99999986 -.499999999999985 .0625 127 2 211 3 3 127 2 212 4 4 128 2 213 0 1 128 2
 214 0 1 83 3 134 .501960784313726 .635294117647059 .705882352941177 17 47 0 122
 123 57 45 74 75 0 91 +83 3 121 .501960784313726 .635294117647059 .7058823529411
77 83 3 79 .501960784313726 .635294117647059 .705882352941177 19 16 5 0 1 0 8 4
 0 S0 126 18 FF2 3 3 4 5 5 2 2 FFF2 3 215 216 217 218 219 125 19 0 1 0 1 0 1 0 1
 2 BBBBBBBB????0 0 0 0 45 36 215 -.499999999999985 .499999999999985 0 -.49999999
9999985 .1666666666666615 0 -.499999999999985 -.1666666666666615 0 -.49999999999
9985 -.499999999999985 0 56843418860808e-30 .499999999999985 0 -147125414579437e
-30 .1666666666666615 .666666666666667 -713341894316931e-31 -.1666666666666615 .
666666666666667 28421709430404e-29 -.499999999999985 0 .499999999999985 .4999999
99999985 0 .499999999999985 .1666666666666615 0 .499999999999985 -.1666666666666
615 0 .499999999999986 -.499999999999985 0 127 2 216 3 3 127 2 217 4 4 128 2 218
 0 1 128 2 219 0 1 74 4 CI16 index_map_offset0 0 1 dCCZ20 14 6 0 0 220 162 12 17
1 68 2 0 0 0 0 0 0 0 0 0 0 0 0 0 0 81 2 220 35 221 1 0 12 0 0 222 223 81 1 12 25
7 224 1 220 2 0 0 225 80 1 224 226 227 9000 0 0 0 0 3 5 0 0 0 FFTFFFFFFFFFFFFF1
 82 255 1 225 -1 79 19 227 UG2/PMARK_ATTRIBUTE80 2 221 228 229 8004 0 0 0 0 3 5
 0 0 0 FFTFFFFFFFFFFFFF2 3 83 1 222 7830.64 84 8 223 Kg/Cu M 79 16 229 SDL/TYSA_
DENSITY80 1 11 77 230 8040 0 0 0 0 3 5 0 0 0 TTTFFFFFFFFFFFFF2 83 3 13 .50196078
4313726 .635294117647059 .705882352941177 79 17 230 SDL/TYSA_COLOUR_21 0 
