**ABCDEFGHIJKLMNOPQRSTUVWXYZabcdefghijklmnopqrstuvwxyz**************************
**PARASOLID !"#$%&'()*+,-./:;<=>?@[\]^_`{|}~0123456789**************************
**PART1;
MC=AMD64;
MC_MODEL=Intel64 Family 6 Model 142 Stepping 10, GenuineIntel;
MC_ID=unknown;
OS=Windows_NT;
OS_RELEASE=unknown;
FRU=Parasolid Version 32.1, build 255,  1- 1-2021;
APPL=SOLIDWORKS 2021-2021085;
SITE=;
USER=unknown;
FORMAT=text;
GUISE=transmit;
KEY=CFDGeom_CTS_2DSlice_V2_2AoA;
FILE=CFDGeom_CTS_2DSlice_V2_2AoA.x_t;
DATE=Mon Jul 18 08:47:04 2022;
**PART2;
SCH=SCH_3201255_32001;
USFLD_SIZE=0;
**PART3;
**END_OF_HEADER*****************************************************************
T51 : TRANSMIT FILE created by modeller version 320125523 SCH_3201255_32001_1300
6229 0 12 34 CCCCCCI4 mesh1006 0 I8 polyline1008 0 CCCCCCCDI5 owner1040 0 CCCCCC
I13 boundary_mesh1006 0 I17 boundary_polyline1008 0 CCCA16 index_map_offset0 0 1
 dA9 index_map82 0 A17 node_id_index_map82 0 A20 schema_embedding_map82 0 A5 chi
ld12 0 A14 lowest_node_id0 0 1 dA16 mesh_offset_data206 0 Z1 4593 2 3 0 0 0 0 0
 0 1e3 1e-8 0 4 0 1 0 1 1 5 6 7 8 0 0 9 10 11 0 0 0 0 0 0 0 81 255 2 2 4582 12 1
 13 0 0 0 0 14 70 11 CI9 list_type0 0 1 uI10 notransmit0 0 1 lCCCDCCDI12 finger_
index0 0 1 dI12 finger_block1012 0 CZ3 0 4 T1 0 0 10 20 1 15 15 13 255 5 3111 0
 1 0 16 0 0 17 0 50 255 6 65 0 18 19 0 0 +-2.686049999917135 -517492385015886e-3
0 -517492385015951e-30 -1 -192659252445729e-30 -1926592524457535e-31 -1926592524
457535e-31 0 1 134 255 7 4320 0 10 20 0 0 -21 22 29 255 8 4325 0 11 23 0 .533365
616608502 -.00232692394263926 .0076199999999996 19 8 CCCCCCCA5 owner12 0 Z9 3113
 0 1 17 0 24 V0 16 255 10 4318 0 ?25 0 26 7 0 0 1 18 255 11 4323 0 27 0 28 8 ?1
 17 255 27 0 29 30 31 11 32 33 0 34 +18 28 4307 0 35 11 36 23 ?1 17 35 0 29 31 3
0 28 37 38 0 39 -18 36 3736 0 40 28 41 42 ?1 29 23 4309 0 28 42 8 .6845029723359
86 .0027380133148398 -.00762000000000041 29 42 3739 0 36 43 23 -2.68604999991713
5 1.14300000000004 .0076200000000004 29 43 3731 0 41 44 42 -2.686049999917135 -1
.14299999999998 -.0076199999999997 18 41 3728 0 45 36 46 43 ?1 29 44 4117 0 46 4
7 43 467027819216261e-29 -.381000035287925 -.00762 18 46 3970 0 48 41 49 44 1000
000002168476e-20 1 29 47 4118 0 49 50 44 983596070710464e-30 .381 -.00762 18 49
 3969 0 51 46 52 47 1003528797160034e-20 1 29 50 4119 0 52 53 47 -2.686049999917
13 1.143000000000042 -.00761999999999966 18 52 3967 0 54 49 55 50 ?1 29 53 4121
 0 55 56 50 3.5687 .380999964712033 -.0076200000000004 18 55 3961 0 57 52 58 53
 ?1 29 56 4122 0 58 59 53 3.5687 -.381000035287967 -.0076200000000004 18 58 3984
 0 60 55 61 56 ?1 29 59 4123 0 61 62 56 465894340376082e-29 -.381000035287926 .0
0762 18 61 3972 0 63 58 64 59 1000000002168404e-20 1 29 62 4124 0 64 65 59 96282
4298275428e-30 .381 .00762 18 64 3987 0 66 61 67 62 100352879713783e-19 1 29 65
 4125 0 67 68 62 3.5687 .380999964712032 .0076199999999996 18 67 3963 0 69 64 70
 65 ?1 29 68 4126 0 70 71 65 3.5687 -.381000035287968 .0076199999999996 18 70 39
62 0 72 67 73 68 ?1 29 71 4128 0 73 74 68 -2.68604999991713 -1.142999999999982 .
0076200000000004 18 73 3965 0 75 70 76 71 ?1 29 74 4445 0 76 77 71 .684488121496
346 .003163285718746435 .00762 18 76 4378 0 78 73 79 74 ?1 29 77 4446 0 79 80 74
 .684488121496346 .003163285718746435 -.00762 18 79 4372 0 81 76 82 77 ?1 29 80
 4448 0 82 83 77 .533365616608502 -.00232692394263926 -.00762000000000041 18 82
 4379 0 31 79 84 80 ?1 29 83 4449 0 84 0 80 .684502972335924 .00273801331512856
 .0076199999999996 18 84 4380 0 30 82 0 83 ?1 17 30 0 29 35 27 84 85 86 0 37 +15
 255 29 4417 0 30 87 0 17 85 0 88 89 90 11 30 86 0 0 -16 86 4347 0 ?30 91 92 93
 0 0 1 17 37 0 94 78 39 84 35 38 0 90 +15 94 4413 0 95 96 0 17 78 0 94 95 37 76
 90 91 0 97 -17 39 0 94 37 95 28 98 26 0 99 -16 38 4360 0 ?37 92 33 100 0 0 1 17
 90 0 88 85 89 84 78 91 0 0 +15 88 4324 0 85 16 0 17 89 0 88 90 85 76 34 101 0 0
 +16 91 4358 0 ?90 101 86 102 0 0 1 16 101 4355 0 ?89 103 91 104 0 0 1 31 255 10
2 4434 0 91 93 104 0 -.684457347696255 .00294931557078531 .00762 128688067926600
2e-31 0 1 1 0 -1286880679266002e-31 .000216171808963452 134 93 4435 0 86 105 102
 0 +106 107 134 104 4433 0 101 102 108 0 +109 110 30 255 108 4103 0 111 104 112
 0 +3.5687 -1.14301174231246 -.0076200000000004 0 1 0 136 255 109 4 40 3 37 6 FF
F1 113 114 115 135 255 110 2 0 45 255 120 113 .533365616608502 -.002326923942639
26 .0076199999999996 .533359781262329 -.002161211450666295 .0076199999999996 .53
3366189253322 -.001892807495750265 .0076199999999996 .533413321294046 -.00150343
4550427615 .0076199999999996 .533547150614485 -.000994437790549596 .007619999999
9996 .533733768220251 -.000519710505744564 .0076199999999996 .534013155490913 59
3281124676177e-21 .0076199999999996 .534414845047248 .000576413943142431 .007619
9999999996 .534998349651958 .001235738937353566 .0076199999999996 .5358702657833
7 .00201807479863181 .0076199999999996 .537199925097395 .002962167209775025 .007
6199999999996 .539236026475342 .00409248063184981 .0076199999999996 .54240736813
0259 .00544349018503169 .0076199999999996 .5471859685941 .00694954569615823 .007
6199999999996 .554322295176643 .00853093661469382 .0076199999999996 .56355310724
6595 .00981371449015578 .0076199999999996 .57288251171744 .01051653154716172 .00
76199999999996 .581698527345105 .01082314683305086 .0076199999999996 .5905183837
1853 .0109036840631542 .0076199999999996 .599338385821793 .01078918890397158 .00
76199999999996 .608153421350263 .01047886480636192 .0076199999999996 .6169615030
02401 .0100153456535941 .0076199999999996 .62429597745621 .00954159447799178 .00
76199999999996 .630160737137401 .00911458980532699 .0076199999999996 .6360211543
14379 .00864342155553399 .0076199999999996 .641879729290503 .00813030482466448 .
0076199999999996 .647731749523461 .00757767119380283 .0076199999999996 .65285367
597667 .00705926179163729 .0076199999999996 .657233739456772 .00659171199103175
 .0076199999999996 .660894096834402 .00618392298432455 .0076199999999996 .663799
630841453 .00585088929272905 .0076199999999996 .666747716472882 .005501356427548
1 .0076199999999996 .669616990655526 .00515281168602604 .0076199999999996 .67261
6164713737 .00477455922062021 .0076199999999996 .675395740934077 .00441727326482
249 .0076199999999996 .678535030348472 .003996128000331105 .0076199999999996 .68
1073936365903 .003650768045610155 .0076199999999996 .683721968202062 .0032741200
60773135 .0076199999999996 .685011033633316 .00308826918433656 .0076199999999996
 .685672778646677 .00299175935505482 .0076199999999996 127 255 37 114 5 1 1 1 1
 1 1 1 1 1 1 1 1 1 1 1 1 1 1 1 1 1 1 1 1 1 1 1 1 1 1 1 1 1 1 1 5 128 255 37 115
 0 .003840943686680295 .00623502344547994 .0090722911807389 .0121932195027496 .0
1565683913066555 .01991717655238185 .02533896174756595 .0325925040205036 .042799
3875578547 .0577045702050979 .0793106675832982 .1125031012798636 .15897261627241
6 .227236465354744 .29550032638524 .3296322580351885 .3637641896851365 .43202805
28998595 .500291915136868 .534423847396322 .568555779655776 .602687711149444 .63
6819642643113 .670951575392144 .705083508141176 .739215439489715 .75628140516398
5 .773347370838255 .790413336629906 .807479302421558 .824545268213209 .841611234
004861 .858677200446657 .875743166888454 .89280913333025 .909875099772046 16 111
 3888 0 ?116 117 103 108 0 0 1 30 112 4102 0 103 108 118 0 +3.5687 -1.1430117423
1246 .0076199999999996 0 1 0 16 103 3877 0 ?69 111 101 112 0 0 1 133 255 118 409
2 0 117 112 119 0 +119 -2.686049999917135 1.14300000000004 .0076200000000004 141
9109341565628e-30 .381000035287974 .00762 0 2.792713985439955 16 117 3895 0 ?120
 121 111 118 0 0 1 38 12 CCCCCCCCCCCA17 intersection_data204 0 Z119 4091 0 1 118
 122 123 +19 124 125 126 127 128 133 122 4090 0 121 119 129 0 +129 3.5687 .38099
9964712032 .00761999999999962 506539254985228e-30 .380999964712031 .00762 -3.549
65 .01905 141 255 123 118 123 123 119 124 255 19 2016 0 130 131 6 132 +133 134 5
0 124 4069 0 16 135 136 137 +3.5687 -1.14301174231246 .0076199999999996 12868806
79266002e-31 0 1 1 0 -1286880679266002e-31 40 255 4 125 0 1 4 .2032285912026775
 .3905509333867485 ??-2.686049999917135 1.14300000000004 .0076200000000004 -1.72
5053504069985 .939771408797357 .00762000000000025 -.895077365160272 .57829120196
6267 .00762000000000016 1419109341565628e-30 .381000035287974 .00762 41 3 CI8 te
rm_use0 0 1 cCZ1 126 L?-2.686049999917135 1.14300000000004 .0076200000000004 41
 1 127 L?1419109341565628e-30 .381000035287974 .00762 204 2 17 INTERSECTION_DATA
17 Intersection data7 uv_type0 0 1 u6 values0 1 1 fT16 128 4 522288774293236e-32
 .496702757731028 -6.25474999991713 2.2860117423125 .3546334161779735 .496702757
731024 -5.29375350406999 2.08278315110982 .671236881193241 .496702757731013 -4.4
6377736516027 1.72130294427873 .999999999993697 .496702757731007 -3.5687 1.52401
1777600435 14 255 16 4334 138 ?139 0 140 5 124 +0 0 139 0 24 50 135 4071 0 139 1
41 124 142 +3.5687 -1.14301174231246 -.0076200000000004 -1198130287592484e-31 0
 -1 -1 0 1198130287592484e-31 50 136 2134 0 143 124 144 0 +3.5687 39299839185108
5e-28 -.0001269647120307194 1 2633490703527295e-31 -26334907035271e-29 -26334907
035271e-29 263349070352716e-30 -1 141 137 119 145 145 124 141 145 146 137 137 12
4 38 146 4087 0 1 147 148 149 +131 124 150 151 152 153 133 147 4088 0 154 129 14
6 0 +146 465894340376082e-29 -.381000035287926 .00762 -2.686049999917135 -1.1429
99999999982 .0076200000000004 0 2.78912314680087 133 148 4086 0 155 146 156 0 +1
56 707767178198537e-30 -.381000035287969 .00762 3.5687 -.381000035287968 .007619
99999999962 -.01905 3.54965 141 149 147 149 149 146 124 131 2029 0 157 158 19 15
9 +160 161 40 4 150 0 1 4 .2144052722413185 .3974361086151535 ??465894340376082e
-29 -.381000035287926 .00762 -.936235822998137 -.595405307529977 .00762000000000
015 -1.773569104863225 -.958712201504785 .00762000000000037 -2.686049999917135 -
1.142999999999982 .00762000000000029 41 1 151 L?465894340376082e-29 -.3810000352
87926 .00762 41 1 152 L?-2.686049999917135 -1.142999999999982 .00762000000000029
 204 16 153 4 1 .50329724226901 -3.5687 .762011707024536 .655607690880351 .50329
7242269015 -4.50493582299814 .547606434782484 .3362306182258375 .503297242269023
 -5.34226910486322 .184299540807676 2795842204121205e-29 .503297242269029 -6.254
74999991713 1174231247857982e-20 14 157 3805 162 ?130 143 163 5 131 +0 0 130 143
 24 50 158 2039 0 164 144 131 165 +.0190500000000006 .3809999647120145 .38100003
5287987 263349070352721e-30 -1 -45e-15 -263349070352721e-30 45e-15 -1 141 159 16
6 167 168 131 126 255 160 FF3 1 18 2 6 5 16 2 TFF11 4 169 170 171 172 173 125 25
5 161 0 1 0 1 0 1 0 1 2 BBBBBBBB????0 0 0 0 45 144 169 -2.68604999991713 -1.1429
99999999926 -1.155511087500066 1 -2.686049999917135 -1.14300000000004 1.15551108
7499924 1 -2.64788471659305 -1.142999999999924 -1.155511087500066 1 -2.647884716
593055 -1.14300000000004 1.155511087499926 1 -1.88457905011146 -1.14299999999992
6 -1.155511087500064 1 -1.884579050111465 -1.14300000000004 1.155511087499928 1
 -1.193113623530006 -.636809786485126 -1.15551108750004 1 -1.19311362353001 -.63
6809786485239 1.155511087499954 1 -.471401854442447 -.4285953051098475 -1.155511
087500028 1 -.471401854442452 -.4285953051099615 1.155511087499966 1 -.429574481
045134 -.418078423574645 -1.155511087500028 1 -.4295744810451385 -.4180784235747
58 1.155511087499966 1 -.385058947510217 -.40856101353077 -1.155511087500026 1 -
.3850589475102215 -.408561013530883 1.155511087499964 1 -.3426974282043245 -.401
058695349195 -1.155511087500026 1 -.342697428204331 -.401058695349308 1.15551108
7499968 1 -.296889397319738 -.3943278891258985 -1.155511087500024 1 -.2968893973
19743 -.3943278891260115 1.155511087499966 1 -.2483969612800575 -.38891988660756
5 -1.155511087500026 1 -.2483969612800625 -.388919886607678 1.15551108749997 1 -
.197507740186163 -.3851021620530465 -1.155511087500024 1 -.197507740186168 -.385
1021620531595 1.155511087499966 1 -.1513895574267275 -.3828626948021915 -1.15551
1087500024 1 -.151389557426732 -.3828626948023045 1.15551108749997 1 -.109481871
995034 -.381676187642845 -1.155511087500024 1 -.1094818719950384 -.3816761876429
58 1.155511087499968 1 -.0673637659355333 -.381088745463035 -1.155511087500024 1
 -.0673637659355399 -.381088745463148 1.155511087499966 1 -.03223523029080025 -.
3809319934516795 -1.155511087500026 1 -.03223523029080685 -.3809319934517925 1.1
5551108749997 1 -.00893271199346948 -.3810000352878695 -1.155511087500024 1 -.00
89327119934712 -.381000035287982 1.155511087499968 1 -.000425367237779222 -.3810
00035287869 -1.155511087500024 1 -.000425367237780941 -.381000035287982 1.155511
087499968 1 552402508094969e-29 -.381000035287869 -1.155511087500024 1 380519651
497379e-29 -.381000035287982 1.155511087499968 1 127 16 170 4 1 1 1 1 1 1 1 1 1
 1 1 1 1 1 4 127 2 171 2 2 128 16 172 0 .0408394004024897 .816788008049794 .8292
51324804548 .845124235721322 .862943953647523 .877973259570031 .891170814631966
 .912504074533653 .930190875937079 .945794423495555 .961928806574653 .9750704925
35707 .99088407821151 .999544203910576 1 128 2 173 0 1 38 166 4079 0 1 174 175 1
76 +131 135 177 178 179 180 141 167 146 168 159 131 141 168 181 159 167 131 137
 255 181 2180 0 1 182 183 184 -131 185 0 ?137 182 2184 0 1 186 181 187 -19 188 0
 ?137 183 2150 0 1 181 189 190 -144 191 0 ?141 184 192 184 184 181 134 185 0 0 0
 0 0 0 +193 194 136 193 1 2 2 2 5 FFF1 195 196 197 135 194 1 0 45 4 195 1 .61034
7723205186 1 .3896522767948195 127 2 196 2 2 128 2 197 0 1 133 192 3786 0 198 19
9 200 0 +181 467027819216261e-29 -.381000035287925 -.00761999999999985 465894340
376082e-29 -.381000035287926 .00762000000000029 .51494023697642 .485059763023493
 17 198 0 163 201 202 61 203 204 192 0 +133 199 3761 0 205 206 192 0 +207 503069
808033274e-30 .380999964712032 -.00762 506539254985228e-30 .380999964712031 .007
62 .515000069464542 .485000069464541 133 200 3787 0 203 192 208 0 +183 707767178
198537e-30 -.381000035287969 .0076200000000003 704297731246584e-30 -.38100003528
7968 -.00761999999999984 .514999930535531 .48499993053553 17 203 0 209 210 211 4
6 198 204 200 0 -133 208 3812 0 212 200 213 0 +189 3.5687 -.381000035287968 .007
61999999999961 3.5687 -.381000035287967 -.0076200000000004 .3733800352879535 .38
86200352879535 16 212 3811 0 ?214 215 204 208 0 0 1 133 213 3820 0 215 208 216 0
 +217 3.5687 .380999964712033 -.0076200000000004 3.5687 .380999964712032 .007619
99999999961 -.3886200352879875 -.3733800352879875 30 189 3514 0 1 183 217 218 +3
.5687 -.3810000352879845 .381000035287953 0 45e-15 -1 30 217 3518 0 1 189 219 22
0 +3.5687 .3809999647120155 .381000035287987 0 -45e-15 1 141 218 208 218 218 189
 133 219 3730 0 221 217 222 0 +186 -2.686049999917135 -1.14299999999998 -.007619
9999999997 -2.686049999917135 -1.142999999999982 .0076200000000004 1.20015000000
0068 1.215390000000068 141 220 213 220 220 217 16 221 3729 0 ?223 224 215 219 0
 0 1 133 222 3738 0 224 219 225 0 +226 -2.686049999917135 1.14300000000004 .0076
200000000004 -2.686049999917135 1.143000000000042 -.0076199999999997 1.200150000
00006 1.21539000000006 30 186 2224 0 1 226 182 227 +-2.68604999991713 -1.1429999
99999922 -1.207770000000066 -1912331324970915e-30 -489300256572326e-28 1 30 226
 2292 0 1 207 186 228 +-2.686049999917135 1.142999999999954 1.207770000000062 19
97610186619385e-30 723114862514374e-28 -1 141 227 219 227 227 186 137 207 2375 0
 1 229 226 230 -158 231 0 ?141 228 222 228 228 226 30 229 4077 0 1 175 207 232 +
.01905000000000075 -.381000035287968 -.00762 -1 -2633490703527265e-31 1198130287
592484e-31 141 230 199 230 230 207 134 231 0 0 0 0 0 0 +233 234 136 233 1 2 2 2
 5 FFF1 235 236 237 135 234 1 0 45 4 235 .127 -.01905 .635 -.01905 127 2 236 2 2
 128 2 237 0 1 133 175 4078 0 238 166 229 0 +229 3.5687 -.381000035287967 -.0076
200000000004 704297731246584e-30 -.381000035287968 -.00762 -3.54965 .01905 141 2
32 175 232 232 229 16 238 3892 0 ?48 239 240 175 0 0 1 17 48 0 241 45 60 46 210
 238 0 202 +16 239 3759 0 1e-5 242 204 238 0 0 0 1 16 240 3890 0 ?202 238 243 17
4 0 0 1 17 202 0 163 198 244 46 45 240 0 203 +16 243 3949 0 ?57 240 245 246 0 0
 1 133 174 4080 0 240 247 166 0 +166 -2.686049999917135 -1.142999999999982 -.007
61999999999966 467027819216261e-29 -.381000035287925 -.00762 0 2.79271398543996
 30 247 4081 0 1 246 174 248 +.01905000000000055 .380999964712032 -.00762 1 2633
490703527265e-31 -1198130287592484e-31 133 246 4082 0 243 249 247 0 +247 5030698
08033274e-30 .380999964712032 -.00762 3.5687 .380999964712033 -.0076200000000004
 -.01905 3.54965 141 248 246 248 248 247 38 249 4083 0 1 250 246 251 +19 135 252
 253 254 255 133 250 4084 0 245 156 249 0 +249 1464122333387654e-30 .38100003528
7975 -.00762 -2.686049999917135 1.143000000000042 -.00761999999999966 0 2.789123
14680087 141 251 250 251 251 249 40 4 252 0 1 4 .2144052722414255 .3974361086157
04 ??1464122333387654e-30 .381000035287975 -.00762 -.936235822996637 .5954053075
29401 -.00761999999999986 -1.773569104862485 .958712201504558 -.0076199999999997
1 -2.68604999991713 1.143000000000042 -.00761999999999963 41 1 253 L?14641223333
87654e-30 .381000035287975 -.00762 41 1 254 L?-2.68604999991713 1.14300000000004
2 -.00761999999999963 204 16 255 4 1 .503297242269002 3.5687 1.524011777600435 .
655607690880922 .503297242269008 4.50493582299664 1.73841704984186 .336230618226
1175 .503297242269019 5.34226910486249 2.10172394381702 274357590798697e-28 .503
297242269023 6.25474999991713 2.286011742312505 16 245 3889 0 ?256 243 155 250 0
 0 1 30 156 4085 0 1 148 250 257 +.01905000000000075 -.381000035287969 .00762 1
 2633490703527265e-31 -1286880679266002e-31 141 257 148 257 257 156 17 256 0 258
 259 242 52 51 245 0 260 +16 155 3896 0 ?72 245 154 148 0 0 1 17 72 0 140 69 63
 70 211 155 0 261 +16 154 3893 0 ?201 155 121 147 0 0 1 17 201 0 163 244 198 73
 63 154 0 223 +16 121 3956 0 ?66 154 117 122 0 0 1 17 66 0 140 40 69 64 262 121
 0 120 +15 140 4016 0 72 16 88 17 40 0 140 75 66 36 120 117 0 263 -17 69 0 140 6
6 72 67 261 103 0 262 +17 262 0 264 265 205 67 66 121 0 266 -17 120 0 258 242 25
9 64 40 117 0 205 +15 258 1993 0 242 130 0 17 242 0 258 256 120 49 205 239 206 0
 +17 259 0 258 120 256 36 260 224 0 0 -17 205 0 264 262 267 64 242 239 199 0 -15
 264 3869 0 267 164 0 17 267 0 264 205 265 49 57 243 0 242 -17 265 0 264 267 262
 55 266 215 0 0 -17 57 0 241 60 51 55 267 243 0 116 +15 241 4008 0 48 139 268 17
 60 0 241 48 57 58 116 111 0 210 -17 51 0 241 57 54 49 256 245 0 267 -17 116 0 2
69 266 214 55 60 111 0 265 +15 269 1833 0 214 143 0 17 266 0 269 261 116 67 265
 215 0 0 +17 214 0 269 116 261 58 270 212 0 0 +17 261 0 269 214 266 70 69 103 0
 270 -17 270 0 209 211 210 70 214 212 0 0 -15 209 3853 0 210 271 0 17 211 0 209
 203 270 61 72 155 0 198 -17 210 0 209 270 203 58 48 238 0 214 -14 271 3855 272
 ?143 164 209 5 144 -0 0 143 164 24 81 1 272 4585 273 271 274 0 162 275 276 14 1
43 3838 275 ?157 271 269 5 136 +0 0 157 271 24 14 164 3871 277 ?271 139 264 5 15
8 -0 0 271 139 24 50 144 2041 0 271 136 158 278 +.0190500000000008 -.38100003528
79855 .381000035287953 -263349070352721e-30 1 45e-15 263349070352721e-30 -45e-15
 1 13 24 3112 0 0 0 0 0 0 9 16 141 278 183 278 278 144 81 1 277 4587 273 164 279
 0 275 280 281 14 139 4321 280 ?164 16 241 5 135 +0 0 164 16 24 81 1 280 4588 27
3 139 282 0 277 283 284 80 255 1 273 285 286 9000 1 1 1 1 1 1 1 1 0 FFFFTFTFFFFF
FF1 81 1 282 4548 287 139 0 280 288 279 289 81 1 283 4589 273 18 290 0 280 291 2
92 82 255 1 284 -1558510746 14 18 3754 283 ?293 130 294 5 6 +0 0 293 130 24 81 1
 290 4554 287 18 295 283 296 297 298 81 1 291 4590 273 130 296 0 283 299 300 82
 1 292 -2033515705 14 130 3779 291 ?18 157 258 5 19 +0 0 18 157 24 81 1 296 4553
 287 130 301 291 302 290 303 81 1 299 4591 273 293 297 0 291 304 305 82 1 300 -2
024537273 14 293 4406 299 ?96 18 306 5 141 +0 0 96 18 24 81 1 297 4555 287 293 0
 299 290 307 308 81 1 304 4592 273 96 307 0 299 309 310 82 1 305 -1579941018 14
 96 4410 304 ?87 293 94 5 311 +0 0 87 293 24 81 1 307 4556 287 96 0 304 297 312
 313 81 1 309 4593 273 87 312 0 304 0 314 82 1 310 -1580399770 14 87 4414 309 ?0
 96 29 5 315 -0 0 0 96 24 81 1 312 4557 287 87 0 309 307 0 316 82 1 314 -1580137
626 80 1 287 0 317 8001 0 0 0 0 3 5 0 0 0 FFFFTFTFFFFFFF2 83 255 3 316 .19215686
2745098 .780392156862745 1 79 255 15 317 SDL/TYSA_COLOUR67 255 315 4429 0 87 311
 141 0 +318 0 0 1 .003723226683345365 51 255 311 4430 0 96 0 315 0 -.68445734769
6255 .00294931557078531 -.00767017643985807 0 0 1 .000216171808963452 1 0 0 67 1
41 4428 0 293 315 135 0 +319 0 0 1 .00372322668317456 134 318 4440 0 1 319 320 3
21 +322 323 134 319 4441 0 1 0 318 324 +325 326 30 320 4438 0 92 318 100 0 +.684
488121496346 .003163285718746435 -.00767017643985807 0 0 1 141 321 315 321 321 3
18 136 322 4 40 3 37 6 FFF1 327 328 329 135 323 2 0 45 120 327 .533365616608502
 -.00232692394263926 -.00767017643985807 .533371354996034 -.002492639820482575 -
.00767017643985807 .533396470290918 -.00275994295799886 -.00767017643985807 .533
470648803996 -.00314507964543527 -.00767017643985807 .533639657942053 -.00364350
10533109 -.00767017643985807 .533858936258088 -.004104054140193085 -.00767017643
985807 .534173937512849 -.00460360142237752 -.00767017643985807 .534614815792505
 -.00514999896721344 -.00767017643985807 .535242891195972 -.00576701465523823 -.
00767017643985807 .536167256374477 -.00648662299095055 -.00767017643985807 .5375
59533262731 -.00733566329540269 -.00767017643985807 .539669521478606 -.008321192
0784795 -.00767017643985807 .542927379567066 -.0094476890294065 -.00767017643985
807 .547799396722068 -.01061673754721244 -.00767017643985807 .555028651825815 -.
01169647129906622 -.00767017643985807 .564326460162693 -.01233221549230114 -.007
67017643985807 .573682164712725 -.0123825341642609 -.00767017643985807 .58249809
3370552 -.01207342838806504 -.00767017643985807 .591302083010313 -.0115385273539
8384 -.00767017643985807 .600092613253179 -.01080905885411502 -.0076701764398580
7 .608864528683376 -.00988458489601513 -.00767017643985807 .617618820829692 -.00
880777413610356 -.00767017643985807 .624902381660919 -.00782354991989025 -.00767
017643985807 .630723068742051 -.0069884804544303 -.00767017643985807 .6365363432
01684 -.00610965790987744 -.00767017643985807 .642344853769853 -.005189117574075
18 -.00767017643985807 .648144069002283 -.00422961383523263 -.00767017643985807
 .653217356288229 -.00335517972416298 -.00767017643985807 .657554135528444 -.002
583231068225425 -.00767017643985807 .661177130536331 -.001921101791736405 -.0076
7017643985807 .664052355552609 -.001386199546799896 -.00767017643985807 .6669688
77615478 -.000831870068166857 -.00767017643985807 .669806849138311 -.00028402391
493105 -.00767017643985807 .672772331801083 .000302518952925661 -.00767017643985
807 .675520214105057 .000852828013726123 -.00767017643985807 .678622478759633 .0
0149193314913031 -.00767017643985807 .681131109036997 .00201355695530304 -.00767
017643985807 .683746416765428 .002574004807831895 -.00767017643985807 .685019377
796297 .00284932361978403 -.00767017643985807 .685672778646692 .0029917593546220
35 -.00767017643985807 127 37 328 5 1 1 1 1 1 1 1 1 1 1 1 1 1 1 1 1 1 1 1 1 1 1
 1 1 1 1 1 1 1 1 1 1 1 1 1 5 128 37 329 0 .003840943686680295 .00623502344547994
 .0090722911807389 .0121932195027496 .01565683913066555 .01991717655238185 .0253
3896174756595 .0325925040205036 .0427993875578547 .0577045702050979 .07931066758
32982 .1125031012798636 .158972616272416 .227236465354744 .29550032638524 .32963
22580351885 .3637641896851365 .4320280528998595 .500291915136868 .53442384739632
2 .568555779655776 .602687711149444 .636819642643113 .670951575392144 .705083508
141176 .739215439489715 .756281405163985 .773347370838255 .790413336629906 .8074
79302421558 .824545268213209 .841611234004861 .858677200446657 .875743166888454
 .89280913333025 .909875099772046 16 92 4357 0 ?97 86 38 320 0 0 1 30 100 4437 0
 38 320 105 0 +.684502972335924 .00273801331512856 -.00767017643985807 0 0 1 30
 105 4436 0 33 100 93 0 +.533365616608502 -.00232692394263926 -.0076701764398580
7 0 0 1 16 33 4354 0 ?27 38 0 105 0 0 1 17 97 0 306 34 81 76 95 92 0 89 +15 306
 4409 0 32 293 0 17 34 0 306 32 97 11 89 101 0 85 -17 81 0 306 97 32 79 25 10 0
 95 -17 95 0 94 39 78 79 97 92 0 98 -17 98 0 268 25 99 79 39 26 0 0 +15 268 4308
 0 98 139 0 17 25 0 268 99 98 82 81 10 0 0 +17 99 0 268 98 25 28 31 330 0 0 -16
 26 4315 0 ?98 10 330 20 0 0 1 16 330 4311 0 ?31 26 331 216 0 0 1 31 20 4317 0 2
6 216 7 0 -.684457347696255 .00294931557078531 -.00762 -1198130287592484e-31 0 -
1 -1 0 1198130287592484e-31 .000216171808963452 134 216 4313 0 330 213 20 0 -332
 333 136 332 4 40 3 37 6 FFF1 334 335 336 135 333 2 0 45 120 334 .53336561660850
2 -.00232692394263926 -.00762000000000041 .533371354996034 -.002492639820482575
 -.00762000000000041 .533396470290918 -.00275994295799886 -.00762000000000041 .5
33470648803996 -.00314507964543527 -.00762000000000041 .533639657942053 -.003643
5010533109 -.00762000000000041 .533858936258088 -.004104054140193085 -.007620000
00000041 .534173937512849 -.00460360142237752 -.00762000000000041 .5346148157925
05 -.00514999896721344 -.00762000000000041 .535242891195972 -.00576701465523823
 -.00762000000000041 .536167256374477 -.00648662299095055 -.00762000000000041 .5
37559533262731 -.00733566329540269 -.00762000000000041 .539669521478606 -.008321
1920784795 -.00762000000000041 .542927379567066 -.0094476890294065 -.00762000000
000041 .547799396722068 -.01061673754721244 -.00762000000000041 .555028651825815
 -.01169647129906622 -.00762000000000041 .564326460162693 -.01233221549230114 -.
00762000000000041 .573682164712725 -.0123825341642609 -.00762000000000041 .58249
8093370552 -.01207342838806504 -.00762000000000041 .591302083010313 -.0115385273
5398384 -.00762000000000041 .600092613253179 -.01080905885411502 -.0076200000000
0041 .608864528683376 -.00988458489601513 -.00762000000000041 .617618820829692 -
.00880777413610356 -.00762000000000041 .624902381660919 -.00782354991989025 -.00
762000000000041 .630723068742051 -.0069884804544303 -.00762000000000041 .6365363
43201684 -.00610965790987744 -.00762000000000041 .642344853769853 -.005189117574
07518 -.00762000000000041 .648144069002283 -.00422961383523263 -.007620000000000
41 .653217356288229 -.00335517972416298 -.00762000000000041 .657554135528444 -.0
02583231068225425 -.00762000000000041 .661177130536331 -.001921101791736405 -.00
762000000000041 .664052355552609 -.001386199546799896 -.00762000000000041 .66696
8877615478 -.000831870068166857 -.00762000000000041 .669806849138311 -.000284023
91493105 -.00762000000000041 .672772331801083 .000302518952925661 -.007620000000
00041 .675520214105057 .000852828013726123 -.00762000000000041 .678622478759633
 .00149193314913031 -.00762000000000041 .681131109036997 .00201355695530304 -.00
762000000000041 .683746416765428 .002574004807831895 -.00762000000000041 .685019
377796297 .00284932361978403 -.00762000000000041 .685672778646692 .0029917593546
22035 -.00762000000000041 127 37 335 5 1 1 1 1 1 1 1 1 1 1 1 1 1 1 1 1 1 1 1 1 1
 1 1 1 1 1 1 1 1 1 1 1 1 1 1 5 128 37 336 0 .003840943686680295 .006235023445479
94 .0090722911807389 .0121932195027496 .01565683913066555 .01991717655238185 .02
533896174756595 .0325925040205036 .0427993875578547 .0577045702050979 .079310667
5832982 .1125031012798636 .158972616272416 .227236465354744 .29550032638524 .329
6322580351885 .3637641896851365 .4320280528998595 .500291915136868 .534423847396
322 .568555779655776 .602687711149444 .636819642643113 .670951575392144 .7050835
08141176 .739215439489715 .756281405163985 .773347370838255 .790413336629906 .80
7479302421558 .824545268213209 .841611234004861 .858677200446657 .87574316688845
4 .89280913333025 .909875099772046 17 31 0 29 27 35 82 99 330 0 32 +16 331 3751
 0 ?337 330 338 339 0 0 1 17 337 0 294 223 260 41 54 331 0 244 +16 338 3744 0 ?2
63 331 224 225 0 0 1 30 339 3753 0 331 225 206 0 +-2.686049999917135 -5174923850
15886e-30 -.00761999999999966 192659252445729e-30 -1 -2308308855401545e-47 30 22
5 3746 0 338 222 339 0 +-2.686049999917135 -517492385015886e-30 .007620000000000
4 -192659252445729e-30 1 24792946965424e-45 133 206 3760 0 242 339 199 0 +182 14
19109341565628e-30 .381000035287974 .00762 1464122333387654e-30 .381000035287975
 -.00762 .51494023697642 .485059763023492 17 263 0 294 260 223 36 75 338 0 259 +
16 224 3737 0 ?260 338 221 222 0 0 1 17 260 0 294 337 263 52 259 224 0 0 +15 294
 299 0 260 18 0 17 223 0 294 263 337 73 244 221 0 0 +17 75 0 140 63 40 73 263 33
8 0 201 -17 63 0 140 72 75 61 201 154 0 211 -17 244 0 163 202 201 41 223 221 0 0
 -15 163 1965 0 244 157 0 17 54 0 241 51 45 52 337 331 0 256 -17 45 0 241 54 48
 41 202 240 0 337 -17 32 0 306 81 34 82 27 33 0 25 -141 324 141 324 324 319 136
 325 4 40 3 37 6 FFF1 340 341 342 135 326 2 0 45 120 340 .533365616608502 -.0023
2692394263926 -.00767017643985807 .533359781262329 -.002161211450666295 -.007670
17643985807 .533366189253322 -.001892807495750265 -.00767017643985807 .533413321
294046 -.001503434550427615 -.00767017643985807 .533547150614485 -.0009944377905
49596 -.00767017643985807 .533733768220251 -.000519710505744564 -.00767017643985
807 .534013155490913 593281124676177e-21 -.00767017643985807 .534414845047248 .0
00576413943142431 -.00767017643985807 .534998349651958 .001235738937353566 -.007
67017643985807 .53587026578337 .00201807479863181 -.00767017643985807 .537199925
097395 .002962167209775025 -.00767017643985807 .539236026475342 .004092480631849
81 -.00767017643985807 .542407368130259 .00544349018503169 -.00767017643985807 .
5471859685941 .00694954569615823 -.00767017643985807 .554322295176643 .008530936
61469382 -.00767017643985807 .563553107246595 .00981371449015578 -.0076701764398
5807 .57288251171744 .01051653154716172 -.00767017643985807 .581698527345105 .01
082314683305086 -.00767017643985807 .59051838371853 .0109036840631542 -.00767017
643985807 .599338385821793 .01078918890397158 -.00767017643985807 .6081534213502
63 .01047886480636192 -.00767017643985807 .616961503002401 .0100153456535941 -.0
0767017643985807 .62429597745621 .00954159447799178 -.00767017643985807 .6301607
37137401 .00911458980532699 -.00767017643985807 .636021154314379 .00864342155553
399 -.00767017643985807 .641879729290503 .00813030482466448 -.00767017643985807
 .647731749523461 .00757767119380283 -.00767017643985807 .65285367597667 .007059
26179163729 -.00767017643985807 .657233739456772 .00659171199103175 -.0076701764
3985807 .660894096834402 .00618392298432455 -.00767017643985807 .663799630841453
 .00585088929272905 -.00767017643985807 .666747716472882 .0055013564275481 -.007
67017643985807 .669616990655526 .00515281168602604 -.00767017643985807 .67261616
4713737 .00477455922062021 -.00767017643985807 .675395740934077 .004417273264822
49 -.00767017643985807 .678535030348472 .003996128000331105 -.00767017643985807
 .681073936365903 .003650768045610155 -.00767017643985807 .683721968202062 .0032
74120060773135 -.00767017643985807 .685011033633316 .00308826918433656 -.0076701
7643985807 .685672778646677 .00299175935505482 -.00767017643985807 127 37 341 5
 1 1 1 1 1 1 1 1 1 1 1 1 1 1 1 1 1 1 1 1 1 1 1 1 1 1 1 1 1 1 1 1 1 1 1 5 128 37
 342 0 .003840943686680295 .00623502344547994 .0090722911807389 .012193219502749
6 .01565683913066555 .01991717655238185 .02533896174756595 .0325925040205036 .04
27993875578547 .0577045702050979 .0793106675832982 .1125031012798636 .1589726162
72416 .227236465354744 .29550032638524 .3296322580351885 .3637641896851365 .4320
280528998595 .500291915136868 .534423847396322 .568555779655776 .602687711149444
 .636819642643113 .670951575392144 .705083508141176 .739215439489715 .7562814051
63985 .773347370838255 .790413336629906 .807479302421558 .824545268213209 .84161
1234004861 .858677200446657 .875743166888454 .89280913333025 .909875099772046 83
 3 313 .192156862745098 .780392156862745 1 83 3 308 .192156862745098 .7803921568
62745 1 81 2 301 3782 343 130 344 296 344 345 0 0 81 1 302 4552 287 157 346 162
 347 296 348 83 3 303 .192156862745098 .780392156862745 1 81 2 346 3808 343 157
 345 302 345 349 0 0 81 1 162 4584 273 157 302 0 138 272 350 81 1 347 4551 287 1
43 351 275 274 302 352 83 3 348 .192156862745098 .780392156862745 1 81 2 351 384
0 343 143 349 347 349 353 0 0 81 1 275 4586 273 143 347 0 272 277 354 81 1 274 4
550 287 271 355 272 279 347 356 83 3 352 .192156862745098 .780392156862745 1 81
 2 355 3858 343 271 353 274 353 357 0 0 81 1 279 4549 287 164 358 277 282 274 35
9 83 3 356 .192156862745098 .780392156862745 1 81 2 358 3874 343 164 357 279 357
 0 0 0 83 3 359 .192156862745098 .780392156862745 1 80 2 343 360 361 9000 0 0 0
 0 3 6 0 0 0 FFFFTFFFFFFFFF9 1 81 2 357 3872 343 164 0 358 355 358 0 0 79 17 361
 ATOM_FACE_ID_200181 2 353 3856 343 271 0 355 351 355 0 0 82 1 354 -2018311353 8
1 2 349 3839 343 143 0 351 346 351 0 0 81 1 138 4583 273 16 288 0 0 162 362 82 1
 350 -2021260473 81 1 288 4547 287 16 0 138 0 282 363 82 1 362 -1552350362 83 3
 363 .192156862745098 .780392156862745 1 81 2 345 3806 343 157 0 346 301 346 0 0
 81 2 344 3780 343 130 0 301 295 301 0 0 81 2 295 3756 343 18 0 290 0 344 0 0 83
 3 298 .192156862745098 .780392156862745 1 83 3 289 .192156862745098 .7803921568
62745 1 79 14 286 SWEntUnchanged82 1 281 -2014575801 82 1 276 -2016935097 16 215
 3819 0 ?266 221 212 213 0 0 1 16 204 3785 0 1e-5 198 212 239 0 0 0 1 141 190 20
0 190 190 183 134 191 0 0 0 0 0 0 +364 365 136 364 1 2 2 2 5 FFF1 366 367 368 13
5 365 1 0 45 4 366 -.635 -.01905 -.127000000000004 -.01905 127 2 367 2 2 128 2 3
68 0 1 141 187 206 187 187 182 134 188 0 0 0 0 0 0 +369 370 136 369 1 2 2 2 5 FF
F1 371 372 373 135 370 1 0 45 4 371 1 .610347723205177 1 .389652276794812 127 2
 372 2 2 128 2 373 0 1 141 176 174 176 176 166 40 4 177 0 1 4 .203228591202674 .
3905509333859585 ??-2.686049999917135 -1.142999999999982 -.00761999999999966 -1.
725053504069945 -.939771408797286 -.00761999999999974 -.895077365160251 -.578291
201966206 -.00761999999999987 467027819216261e-29 -.381000035287925 -.00762 41 1
 178 L?-2.686049999917135 -1.142999999999982 -.00761999999999966 41 1 179 L?4670
27819216261e-29 -.381000035287925 -.00762 204 16 180 4 734556725087038e-31 .4967
02757731034 6.25474999991713 1174231247924594e-20 .3546334161779885 .49670275773
1028 5.29375350406995 .2032403335151755 .671236881193248 .49670275773102 4.46377
736516025 .564720540346255 .999999999993697 .496702757731015 3.5687 .76201170702
4536 141 165 207 165 165 158 30 129 4089 0 1 122 147 374 +.01905000000000055 .38
0999964712031 .00762 -1 -2633490703527265e-31 1286880679266002e-31 141 374 122 3
74 374 129 141 142 249 375 375 135 141 375 166 142 142 135 141 132 249 376 377 1
9 126 133 FF3 1 18 2 6 5 16 2 TFF11 4 378 379 380 381 382 125 134 0 1 0 1 0 1 0
 1 2 BBBBBBBB????0 0 0 0 45 144 378 -2.686049999917135 1.142999999999958 1.15551
108750006 1 -2.68604999991713 1.143000000000124 -1.155511087499942 1 -2.64788471
6593055 1.142999999999958 1.155511087500064 1 -2.64788471659305 1.14300000000012
4 -1.155511087499942 1 -1.884579050111465 1.142999999999956 1.155511087500066 1
 -1.88457905011146 1.143000000000124 -1.15551108749994 1 -1.193113623530012 .636
809786485153 1.155511087500032 1 -1.193113623530008 .63680978648532 -1.155511087
499976 1 -.471401854442453 .428595305109872 1.155511087500014 1 -.47140185444244
9 .428595305110039 -1.15551108749999 1 -.4295744810451425 .4180784235746685 1.15
5511087500012 1 -.4295744810451375 .4180784235748355 -1.15551108749999 1 -.38505
8947510224 .408561013530794 1.155511087500016 1 -.385058947510219 .4085610135309
61 -1.15551108749999 1 -.342697428204332 .401058695349218 1.155511087500014 1 -.
3426974282043275 .401058695349385 -1.15551108749999 1 -.296889397319744 .3943278
89125922 1.155511087500016 1 -.2968893973197395 .394327889126089 -1.155511087499
992 1 -.2483969612800645 .388919886607588 1.155511087500012 1 -.24839696128006 .
388919886607755 -1.155511087499992 1 -.197507740186171 .3851021620530695 1.15551
108750001 1 -.1975077401861665 .3851021620532365 -1.155511087499992 1 -.15138955
7426735 .3828626948022145 1.155511087500014 1 -.1513895574267285 .38286269480238
15 -1.155511087499992 1 -.1094818719950402 .3816761876428675 1.155511087500012 1
 -.1094818719950376 .3816761876430345 -1.155511087499992 1 -.067363765935543 .38
10887454630575 1.155511087500016 1 -.0673637659355362 .3810887454632245 -1.15551
1087499992 1 -.03223523029080595 .3809319934517025 1.155511087500014 1 -.0322352
3029080425 .3809319934518695 -1.15551108749999 1 -.00893271199347187 .3810000352
878915 1.155511087500012 1 -.00893271199347015 .3810000352880585 -1.155511087499
992 1 -.0004253672377867175 .381000035287891 1.155511087500012 1 -.0004253672377
801135 .381000035288058 -1.155511087499992 1 -197131140214919e-29 .3810000352878
91 1.155511087500012 1 485454307710241e-29 .381000035288058 -1.155511087499992 1
 127 16 379 4 1 1 1 1 1 1 1 1 1 1 1 1 1 1 4 127 2 380 2 2 128 16 381 0 .04083940
04024897 .816788008049794 .829251324804548 .845124235721322 .862943953647523 .87
7973259570031 .891170814631966 .912504074533653 .930190875937079 .94579442349555
5 .961928806574653 .975070492535707 .99088407821151 .999544203910576 1 128 2 382
 0 1 141 376 119 377 132 19 141 377 182 132 376 19 136 106 4 40 3 37 6 FFF1 383
 384 385 135 107 2 0 45 120 383 .533365616608502 -.00232692394263926 .0076199999
999996 .533371354996034 -.002492639820482575 .0076199999999996 .533396470290918
 -.00275994295799886 .0076199999999996 .533470648803996 -.00314507964543527 .007
6199999999996 .533639657942053 -.0036435010533109 .0076199999999996 .53385893625
8088 -.004104054140193085 .0076199999999996 .534173937512849 -.00460360142237752
 .0076199999999996 .534614815792505 -.00514999896721344 .0076199999999996 .53524
2891195972 -.00576701465523823 .0076199999999996 .536167256374477 -.006486622990
95055 .0076199999999996 .537559533262731 -.00733566329540269 .0076199999999996 .
539669521478606 -.0083211920784795 .0076199999999996 .542927379567066 -.00944768
90294065 .0076199999999996 .547799396722068 -.01061673754721244 .007619999999999
6 .555028651825815 -.01169647129906622 .0076199999999996 .564326460162693 -.0123
3221549230114 .0076199999999996 .573682164712725 -.0123825341642609 .00761999999
99996 .582498093370552 -.01207342838806504 .0076199999999996 .591302083010313 -.
01153852735398384 .0076199999999996 .600092613253179 -.01080905885411502 .007619
9999999996 .608864528683376 -.00988458489601513 .0076199999999996 .6176188208296
92 -.00880777413610356 .0076199999999996 .624902381660919 -.00782354991989025 .0
076199999999996 .630723068742051 -.0069884804544303 .0076199999999996 .636536343
201684 -.00610965790987744 .0076199999999996 .642344853769853 -.0051891175740751
8 .0076199999999996 .648144069002283 -.00422961383523263 .0076199999999996 .6532
17356288229 -.00335517972416298 .0076199999999996 .657554135528444 -.00258323106
8225425 .0076199999999996 .661177130536331 -.001921101791736405 .007619999999999
6 .664052355552609 -.001386199546799896 .0076199999999996 .666968877615478 -.000
831870068166857 .0076199999999996 .669806849138311 -.00028402391493105 .00761999
99999996 .672772331801083 .000302518952925661 .0076199999999996 .675520214105057
 .000852828013726123 .0076199999999996 .678622478759633 .00149193314913031 .0076
199999999996 .681131109036997 .00201355695530304 .0076199999999996 .683746416765
428 .002574004807831895 .0076199999999996 .685019377796297 .00284932361978403 .0
076199999999996 .685672778646692 .002991759354622035 .0076199999999996 127 37 38
4 5 1 1 1 1 1 1 1 1 1 1 1 1 1 1 1 1 1 1 1 1 1 1 1 1 1 1 1 1 1 1 1 1 1 1 1 5 128
 37 385 0 .003840943686680295 .00623502344547994 .0090722911807389 .012193219502
7496 .01565683913066555 .01991717655238185 .02533896174756595 .0325925040205036
 .0427993875578547 .0577045702050979 .0793106675832982 .1125031012798636 .158972
616272416 .227236465354744 .29550032638524 .3296322580351885 .3637641896851365 .
4320280528998595 .500291915136868 .534423847396322 .568555779655776 .60268771114
9444 .636819642643113 .670951575392144 .705083508141176 .739215439489715 .756281
405163985 .773347370838255 .790413336629906 .807479302421558 .824545268213209 .8
41611234004861 .858677200446657 .875743166888454 .89280913333025 .90987509977204
6 19 17 95 0 1 0 9 5 S0 136 21 4 40 3 37 6 FFF1 386 387 388 135 22 2 0 45 120 38
6 .533365616608502 -.00232692394263926 -.00762000000000041 .533359781262329 -.00
2161211450666295 -.00762000000000041 .533366189253322 -.001892807495750265 -.007
62000000000041 .533413321294046 -.001503434550427615 -.00762000000000041 .533547
150614485 -.000994437790549596 -.00762000000000041 .533733768220251 -.0005197105
05744564 -.00762000000000041 .534013155490913 593281124676177e-21 -.007620000000
00041 .534414845047248 .000576413943142431 -.00762000000000041 .534998349651958
 .001235738937353566 -.00762000000000041 .53587026578337 .00201807479863181 -.00
762000000000041 .537199925097395 .002962167209775025 -.00762000000000041 .539236
026475342 .00409248063184981 -.00762000000000041 .542407368130259 .0054434901850
3169 -.00762000000000041 .5471859685941 .00694954569615823 -.00762000000000041 .
554322295176643 .00853093661469382 -.00762000000000041 .563553107246595 .0098137
1449015578 -.00762000000000041 .57288251171744 .01051653154716172 -.007620000000
00041 .581698527345105 .01082314683305086 -.00762000000000041 .59051838371853 .0
109036840631542 -.00762000000000041 .599338385821793 .01078918890397158 -.007620
00000000041 .608153421350263 .01047886480636192 -.00762000000000041 .61696150300
2401 .0100153456535941 -.00762000000000041 .62429597745621 .00954159447799178 -.
00762000000000041 .630160737137401 .00911458980532699 -.00762000000000041 .63602
1154314379 .00864342155553399 -.00762000000000041 .641879729290503 .008130304824
66448 -.00762000000000041 .647731749523461 .00757767119380283 -.0076200000000004
1 .65285367597667 .00705926179163729 -.00762000000000041 .657233739456772 .00659
171199103175 -.00762000000000041 .660894096834402 .00618392298432455 -.007620000
00000041 .663799630841453 .00585088929272905 -.00762000000000041 .66674771647288
2 .0055013564275481 -.00762000000000041 .669616990655526 .00515281168602604 -.00
762000000000041 .672616164713737 .00477455922062021 -.00762000000000041 .6753957
40934077 .00441727326482249 -.00762000000000041 .678535030348472 .00399612800033
1105 -.00762000000000041 .681073936365903 .003650768045610155 -.0076200000000004
1 .683721968202062 .003274120060773135 -.00762000000000041 .685011033633316 .003
08826918433656 -.00762000000000041 .685672778646677 .00299175935505482 -.0076200
0000000041 127 37 387 5 1 1 1 1 1 1 1 1 1 1 1 1 1 1 1 1 1 1 1 1 1 1 1 1 1 1 1 1
 1 1 1 1 1 1 1 5 128 37 388 0 .003840943686680295 .00623502344547994 .0090722911
807389 .0121932195027496 .01565683913066555 .01991717655238185 .0253389617475659
5 .0325925040205036 .0427993875578547 .0577045702050979 .0793106675832982 .11250
31012798636 .158972616272416 .227236465354744 .29550032638524 .3296322580351885
 .3637641896851365 .4320280528998595 .500291915136868 .534423847396322 .56855577
9655776 .602687711149444 .636819642643113 .670951575392144 .705083508141176 .739
215439489715 .756281405163985 .773347370838255 .790413336629906 .807479302421558
 .824545268213209 .841611234004861 .858677200446657 .875743166888454 .8928091333
3025 .909875099772046 74 4 CI16 index_map_offset0 0 1 dCCZ20 15 10 0 0 389 390 3
58 391 392 309 393 13 312 2 0 0 0 0 0 0 0 0 0 0 81 2 389 231 394 1 0 390 0 0 0 3
95 81 2 390 234 396 1 389 391 0 0 0 397 81 2 391 3287 398 1 390 392 0 0 0 399 81
 2 392 3573 400 1 391 393 0 0 401 0 81 1 393 4513 402 1 392 13 0 0 403 81 2 13 4
544 404 1 393 2 0 0 0 0 80 2 404 405 406 9000 0 0 0 0 3 5 0 0 0 FFTFFFFFFFFFFF9
 1 79 16 406 BODY_RECIPE_200180 1 402 407 408 9000 1 1 1 1 1 1 1 1 0 FFTFFFFFFFF
FFF1 82 1 403 5901 79 10 408 BODY_MATCH80 2 400 409 410 8004 0 0 0 0 3 5 0 0 0 F
FTFFFFFFFFFFF2 3 83 1 401 1 79 16 410 SDL/TYSA_DENSITY80 2 398 411 412 9000 0 0
 0 0 3 5 0 0 0 FFTFFFFFFFFFFF9 1 82 1 399 1 79 24 412 BODY_IN_LIGHTWEIGHT_PERM80
 2 396 413 414 9000 0 0 0 0 3 5 0 0 0 FFTFFFFFFFFFFF9 1 82 1 397 375 79 30 414 L
AST_BODY_MODIFYING_FEATURE_ID80 2 394 415 416 9000 0 0 0 0 3 5 0 0 0 FFTFFFFFFFF
FFT9 1 82 1 395 1769 79 19 416 ENT_TIME_STAMP_200180 2 12 417 418 9000 0 0 0 0 3
 5 0 0 0 FFTFFFFFFFFFFF9 1 82 1 14 208 79 12 418 ATOM_ID_20011 0 
