**ABCDEFGHIJKLMNOPQRSTUVWXYZabcdefghijklmnopqrstuvwxyz**************************
**PARASOLID !"#$%&'()*+,-./:;<=>?@[\]^_`{|}~0123456789**************************
**PART1;
MC=unknown;
MC_MODEL=unknown;
MC_ID=unknown;
OS=unknown;
OS_RELEASE=unknown;
FRU=sdl_parasolid_customer_support;
APPL=parasolid_acceptance_tests;
SITE=unknown;
USER=unknown;
FORMAT=text;
GUISE=transmit;
KEY=/projects/tools/Models/GustAFOSR/Sliced_Geometry/CTS_12_0_2Dpt01SymZ_nat.x_t;
FILE=/projects/tools/Models/GustAFOSR/Sliced_Geometry/CTS_12_0_2Dpt01SymZ_nat.x_t;
DATE=unknown;
**PART2;
SCH=SCH_3300252_32001;
USFLD_SIZE=1;
**PART3;
**END_OF_HEADER*****************************************************************
T51 : TRANSMIT FILE created by modeller version 330025223 SCH_3300252_32001_1300
6229 1 12 34 CCCCCCI4 mesh1006 0 I8 polyline1008 0 CCCCCCCDI5 owner1040 0 CCCCCC
I13 boundary_mesh1006 0 I17 boundary_polyline1008 0 CCCA16 index_map_offset0 0 1
 dA9 index_map82 0 A17 node_id_index_map82 0 A20 schema_embedding_map82 0 A5 chi
ld12 0 A14 lowest_node_id0 0 1 dA16 mesh_offset_data206 0 Z1 6457 2 3 0 0 0 0 0
 0 1e3 1e-8 0 4 0 1 0 1 1 5 6 7 8 0 0 9 10 11 0 0 0 0 0 0 0 0 81 255 2 2 6446 12
 1 13 0 0 0 0 14 0 70 11 CI9 list_type0 0 1 uI10 notransmit0 0 1 lCCCDCCDI12 fin
ger_index0 0 1 dI12 finger_block1012 0 CZ3 0 4 T1 0 0 9 20 1 15 15 0 13 255 5 31
11 0 1 0 16 0 0 17 0 0 50 255 6 65 0 18 19 0 0 +-2.686049999917135 -517492385015
886e-30 -517492385015951e-30 -1 -192659252445729e-30 -1926592524457535e-31 -1926
592524457535e-31 0 1 0 133 255 7 6094 0 20 21 0 0 +22 3.5687 .380999964712033 -.
01 3.5687 .3809999647120325 .01 -.391000035287987 -.371000035287987 0 29 255 8 6
060 0 11 23 0 -2.686049999917135 -1.14299999999998 -.01 0 19 8 CCCCCCCA5 owner12
 0 Z9 3113 0 1 17 0 24 V0 0 16 255 10 6038 0 ?25 0 26 27 0 0 1 0 18 255 11 6057
 0 28 0 29 8 ?1 0 17 255 28 0 30 31 32 11 33 34 0 35 -0 18 29 6035 0 36 11 37 23
 ?1 0 17 36 0 38 25 39 29 40 41 0 42 +0 18 37 5733 0 43 29 44 45 ?1 0 29 23 6037
 0 29 45 8 .682655258391459 .01778643663655615 -.01 0 29 45 5736 0 37 46 23 -2.6
86049999917135 1.14300000000004 .01 0 29 46 5706 0 44 47 45 .534782008720635 -.0
1386251198536288 .01 0 18 44 5703 0 48 37 49 46 ?1 0 29 47 5906 0 49 50 46 3.568
7 .3809999647120325 .01 0 18 49 5828 0 51 44 52 47 ?1 0 29 50 5907 0 52 53 47 3.
5687 -.381000035287968 .01 0 18 52 5831 0 54 49 55 50 ?1 0 29 53 5908 0 55 56 50
 465717327276369e-29 -.381000035287926 .01 0 18 55 5832 0 57 52 58 53 1000000002
151888e-20 1 0 29 56 5909 0 58 59 53 957574780818597e-30 .381 .01 0 18 58 5829 0
 60 55 61 56 100352879712673e-19 1 0 29 59 5911 0 61 62 56 -2.686049999917135 -1
.14299999999998 .01 0 18 61 5833 0 63 58 64 59 ?1 0 29 62 5912 0 64 65 59 .68274
3731383629 .0173702039337182 .01 0 18 64 5842 0 66 61 67 62 ?1 0 29 65 5913 0 67
 68 62 .682655258391459 .01778643663655625 .01 0 18 67 5834 0 69 64 70 65 ?1 0 2
9 68 6234 0 70 71 65 3.5687 .380999964712033 -.01 0 18 70 6158 0 72 67 73 68 ?1
 0 29 71 6235 0 73 74 68 3.5687 -.381000035287967 -.01 0 18 73 6155 0 75 70 76 7
1 ?1 0 29 74 6236 0 76 77 71 467204832315975e-29 -.381000035287925 -.01 0 18 76
 6156 0 32 73 78 74 1000000002157462e-20 1 0 29 77 6237 0 78 79 74 9836414181228
17e-30 .381 -.00999999999999989 0 18 78 6159 0 80 76 81 77 100352879715826e-19 1
 0 29 79 6239 0 81 82 77 -2.686049999917135 1.143000000000042 -.01 0 18 81 6160
 0 31 78 83 79 ?1 0 29 82 6240 0 83 84 79 .682743731383629 .0173702039337182 -.0
1 0 18 83 6161 0 39 81 85 82 ?1 0 29 84 6241 0 85 0 82 .534782008720635 -.013862
51198536288 -.01 0 18 85 6162 0 25 83 0 84 ?1 0 17 25 0 38 39 36 85 42 10 0 86 +
0 15 255 38 6179 0 36 87 0 0 17 39 0 38 36 25 83 86 88 0 40 -0 17 42 0 89 90 91
 29 25 10 0 92 -0 17 86 0 93 94 95 85 39 88 0 91 +0 15 93 4963 0 95 96 0 0 17 94
 0 93 97 86 44 91 98 0 0 -0 17 95 0 93 86 97 83 99 100 0 0 +0 16 88 6136 0 ?86 4
1 0 101 0 0 1 0 17 91 0 89 42 102 85 94 98 0 0 +0 15 89 6039 0 42 103 0 0 17 102
 0 89 91 90 44 69 26 0 94 -0 16 98 5704 0 ?91 104 100 105 0 0 1 0 16 104 5708 0
 ?92 106 98 107 0 0 1 0 16 100 5717 0 ?95 98 108 109 0 0 1 0 133 105 5705 0 98 2
2 110 0 +111 .534782008720635 -.01386251198536288 .01 .534782008720635 -.0138625
1198536288 -.01 .260799036445161 .280799036445161 0 30 255 22 3518 0 1 112 105 1
13 +3.5687 .3809999647120155 .381000035287987 0 -45e-15 1 0 134 255 110 5712 0 2
6 105 114 0 +115 116 0 30 111 5002 0 1 117 109 118 +.534782008720635 -.013862511
98536288 .270799036445161 0 0 -1 0 30 117 5882 0 108 119 111 0 +3.5687 392998391
851085e-28 .01 2633490703527295e-31 -1 0 0 30 109 5001 0 100 111 107 0 +.6827437
31383629 .017370203933718 .270799036445161 0 0 -1 0 141 255 118 105 118 118 111
 0 30 107 5000 0 104 109 120 0 +.682655258391459 .01778643663655615 .27079903644
5161 0 0 -1 0 134 120 4999 0 1 107 121 122 +123 124 0 134 121 4998 0 1 120 125 1
26 +127 128 0 141 122 129 122 122 120 0 136 255 123 4 40 3 37 6 FFF1 130 131 132
 0 135 255 124 2 0 0 45 255 120 130 .534782008720635 -.01386251198536288 .270799
036445161 .534747486354235 -.01370033033572592 .270799036445161 .534707189135797
 -.01343489130402686 .270799036445161 .534685991232529 -.01304324941567852 .2707
99036445161 .534729401025088 -.01251874624267992 .270799036445161 .5348307479622
 -.01201882532487582 .270799036445161 .535015540908018 -.0114579110312318 .27079
9036445161 .535311137688779 -.0108210857194869 .270799036445161 .535771286963681
 -.0100704528421654 .270799036445161 .536494105533239 -.00914859577322177 .27079
9036445161 .537639624407813 -.00798795333037067 .270799036445161 .5394485159648
 -.00652124661515381 .270799036445161 .542337077467093 -.00464006423365414 .2707
99036445161 .546781556457461 -.002327093827490035 .270799036445161 .553534860552
797 .00046948231591494 .270799036445161 .562402683805462 .003335685607386745 .27
0799036445161 .571468310758157 .00564785937914634 .270799036445161 .580097148113
32 .00748070153790063 .270799036445161 .588769025907083 .00909156721303327 .2707
99036445161 .597474914235706 .0105103887848295 .270799036445161 .606209916781258
 .01173549406313624 .270799036445161 .614964673137641 .0128085241354475 .2707990
36445161 .622269986472334 .01361558842775708 .270799036445161 .628119795859189 .
01421347574663186 .270799036445161 .633972997638915 .01476711636440696 .27079903
6445161 .639831669482251 .0152791258979696 .270799036445161 .645690748201369 .01
57510806628391 .270799036445161 .65082488193082 .01612996025909075 .270799036445
161 .655219591575554 .0164301036319159 .270799036445161 .658895151717726 .016664
124244749 .270799036445161 .661814374828158 .0168406907687223 .270799036445161 .
664778368159607 .01700839779066025 .270799036445161 .667664575779393 .0171633924
5997775 .270799036445161 .670683868495869 .0173116876091615 .270799036445161 .67
3483258762879 .0174424979751951 .270799036445161 .676647986424836 .0175728827395
5515 .270799036445161 .679208291881952 .0176736459817661 .270799036445161 .68188
1498400979 .01776254602890345 .270799036445161 .683183252697883 .017803362507914
6 .270799036445161 .683851703073771 .01782322969545155 .270799036445161 0 127 25
5 37 131 5 1 1 1 1 1 1 1 1 1 1 1 1 1 1 1 1 1 1 1 1 1 1 1 1 1 1 1 1 1 1 1 1 1 1 1
 5 0 128 255 37 132 0 .003840943686680295 .00623502344547994 .0090722911807389 .
0121932195027496 .01565683913066555 .01991717655238185 .02533896174756595 .03259
25040205036 .0427993875578547 .0577045702050979 .0793106675832982 .1125031012798
636 .158972616272416 .227236465354744 .29550032638524 .3296322580351885 .3637641
896851365 .4320280528998595 .500291915136868 .534423847396322 .568555779655776 .
602687711149444 .636819642643113 .670951575392144 .705083508141176 .739215439489
715 .756281405163985 .773347370838255 .790413336629906 .807479302421558 .8245452
68213209 .841611234004861 .858677200446657 .875743166888454 .89280913333025 .909
875099772046 0 67 255 129 4986 0 103 133 134 0 +120 0 0 -1 .003723226683278065 0
 14 255 103 6041 135 ?136 96 89 5 129 -0 0 136 96 24 0 50 133 5880 0 136 137 129
 138 +0 0 .01 0 0 1 1 0 0 0 67 134 4985 0 96 129 139 0 +121 0 0 -1 .003723226683
278065 0 14 96 6049 140 ?103 141 93 5 134 +0 0 103 141 24 0 51 255 139 4984 0 14
1 134 142 0 +.682662107536326 .0175703733583123 .270799036445161 0 0 -1 .0002161
71808964288 -.978147600733821 -.207911690817689 0 0 14 141 6054 143 ?96 18 144 5
 139 -0 0 96 18 24 0 50 142 2134 0 145 139 146 0 +3.5687 392998391851085e-28 -.0
001269647120307194 1 2633490703527295e-31 -26334907035271e-29 -26334907035271e-2
9 263349070352716e-30 -1 0 14 145 6102 147 ?148 149 150 5 142 +0 0 148 149 24 0
 50 146 2041 0 149 142 151 152 +.0190500000000008 -.3810000352879855 .3810000352
87953 -263349070352721e-30 1 45e-15 263349070352721e-30 -45e-15 1 0 14 149 6108
 153 ?145 16 154 5 146 -0 0 145 16 24 0 50 151 2039 0 16 146 155 156 +.019050000
0000006 .3809999647120145 .381000035287987 263349070352721e-30 -1 -45e-15 -26334
9070352721e-30 45e-15 -1 0 141 152 157 152 152 146 0 137 255 157 2150 0 1 158 11
2 159 -146 160 0 ?0 137 158 2180 0 1 161 157 162 -155 163 0 ?0 30 112 3514 0 1 1
57 22 164 +3.5687 -.3810000352879845 .381000035287953 0 45e-15 -1 0 141 159 21 1
59 159 157 0 134 160 0 0 0 0 0 0 +165 166 0 136 165 1 2 2 2 5 FFF1 167 168 169 0
 135 166 2 0 0 45 4 167 -.635 -.01905 -.127000000000004 -.01905 0 127 2 168 2 2
 0 128 2 169 0 1 0 133 21 6084 0 170 171 7 0 +157 704297731246584e-30 -.38100003
5287969 .01000000000000024 70082828429463e-29 -.381000035287968 -.00999999999999
984 .519684969905609 .480314891165451 0 17 170 0 154 172 173 76 57 174 21 0 -0 1
33 171 6083 0 57 175 21 0 +158 467204832315975e-29 -.381000035287925 -.01 465717
327276369e-29 -.381000035287926 .01000000000000022 .51960661020529 .480393389794
625 0 17 57 0 176 177 33 55 170 174 171 178 +0 133 175 6059 0 179 27 171 0 +180
 -2.686049999917135 -1.14299999999998 -.01 -2.686049999917135 -1.14299999999998
 .01 1.197770000000066 1.217770000000066 0 16 179 6058 0 ?63 181 20 175 0 0 1 0
 134 27 6040 0 10 182 175 0 -183 184 0 30 180 2224 0 1 185 161 186 +-2.686049999
91713 -1.142999999999922 -1.207770000000066 -1912331324970915e-30 -4893002565723
26e-28 1 0 30 185 2292 0 1 125 180 187 +-2.686049999917135 1.142999999999954 1.2
07770000000062 1997610186619385e-30 723114862514374e-28 -1 0 137 161 2184 0 1 18
0 158 188 -19 189 0 ?0 141 186 175 186 186 180 0 141 188 190 188 188 161 0 124 2
55 19 2016 0 191 155 6 192 +193 194 0 134 189 0 0 0 0 0 0 +195 196 0 136 195 1 2
 2 2 5 FFF1 197 198 199 0 135 196 2 0 0 45 4 197 1 .610347723205177 1 .389652276
794812 0 127 2 198 2 2 0 128 2 199 0 1 0 14 191 6078 200 ?18 148 201 5 19 +0 0 1
8 148 24 0 124 155 2029 0 148 151 19 202 +203 204 0 141 192 205 206 207 19 0 126
 255 193 FF3 1 18 2 6 5 16 2 TFF11 4 208 209 210 211 212 0 125 255 194 0 1 0 1 0
 1 0 1 2 BBBBBBBB????0 0 0 0 0 45 144 208 -2.686049999917135 1.142999999999958 1
.15551108750006 1 -2.68604999991713 1.143000000000124 -1.155511087499942 1 -2.64
7884716593055 1.142999999999958 1.155511087500064 1 -2.64788471659305 1.14300000
0000124 -1.155511087499942 1 -1.884579050111465 1.142999999999956 1.155511087500
066 1 -1.88457905011146 1.143000000000124 -1.15551108749994 1 -1.193113623530012
 .636809786485153 1.155511087500032 1 -1.193113623530008 .63680978648532 -1.1555
11087499976 1 -.471401854442453 .428595305109872 1.155511087500014 1 -.471401854
442449 .428595305110039 -1.15551108749999 1 -.4295744810451425 .4180784235746685
 1.155511087500012 1 -.4295744810451375 .4180784235748355 -1.15551108749999 1 -.
385058947510224 .408561013530794 1.155511087500016 1 -.385058947510219 .40856101
3530961 -1.15551108749999 1 -.342697428204332 .401058695349218 1.155511087500014
 1 -.3426974282043275 .401058695349385 -1.15551108749999 1 -.296889397319744 .39
4327889125922 1.155511087500016 1 -.2968893973197395 .394327889126089 -1.1555110
87499992 1 -.2483969612800645 .388919886607588 1.155511087500012 1 -.24839696128
006 .388919886607755 -1.155511087499992 1 -.197507740186171 .3851021620530695 1.
15551108750001 1 -.1975077401861665 .3851021620532365 -1.155511087499992 1 -.151
389557426735 .3828626948022145 1.155511087500014 1 -.1513895574267285 .382862694
8023815 -1.155511087499992 1 -.1094818719950402 .3816761876428675 1.155511087500
012 1 -.1094818719950376 .3816761876430345 -1.155511087499992 1 -.06736376593554
3 .3810887454630575 1.155511087500016 1 -.0673637659355362 .3810887454632245 -1.
155511087499992 1 -.03223523029080595 .3809319934517025 1.155511087500014 1 -.03
223523029080425 .3809319934518695 -1.15551108749999 1 -.00893271199347187 .38100
00352878915 1.155511087500012 1 -.00893271199347015 .3810000352880585 -1.1555110
87499992 1 -.0004253672377867175 .381000035287891 1.155511087500012 1 -.00042536
72377801135 .381000035288058 -1.155511087499992 1 -197131140214919e-29 .38100003
5287891 1.155511087500012 1 485454307710241e-29 .381000035288058 -1.155511087499
992 1 0 127 16 209 4 1 1 1 1 1 1 1 1 1 1 1 1 1 1 4 0 127 2 210 2 2 0 128 16 211
 0 .0408394004024897 .816788008049794 .829251324804548 .845124235721322 .8629439
53647523 .877973259570031 .891170814631966 .912504074533653 .930190875937079 .94
5794423495555 .961928806574653 .975070492535707 .99088407821151 .999544203910576
 1 0 128 2 212 0 1 0 38 12 CCCCCCCCCCCA17 intersection_data204 0 Z205 5889 0 1 2
13 214 215 +19 133 216 217 218 219 0 141 206 220 207 192 19 0 141 207 161 192 20
6 19 0 38 220 6217 0 1 221 222 223 +19 137 224 225 226 227 0 133 221 6218 0 228
 229 220 0 +220 147115192134936e-29 .3810000352879755 -.01 -2.686049999917135 1.
143000000000042 -.01 0 2.78912314680087 0 133 222 6216 0 34 220 230 0 +230 -2.68
6049999917135 -1.142999999999982 -.01 467204832315975e-29 -.381000035287925 -.01
 0 2.792713985439955 0 141 223 221 223 223 220 0 50 137 6208 0 87 0 133 231 +0 0
 -.01 0 0 -1 -1 0 0 0 40 255 4 224 0 1 4 .2144052722414255 .3974361086157045 ??1
47115192134936e-29 .3810000352879755 -.01 -.936235822996638 .595405307529401 -.0
1 -1.773569104862485 .958712201504558 -.01 -2.686049999917135 1.143000000000042
 -.01 0 41 3 CI8 term_use0 0 1 cCZ1 225 L?147115192134936e-29 .3810000352879755
 -.01 0 41 1 226 L?-2.686049999917135 1.143000000000042 -.01 0 204 2 17 INTERSEC
TION_DATA17 Intersection data7 uv_type0 0 1 u6 values0 1 1 fT16 227 4 1 .5043270
89591864 -147115192134936e-29 .3810000352879755 .655607690880921 .50432708959187
 .936235822996638 .595405307529401 .3362306182261175 .504327089591881 1.77356910
4862485 .958712201504558 2635712412022615e-29 .504327089591885 2.686049999917135
 1.143000000000042 0 14 87 6176 232 ?0 136 30 5 137 +0 0 0 136 24 0 141 231 220
 233 233 137 0 141 233 230 231 231 137 0 38 230 6215 0 1 222 234 235 +155 137 23
6 237 238 239 0 133 234 6214 0 240 230 241 0 +241 3.5687 -.381000035287967 -.01
 697358837342676e-30 -.381000035287968 -.01 -3.54965 .01905 0 141 235 222 235 23
5 230 0 40 4 236 0 1 4 .203228591202673 .390550933386741 ??-2.686049999917135 -1
.142999999999982 -.01 -1.725053504069935 -.939771408797281 -.01 -.89507736516024
5 -.578291201966204 -.01 467204832315975e-29 -.381000035287925 -.01 0 41 1 237 L
?-2.686049999917135 -1.142999999999982 -.01 0 41 1 238 L?467204832315975e-29 -.3
81000035287925 -.01 0 204 16 239 4 -822502006761949e-32 .495672910408171 2.68604
9999917135 -1.142999999999982 .354633416177993 .495672910408165 1.72505350406993
5 -.939771408797281 .67123688119325 .495672910408157 .895077365160245 -.57829120
1966204 .999999999993697 .495672910408152 -467204832315975e-29 -.381000035287925
 0 16 240 6130 0 ?32 242 34 234 0 0 1 0 30 241 6213 0 1 234 243 244 +.0190500000
000008 -.381000035287968 -.01 -1 -263349070352721e-30 0 0 133 243 6212 0 242 241
 245 0 +245 496130914129367e-30 .380999964712032 -.01 3.5687 .380999964712033 -.
01 -.01905 3.54965 0 141 244 234 244 244 241 0 16 242 6131 0 ?72 246 240 243 0 0
 1 0 30 245 6211 0 1 243 247 248 +.0190500000000006 .380999964712032 -.01 1 2633
49070352721e-30 0 0 30 247 6210 0 246 245 249 0 +3.5687 392998391851085e-28 -.01
 -2633490703527295e-31 1 0 0 141 248 243 248 248 245 0 16 246 6132 0 ?250 251 24
2 247 0 0 1 0 134 249 5893 0 251 247 252 0 +253 254 0 16 251 5796 0 ?97 255 246
 249 0 0 1 0 31 255 252 5892 0 255 249 256 0 -.682662107536326 .0175703733583123
 .01 0 0 1 1 0 0 .000216171808964288 0 136 253 4 40 3 37 6 FFF1 257 258 259 0 13
5 254 2 0 0 45 120 257 .534782008720635 -.01386251198536288 .01 .534816436189365
 -.01402471380612246 .01 .5348875866292 -.0142835947831648 .01 .535027516487913
 -.0146499994153034 .01 .53528050796659 -.0151115005532137 .01 .535576429156545
 -.0155269795238673 .01 .535973390309652 -.01596423816650645 .01 .53650245159553
5 -.016425776995052 .01 .537228128772163 -.0169243546790989 .01 .5382634094427 -
.0174725162184937 .01 .539781968818227 -.01806689134848345 .01 .542031036849205
 -.018671052126287 .01 .545435014895611 -.019214713937143 .01 .550436018307386 -
.01951998508059345 .01 .557742938580434 -.0193279682759468 .01 .56700988813723 -
.01833950661237395 .01 .57623219625868 -.0167644597847301 .01 .584860515496166 -
.014929180073951 .01 .59343786816104 -.01287360863134332 .01 .601968179621633 -.
01062876283968726 .01 .610446296727932 -.00819510658918336 .01 .618880605279605
 -.00561448812631657 .01 .625882603714171 -.003380439422212625 .01 .631469853188
623 -.00154730483391115 .01 .637042205013502 .0003276309376840785 .01 .642602621
102705 .00224282347246889 .01 .648147117149273 .004194773350539765 .01 .65299148
5911852 .00593688993460882 .01 .657128332253361 .00745018476791419 .01 .66058130
828401 .00873138129371588 .01 .663319967371631 .00975743475609432 .01 .666095922
607182 .01080979146572016 .01 .668795646479544 .0118421231880977 .01 .6716142246
97138 .01293470581213264 .01 .674224800328893 .01395381919629216 .01 .6771689551
70514 .0151219174925383 .01 .679548894693923 .01607123573719515 .01 .68202714927
3462 .01707731254874545 .01 .683232962556021 .0175694960125801 .01 .683851703073
739 .0178232296956007 .01 0 127 37 258 5 1 1 1 1 1 1 1 1 1 1 1 1 1 1 1 1 1 1 1 1
 1 1 1 1 1 1 1 1 1 1 1 1 1 1 1 5 0 128 37 259 0 .003840943686680295 .00623502344
547994 .0090722911807389 .0121932195027496 .01565683913066555 .01991717655238185
 .02533896174756595 .0325925040205036 .0427993875578547 .0577045702050979 .07931
06675832982 .1125031012798636 .158972616272416 .227236465354744 .29550032638524
 .3296322580351885 .3637641896851365 .4320280528998595 .500291915136868 .5344238
47396322 .568555779655776 .602687711149444 .636819642643113 .670951575392144 .70
5083508141176 .739215439489715 .756281405163985 .773347370838255 .79041333662990
6 .807479302421558 .824545268213209 .841611234004861 .858677200446657 .875743166
888454 .89280913333025 .909875099772046 0 16 255 5826 0 ?66 260 251 252 0 0 1 0
 30 256 5891 0 260 252 213 0 +-2.686049999917135 -517492385015886e-30 .01 -19265
9252445729e-30 1 0 0 16 260 5794 0 ?261 262 255 256 0 0 1 0 133 213 5890 0 262 2
56 205 0 +205 -2.686049999917135 1.14300000000004 .01 141207975360392e-29 .38100
0035287974 .01 0 2.792713985439955 0 16 262 5795 0 ?263 264 260 213 0 0 1 0 17 2
63 0 201 265 266 58 43 262 0 267 +0 16 264 5793 0 ?177 268 262 214 0 0 1 0 17 17
7 0 176 269 57 61 178 264 0 0 +0 16 268 5791 0 ?54 270 264 271 0 0 1 0 133 214 5
888 0 264 205 272 0 +272 465717327276369e-29 -.381000035287926 .01 -2.6860499999
17135 -1.142999999999982 .01 0 2.78912314680087 0 38 272 5887 0 1 214 271 273 +1
55 133 274 275 276 277 0 133 271 5886 0 268 272 278 0 +278 704297731246584e-30 -
.381000035287969 .01 3.5687 -.381000035287968 .01 -.01905 3.54965 0 141 273 214
 273 273 272 0 40 4 274 0 1 4 .2144052722414225 .397436108615701 ??4657173272763
69e-29 -.381000035287926 .01 -.936235822996638 -.595405307529348 .01 -1.77356910
4862485 -.958712201504503 .01 -2.686049999917135 -1.142999999999982 .01 0 41 1 2
75 L?465717327276369e-29 -.381000035287926 .01 0 41 1 276 L?-2.686049999917135 -
1.142999999999982 .01 0 204 16 277 4 1 .504327089591872 465717327276369e-29 -.38
1000035287926 .655607690880921 .504327089591877 -.936235822996638 -.595405307529
348 .336230618226117 .504327089591886 -1.773569104862485 -.958712201504503 26246
33104059195e-29 .504327089591891 -2.686049999917135 -1.142999999999982 0 30 278
 5885 0 1 271 279 280 +.0190500000000008 -.381000035287969 .01 1 263349070352721
e-30 0 0 133 279 5884 0 270 278 119 0 +119 3.5687 .3809999647120325 .01 50306980
8033274e-30 .3809999647120315 .01 -3.54965 .01905 0 141 280 271 280 280 278 0 16
 270 5790 0 ?60 108 268 279 0 0 1 0 30 119 5883 0 1 279 117 281 +.01905000000000
06 .3809999647120315 .01 -1 -263349070352721e-30 0 0 141 281 279 281 281 119 0 1
7 60 0 282 43 283 58 284 270 0 263 +0 16 108 5792 0 ?285 100 270 117 0 0 1 0 17
 285 0 150 286 51 52 283 108 0 287 +0 15 150 1833 0 286 145 0 0 17 286 0 150 250
 285 73 287 288 0 0 +0 17 51 0 150 285 250 49 289 20 0 283 +0 17 283 0 282 60 54
 49 285 108 0 284 -0 17 287 0 154 173 172 52 286 288 0 0 -0 15 154 6106 0 172 14
9 0 0 17 173 0 154 170 287 55 54 268 0 0 -0 17 172 0 154 287 170 73 32 240 0 286
 -0 16 288 5765 0 ?286 20 174 182 0 0 1 0 16 20 6093 0 ?51 179 288 7 0 0 1 0 16
 174 6082 0 1e-5 57 288 106 0 0 0 1 0 133 182 5766 0 288 290 27 0 +112 3.5687 -.
381000035287968 .01 3.5687 -.381000035287967 -.01 .371000035287953 .391000035287
953 0 133 290 5745 0 267 190 182 0 +125 496130914129367e-30 .380999964712032 -.0
0999999999999989 503069808033274e-30 .3809999647120315 .01 .51968510883462 .4803
15030094463 0 17 267 0 291 284 292 58 265 106 290 0 -0 133 190 5744 0 265 114 29
0 0 +161 141207975360392e-29 .381000035287974 .01 147115192134936e-29 .381000035
287975 -.01 .519606610205288 .480393389794623 0 137 125 2375 0 1 121 185 293 -15
1 294 0 ?0 141 293 290 293 293 125 0 134 294 0 0 0 0 0 0 +295 296 0 136 295 1 2
 2 2 5 FFF1 297 298 299 0 135 296 2 0 0 45 4 297 .127 -.01905 .635 -.01905 0 127
 2 298 2 2 0 128 2 299 0 1 0 17 265 0 201 300 263 78 267 106 190 0 +0 133 114 57
35 0 181 110 190 0 +185 -2.686049999917135 1.14300000000004 .01 -2.6860499999171
35 1.143000000000042 -.01 1.197770000000062 1.217770000000062 0 16 181 5734 0 ?3
01 26 179 114 0 0 1 0 17 301 0 302 35 261 81 266 181 0 0 +0 16 26 5710 0 ?69 10
 181 110 0 0 1 0 17 69 0 303 66 48 67 102 26 0 304 +0 15 303 5851 0 66 136 0 0 1
7 66 0 303 48 69 64 304 255 0 97 +0 17 48 0 303 69 66 44 97 251 0 102 -0 17 304
 0 144 92 99 67 66 255 0 90 -0 15 144 6053 0 40 141 0 0 17 92 0 144 40 304 29 90
 104 0 0 +0 17 99 0 144 304 40 64 95 100 0 0 -0 17 90 0 89 102 42 67 92 104 0 0
 -0 17 40 0 144 99 92 83 36 41 0 95 -0 16 41 6153 0 ?36 305 88 306 0 0 1 0 16 30
5 6134 0 ?35 228 41 229 0 0 1 0 31 306 6220 0 41 101 229 0 -.682662107536326 .01
75703733583123 -.01 0 0 -1 -1 0 0 .000216171808964288 0 134 101 6221 0 88 0 306
 0 -307 308 0 30 229 6219 0 305 306 221 0 +-2.686049999917135 -517492385015886e-
30 -.01 192659252445729e-30 -1 0 0 136 307 4 40 3 37 6 FFF1 309 310 311 0 135 30
8 2 0 0 45 120 309 .534782008720635 -.01386251198536288 -.01 .534816436189365 -.
01402471380612246 -.01 .5348875866292 -.0142835947831648 -.01 .535027516487913 -
.0146499994153034 -.01 .53528050796659 -.0151115005532137 -.01 .535576429156545
 -.0155269795238673 -.01 .535973390309652 -.01596423816650645 -.01 .536502451595
535 -.016425776995052 -.01 .537228128772163 -.0169243546790989 -.01 .53826340944
27 -.0174725162184937 -.01 .539781968818227 -.01806689134848345 -.01 .5420310368
49205 -.018671052126287 -.01 .545435014895611 -.019214713937143 -.01 .5504360183
07386 -.01951998508059345 -.01 .557742938580434 -.0193279682759468 -.01 .5670098
8813723 -.01833950661237395 -.01 .57623219625868 -.0167644597847301 -.01 .584860
515496166 -.014929180073951 -.01 .59343786816104 -.01287360863134332 -.01 .60196
8179621633 -.01062876283968726 -.01 .610446296727932 -.00819510658918336 -.01 .6
18880605279605 -.00561448812631657 -.01 .625882603714171 -.003380439422212625 -.
01 .631469853188623 -.00154730483391115 -.01 .637042205013502 .00032763093768407
85 -.01 .642602621102705 .00224282347246889 -.01 .648147117149273 .0041947733505
39765 -.01 .652991485911852 .00593688993460882 -.01 .657128332253361 .0074501847
6791419 -.01 .66058130828401 .00873138129371588 -.01 .663319967371631 .009757434
75609432 -.01 .666095922607182 .01080979146572016 -.01 .668795646479544 .0118421
231880977 -.01 .671614224697138 .01293470581213264 -.01 .674224800328893 .013953
81919629216 -.01 .677168955170514 .0151219174925383 -.01 .679548894693923 .01607
123573719515 -.01 .682027149273462 .01707731254874545 -.01 .683232962556021 .017
5694960125801 -.01 .683851703073739 .0178232296956007 -.01 0 127 37 310 5 1 1 1
 1 1 1 1 1 1 1 1 1 1 1 1 1 1 1 1 1 1 1 1 1 1 1 1 1 1 1 1 1 1 1 1 5 0 128 37 311
 0 .003840943686680295 .00623502344547994 .0090722911807389 .0121932195027496 .0
1565683913066555 .01991717655238185 .02533896174756595 .0325925040205036 .042799
3875578547 .0577045702050979 .0793106675832982 .1125031012798636 .15897261627241
6 .227236465354744 .29550032638524 .3296322580351885 .3637641896851365 .43202805
28998595 .500291915136868 .534423847396322 .568555779655776 .602687711149444 .63
6819642643113 .670951575392144 .705083508141176 .739215439489715 .75628140516398
5 .773347370838255 .790413336629906 .807479302421558 .824545268213209 .841611234
004861 .858677200446657 .875743166888454 .89280913333025 .909875099772046 0 17 3
5 0 302 63 301 11 31 305 0 269 +0 16 228 6133 0 ?300 34 305 221 0 0 1 0 17 300 0
 201 266 265 81 80 228 0 301 +0 16 34 6135 0 ?33 240 228 222 0 0 1 0 17 33 0 176
 57 269 76 28 34 0 170 +0 15 176 1965 0 269 148 0 0 17 269 0 176 33 177 11 63 17
9 0 0 -0 17 63 0 302 261 35 61 269 179 0 312 +0 15 302 299 0 301 18 0 0 17 261 0
 302 301 63 37 312 260 0 266 +0 17 312 0 282 178 43 61 261 260 0 177 -0 15 282 5
850 0 60 136 303 0 17 178 0 282 54 312 55 177 264 0 173 -0 17 43 0 282 312 60 37
 263 262 0 261 -0 17 54 0 282 283 178 52 173 268 0 285 +0 14 136 5848 313 ?87 10
3 282 5 133 +0 0 87 103 24 0 81 1 313 6454 314 136 315 0 232 316 317 0 13 24 311
2 0 0 0 0 0 0 9 16 0 14 16 6114 316 ?149 0 291 5 151 -0 0 149 0 24 0 81 1 316 64
55 314 16 318 0 313 319 320 0 15 291 6112 0 292 16 0 0 17 292 0 291 267 289 78 7
2 242 0 265 -0 17 289 0 291 292 284 70 51 20 0 0 -0 17 72 0 30 75 80 70 292 242
 0 250 +0 15 30 6178 0 32 87 38 0 17 75 0 30 32 72 73 250 246 0 172 -0 17 80 0 3
0 72 31 78 300 228 0 292 -0 17 250 0 150 51 286 70 75 246 0 289 +0 17 31 0 30 80
 28 81 35 305 0 300 -0 17 32 0 30 28 75 76 172 240 0 33 +0 17 284 0 291 289 267
 49 60 270 0 0 -0 80 255 1 314 321 322 9000 1 1 1 1 1 1 1 1 0 FFFFTFTFFFFFFF1 0
 81 1 318 6412 323 16 0 316 0 324 325 0 81 1 319 6456 314 148 326 0 316 327 328
 0 82 255 1 320 -123010957 0 14 148 6089 319 ?191 145 176 5 155 +0 0 191 145 24
 0 81 1 326 6415 323 148 0 319 329 330 331 0 81 1 327 6457 314 18 332 0 319 0 33
3 0 82 1 328 -125304717 0 14 18 6067 327 ?141 191 302 5 6 +0 0 141 191 24 0 81 1
 332 6417 323 18 0 327 330 334 335 0 82 1 333 -127270797 0 80 1 323 0 336 8001 0
 0 0 0 3 5 0 0 0 FFFFTFTFFFFFFF2 0 81 1 330 6416 323 191 0 200 326 332 337 0 81
 1 334 6418 323 141 0 143 332 338 339 0 83 255 3 335 .180392156862745 .768627450
980392 1 0 81 1 143 6449 314 141 334 0 140 147 340 0 81 1 338 6419 323 96 0 140
 334 341 342 0 83 3 339 .180392156862745 .768627450980392 1 0 81 1 140 6448 314
 96 338 0 135 143 343 0 81 1 341 6420 323 103 0 135 338 315 344 0 83 3 342 .1803
92156862745 .768627450980392 1 0 81 1 135 6447 314 103 341 0 0 140 345 0 81 1 31
5 6421 323 136 0 313 341 346 347 0 83 3 344 .180392156862745 .768627450980392 1
 0 81 1 346 6422 323 87 0 232 315 0 348 0 83 3 347 .180392156862745 .76862745098
0392 1 0 81 1 232 6453 314 87 346 0 200 313 349 0 83 3 348 .180392156862745 .768
627450980392 1 0 81 1 200 6452 314 191 330 0 153 232 350 0 82 1 349 -132579213 0
 81 1 153 6451 314 149 324 0 147 200 351 0 82 1 350 -126287757 0 81 1 324 6413 3
23 149 0 153 318 329 352 0 81 1 147 6450 314 145 329 0 143 153 353 0 82 1 351 -1
23535245 0 81 1 329 6414 323 145 0 147 324 326 354 0 82 1 353 -124059533 0 83 3
 354 .180392156862745 .768627450980392 1 0 83 3 352 .180392156862745 .7686274509
80392 1 0 82 1 345 -134021005 0 82 1 343 -128974733 0 82 1 340 -128515981 0 83 3
 337 .180392156862745 .768627450980392 1 0 79 255 15 336 SDL/TYSA_COLOUR0 83 3 3
31 .180392156862745 .768627450980392 1 0 83 3 325 .180392156862745 .768627450980
392 1 0 79 14 322 SWEntUnchanged0 82 1 317 -1316880272 0 17 266 0 201 263 300 37
 301 181 0 0 -0 15 201 1993 0 265 191 0 0 17 97 0 93 95 94 64 48 251 0 99 +0 16
 106 5743 0 1e-5 265 174 104 0 0 0 1 0 141 215 213 215 215 205 0 40 4 216 0 1 4
 .2032285912026775 .3905509333867505 ??-2.686049999917135 1.14300000000004 .01 -
1.72505350407 .939771408797363 .01 -.895077365160278 .578291201966269 .01 141207
975360392e-29 .381000035287974 .01 0 41 1 217 L?-2.686049999917135 1.14300000000
004 .01 0 41 1 218 L?141207975360392e-29 .381000035287974 .01 0 204 16 219 4 822
502006762043e-32 .495672910408166 -2.686049999917135 1.14300000000004 .354633416
1779685 .495672910408161 -1.72505350407 .939771408797363 .671236881193238 .49567
291040815 -.895077365160278 .578291201966269 .999999999993697 .495672910408144 1
41207975360392e-29 .381000035287974 0 141 202 230 355 356 155 0 126 203 FF3 1 18
 2 6 5 16 2 TFF11 4 357 358 359 360 361 0 125 204 0 1 0 1 0 1 0 1 2 BBBBBBBB????
0 0 0 0 0 45 144 357 -2.68604999991713 -1.142999999999926 -1.155511087500066 1 -
2.686049999917135 -1.14300000000004 1.155511087499924 1 -2.64788471659305 -1.142
999999999924 -1.155511087500066 1 -2.647884716593055 -1.14300000000004 1.1555110
87499926 1 -1.88457905011146 -1.142999999999926 -1.155511087500064 1 -1.88457905
0111465 -1.14300000000004 1.155511087499928 1 -1.193113623530006 -.6368097864851
26 -1.15551108750004 1 -1.19311362353001 -.636809786485239 1.155511087499954 1 -
.471401854442447 -.4285953051098475 -1.155511087500028 1 -.471401854442452 -.428
5953051099615 1.155511087499966 1 -.429574481045134 -.418078423574645 -1.1555110
87500028 1 -.4295744810451385 -.418078423574758 1.155511087499966 1 -.3850589475
10217 -.40856101353077 -1.155511087500026 1 -.3850589475102215 -.408561013530883
 1.155511087499964 1 -.3426974282043245 -.401058695349195 -1.155511087500026 1 -
.342697428204331 -.401058695349308 1.155511087499968 1 -.296889397319738 -.39432
78891258985 -1.155511087500024 1 -.296889397319743 -.3943278891260115 1.15551108
7499966 1 -.2483969612800575 -.388919886607565 -1.155511087500026 1 -.2483969612
800625 -.388919886607678 1.15551108749997 1 -.197507740186163 -.3851021620530465
 -1.155511087500024 1 -.197507740186168 -.3851021620531595 1.155511087499966 1 -
.1513895574267275 -.3828626948021915 -1.155511087500024 1 -.151389557426732 -.38
28626948023045 1.15551108749997 1 -.109481871995034 -.381676187642845 -1.1555110
87500024 1 -.1094818719950384 -.381676187642958 1.155511087499968 1 -.0673637659
355333 -.381088745463035 -1.155511087500024 1 -.0673637659355399 -.3810887454631
48 1.155511087499966 1 -.03223523029080025 -.3809319934516795 -1.155511087500026
 1 -.03223523029080685 -.3809319934517925 1.15551108749997 1 -.00893271199346948
 -.3810000352878695 -1.155511087500024 1 -.0089327119934712 -.381000035287982 1.
155511087499968 1 -.000425367237779222 -.381000035287869 -1.155511087500024 1 -.
000425367237780941 -.381000035287982 1.155511087499968 1 552402508094969e-29 -.3
81000035287869 -1.155511087500024 1 380519651497379e-29 -.381000035287982 1.1555
11087499968 1 0 127 16 358 4 1 1 1 1 1 1 1 1 1 1 1 1 1 1 4 0 127 2 359 2 2 0 128
 16 360 0 .0408394004024897 .816788008049794 .829251324804548 .845124235721322 .
862943953647523 .877973259570031 .891170814631966 .912504074533653 .930190875937
079 .945794423495555 .961928806574653 .975070492535707 .99088407821151 .99954420
3910576 1 0 128 2 361 0 1 0 141 355 272 356 202 155 0 141 356 158 202 355 155 0
 141 187 114 187 187 185 0 136 183 4 40 3 37 6 FFF1 362 363 364 0 135 184 2 0 0
 45 120 362 .534782008720635 -.01386251198536288 -.01 .534747486354235 -.0137003
3033572592 -.01 .534707189135797 -.01343489130402686 -.01 .534685991232529 -.013
04324941567852 -.01 .534729401025088 -.01251874624267992 -.01 .5348307479622 -.0
1201882532487582 -.01 .535015540908018 -.0114579110312318 -.01 .535311137688779
 -.0108210857194869 -.01 .535771286963681 -.0100704528421654 -.01 .5364941055332
39 -.00914859577322177 -.01 .537639624407813 -.00798795333037067 -.01 .539448515
9648 -.00652124661515381 -.01 .542337077467093 -.00464006423365414 -.01 .5467815
56457461 -.002327093827490035 -.01 .553534860552797 .00046948231591494 -.01 .562
402683805462 .003335685607386745 -.01 .571468310758157 .00564785937914634 -.01 .
58009714811332 .00748070153790063 -.01 .588769025907083 .00909156721303327 -.01
 .597474914235706 .0105103887848295 -.01 .606209916781258 .01173549406313624 -.0
1 .614964673137641 .0128085241354475 -.01 .622269986472334 .01361558842775708 -.
01 .628119795859189 .01421347574663186 -.01 .633972997638915 .01476711636440696
 -.01 .639831669482251 .0152791258979696 -.01 .645690748201369 .0157510806628391
 -.01 .65082488193082 .01612996025909075 -.01 .655219591575554 .0164301036319159
 -.01 .658895151717726 .016664124244749 -.01 .661814374828158 .0168406907687223
 -.01 .664778368159607 .01700839779066025 -.01 .667664575779393 .017163392459977
75 -.01 .670683868495869 .0173116876091615 -.01 .673483258762879 .01744249797519
51 -.01 .676647986424836 .01757288273955515 -.01 .679208291881952 .0176736459817
661 -.01 .681881498400979 .01776254602890345 -.01 .683183252697883 .017803362507
9146 -.01 .683851703073771 .01782322969545155 -.01 0 127 37 363 5 1 1 1 1 1 1 1
 1 1 1 1 1 1 1 1 1 1 1 1 1 1 1 1 1 1 1 1 1 1 1 1 1 1 1 1 5 0 128 37 364 0 .00384
0943686680295 .00623502344547994 .0090722911807389 .0121932195027496 .0156568391
3066555 .01991717655238185 .02533896174756595 .0325925040205036 .042799387557854
7 .0577045702050979 .0793106675832982 .1125031012798636 .158972616272416 .227236
465354744 .29550032638524 .3296322580351885 .3637641896851365 .4320280528998595
 .500291915136868 .534423847396322 .568555779655776 .602687711149444 .6368196426
43113 .670951575392144 .705083508141176 .739215439489715 .756281405163985 .77334
7370838255 .790413336629906 .807479302421558 .824545268213209 .841611234004861 .
858677200446657 .875743166888454 .89280913333025 .909875099772046 0 141 164 182
 164 164 112 0 141 162 171 162 162 158 0 134 163 0 0 0 0 0 0 +365 366 0 136 365
 1 2 2 2 5 FFF1 367 368 369 0 135 366 2 0 0 45 4 367 1 .610347723205186 1 .38965
22767948195 0 127 2 368 2 2 0 128 2 369 0 1 0 141 156 125 156 156 151 0 141 138
 205 370 370 133 0 141 370 272 138 138 133 0 141 126 134 126 126 121 0 136 127 4
 40 3 37 6 FFF1 371 372 373 0 135 128 2 0 0 45 120 371 .534782008720635 -.013862
51198536288 .270799036445161 .534816436189365 -.01402471380612246 .2707990364451
61 .5348875866292 -.0142835947831648 .270799036445161 .535027516487913 -.0146499
994153034 .270799036445161 .53528050796659 -.0151115005532137 .270799036445161 .
535576429156545 -.0155269795238673 .270799036445161 .535973390309652 -.015964238
16650645 .270799036445161 .536502451595535 -.016425776995052 .270799036445161 .5
37228128772163 -.0169243546790989 .270799036445161 .5382634094427 -.017472516218
4937 .270799036445161 .539781968818227 -.01806689134848345 .270799036445161 .542
031036849205 -.018671052126287 .270799036445161 .545435014895611 -.0192147139371
43 .270799036445161 .550436018307386 -.01951998508059345 .270799036445161 .55774
2938580434 -.0193279682759468 .270799036445161 .56700988813723 -.018339506612373
95 .270799036445161 .57623219625868 -.0167644597847301 .270799036445161 .5848605
15496166 -.014929180073951 .270799036445161 .59343786816104 -.01287360863134332
 .270799036445161 .601968179621633 -.01062876283968726 .270799036445161 .6104462
96727932 -.00819510658918336 .270799036445161 .618880605279605 -.005614488126316
57 .270799036445161 .625882603714171 -.003380439422212625 .270799036445161 .6314
69853188623 -.00154730483391115 .270799036445161 .637042205013502 .0003276309376
840785 .270799036445161 .642602621102705 .00224282347246889 .270799036445161 .64
8147117149273 .004194773350539765 .270799036445161 .652991485911852 .00593688993
460882 .270799036445161 .657128332253361 .00745018476791419 .270799036445161 .66
058130828401 .00873138129371588 .270799036445161 .663319967371631 .0097574347560
9432 .270799036445161 .666095922607182 .01080979146572016 .270799036445161 .6687
95646479544 .0118421231880977 .270799036445161 .671614224697138 .012934705812132
64 .270799036445161 .674224800328893 .01395381919629216 .270799036445161 .677168
955170514 .0151219174925383 .270799036445161 .679548894693923 .01607123573719515
 .270799036445161 .682027149273462 .01707731254874545 .270799036445161 .68323296
2556021 .0175694960125801 .270799036445161 .683851703073739 .0178232296956007 .2
70799036445161 0 127 37 372 5 1 1 1 1 1 1 1 1 1 1 1 1 1 1 1 1 1 1 1 1 1 1 1 1 1
 1 1 1 1 1 1 1 1 1 1 5 0 128 37 373 0 .003840943686680295 .00623502344547994 .00
90722911807389 .0121932195027496 .01565683913066555 .01991717655238185 .02533896
174756595 .0325925040205036 .0427993875578547 .0577045702050979 .079310667583298
2 .1125031012798636 .158972616272416 .227236465354744 .29550032638524 .329632258
0351885 .3637641896851365 .4320280528998595 .500291915136868 .534423847396322 .5
68555779655776 .602687711149444 .636819642643113 .670951575392144 .7050835081411
76 .739215439489715 .756281405163985 .773347370838255 .790413336629906 .80747930
2421558 .824545268213209 .841611234004861 .858677200446657 .875743166888454 .892
80913333025 .909875099772046 0 136 115 4 40 3 37 6 FFF1 374 375 376 0 135 116 2
 0 0 45 120 374 .534782008720635 -.01386251198536288 .01 .534747486354235 -.0137
0033033572592 .01 .534707189135797 -.01343489130402686 .01 .534685991232529 -.01
304324941567852 .01 .534729401025088 -.01251874624267992 .01 .5348307479622 -.01
201882532487582 .01 .535015540908018 -.0114579110312318 .01 .535311137688779 -.0
108210857194869 .01 .535771286963681 -.0100704528421654 .01 .536494105533239 -.0
0914859577322177 .01 .537639624407813 -.00798795333037067 .01 .5394485159648 -.0
0652124661515381 .01 .542337077467093 -.00464006423365414 .01 .546781556457461 -
.002327093827490035 .01 .553534860552797 .00046948231591494 .01 .562402683805462
 .003335685607386745 .01 .571468310758157 .00564785937914634 .01 .58009714811332
 .00748070153790063 .01 .588769025907083 .00909156721303327 .01 .597474914235706
 .0105103887848295 .01 .606209916781258 .01173549406313624 .01 .614964673137641
 .0128085241354475 .01 .622269986472334 .01361558842775708 .01 .628119795859189
 .01421347574663186 .01 .633972997638915 .01476711636440696 .01 .639831669482251
 .0152791258979696 .01 .645690748201369 .0157510806628391 .01 .65082488193082 .0
1612996025909075 .01 .655219591575554 .0164301036319159 .01 .658895151717726 .01
6664124244749 .01 .661814374828158 .0168406907687223 .01 .664778368159607 .01700
839779066025 .01 .667664575779393 .01716339245997775 .01 .670683868495869 .01731
16876091615 .01 .673483258762879 .0174424979751951 .01 .676647986424836 .0175728
8273955515 .01 .679208291881952 .0176736459817661 .01 .681881498400979 .01776254
602890345 .01 .683183252697883 .0178033625079146 .01 .683851703073771 .017823229
69545155 .01 0 127 37 375 5 1 1 1 1 1 1 1 1 1 1 1 1 1 1 1 1 1 1 1 1 1 1 1 1 1 1
 1 1 1 1 1 1 1 1 1 5 0 128 37 376 0 .003840943686680295 .00623502344547994 .0090
722911807389 .0121932195027496 .01565683913066555 .01991717655238185 .0253389617
4756595 .0325925040205036 .0427993875578547 .0577045702050979 .0793106675832982
 .1125031012798636 .158972616272416 .227236465354744 .29550032638524 .3296322580
351885 .3637641896851365 .4320280528998595 .500291915136868 .534423847396322 .56
8555779655776 .602687711149444 .636819642643113 .670951575392144 .70508350814117
6 .739215439489715 .756281405163985 .773347370838255 .790413336629906 .807479302
421558 .824545268213209 .841611234004861 .858677200446657 .875743166888454 .8928
0913333025 .909875099772046 0 141 113 7 113 113 22 0 19 17 95 0 1 0 9 5 S0 0 74
 4 CI16 index_map_offset0 0 1 dCCZ20 15 9 0 0 327 377 378 379 380 381 13 346 2 0
 0 0 0 0 0 0 0 0 0 0 0 81 2 377 3573 382 1 0 378 0 0 383 0 0 81 2 378 5366 384 1
 377 379 0 0 0 385 0 81 2 379 5367 386 1 378 380 0 0 0 387 0 81 2 380 6030 388 1
 379 381 0 0 0 0 0 81 1 381 6358 389 1 380 13 0 0 390 0 81 2 13 6411 391 1 381 2
 0 0 0 392 0 80 2 391 389 393 9000 0 0 0 0 3 5 0 0 0 FFTFFFFFFFFFFF9 1 0 82 1 39
2 1 0 79 24 393 BODY_IN_LIGHTWEIGHT_PERM0 80 1 389 388 394 9000 1 1 1 1 1 1 1 1
 0 FFTFFFFFFFFFFF1 0 82 1 390 44204 0 79 10 394 BODY_MATCH0 80 2 388 386 395 900
0 0 0 0 0 3 5 0 0 0 FFTFFFFFFFFFFF9 1 0 79 16 395 BODY_RECIPE_20010 80 2 386 384
 396 9000 0 0 0 0 3 5 0 0 0 FFTFFFFFFFFFFF9 1 0 82 1 387 106 0 79 19 396 ENT_TIM
E_STAMP_20010 80 2 384 397 398 9000 0 0 0 0 3 5 0 0 0 FFTFFFFFFFFFFF9 1 0 82 1 3
85 46 0 79 30 398 LAST_BODY_MODIFYING_FEATURE_ID0 80 2 382 399 400 8004 0 0 0 0
 3 5 0 0 0 FFTFFFFFFFFFFF2 3 0 83 1 383 1 0 79 16 400 SDL/TYSA_DENSITY0 80 2 12
 391 401 9000 0 0 0 0 3 5 0 0 0 FFTFFFFFFFFFFF9 1 0 82 1 14 103 0 79 12 401 ATOM
_ID_20010 1 0 
