**ABCDEFGHIJKLMNOPQRSTUVWXYZabcdefghijklmnopqrstuvwxyz**************************
**PARASOLID !"#$%&'()*+,-./:;<=>?@[\]^_`{|}~0123456789**************************
**PART1;
MC=SUSE Linux-64;
MC_MODEL=genuineintel family 6 model 14 stepping 9, intel(r) core(tm) i7-7700 cpu @ 3.60ghz;
MC_ID=romulus.scorec.rpi.edu;
OS=linux;
OS_RELEASE=3.10.0-1062.1.1.el7.x86_64 #1 smp tue aug 13 18:39:59 utc 2019;
FRU=mdc_ugii_v7.0_djl_can_vrh;
APPL=unigraphics;
SITE=unknown;
USER=maliks2;
FORMAT=text;
GUISE=transmit;
KEY=fichera;
FILE=/users/maliks2/Desktop/fichera.x_t;
DATE=19-jan-2020;
**PART2;
SCH=SCH_2600169_25001;
USFLD_SIZE=0;
**PART3;
**END_OF_HEADER*****************************************************************
T51 : TRANSMIT FILE created by modeller version 260016923 SCH_2600169_25001_1300
6189 0 12 29 CCCCCCCCCCCCCDI5 owner1040 0 CCCCCCCCCA16 index_map_offset0 0 1 dA9
 index_map82 0 A17 node_id_index_map82 0 A20 schema_embedding_map82 0 A5 child12
 0 A14 lowest_node_id0 0 1 dZ1 684 2 3 0 0 0 0 1e3 1e-8 0 0 0 1 0 1 1 4 5 6 7 8
 9 10 0 0 0 0 0 0 81 255 1 2 684 11 1 12 0 0 0 13 70 11 CI9 list_type0 0 1 uI10
 notransmit0 0 1 lCCCDCCDI12 finger_index0 0 1 dI12 finger_block1012 0 CZ3 0 4 T
1 0 0 4 20 1 14 14 13 255 4 91 0 1 0 15 0 0 16 0 50 255 5 89 0 15 17 0 0 +0 0 1
 0 1 0 0 0 1 30 255 6 634 0 1 18 0 19 +-1 0 0 0 -1 0 29 255 7 491 0 10 20 0 0 0
 0 19 8 CCCCCCCA5 owner12 0 Z8 1 0 1 16 0 21 V0 16 255 9 71 22 ?23 0 24 25 0 0 1
 18 255 10 486 0 26 0 27 7 1e-8 1 17 255 26 0 28 29 30 10 31 32 0 33 -18 27 15 0
 34 10 35 36 ?1 17 34 0 37 38 39 27 40 41 0 42 +18 35 54 0 43 27 44 20 ?1 29 36
 17 0 27 45 20 1 1 1 29 45 238 0 46 47 36 -1 0 -1 29 20 67 0 35 36 7 1 1 -1 18 4
6 193 0 48 44 49 45 ?1 29 47 239 0 49 50 45 -1 1 -1 18 49 189 0 51 46 52 47 ?1 2
9 50 243 0 44 53 47 -1 1 1 18 44 192 0 38 35 46 50 ?1 29 53 402 0 54 55 50 1 -1
 -1 18 54 351 0 56 52 57 53 ?1 29 55 403 0 57 58 53 0 -1 -1 18 57 358 0 59 54 60
 55 ?1 29 58 404 0 60 61 55 0 0 -1 18 60 354 0 62 57 63 58 1e-8 1 29 61 406 0 52
 64 58 1 -1 1 18 52 355 0 40 49 54 61 ?1 29 64 613 0 65 66 61 0 -1 0 18 65 564 0
 67 63 68 64 1e-8 1 29 66 614 0 68 69 64 -1 -1 0 18 68 571 0 70 65 71 66 ?1 29 6
9 615 0 71 72 66 -1 0 0 18 71 567 0 30 68 0 69 1e-8 1 29 72 618 0 63 0 69 -1 -1
 1 18 63 565 0 73 60 65 72 ?1 17 73 0 37 39 38 63 74 75 0 76 +15 255 37 23 0 38
 77 0 17 39 0 37 34 73 52 76 78 0 79 +17 38 0 37 73 34 44 80 24 0 81 +17 74 0 82
 83 84 44 73 75 0 0 -16 75 176 85 ?73 86 87 88 0 0 1 17 76 0 89 90 79 63 39 78 0
 84 -15 89 366 0 91 92 0 17 90 0 89 67 76 68 84 93 0 94 +17 79 0 89 76 91 52 95
 96 0 0 -16 78 343 97 ?39 98 99 100 0 0 1 17 84 0 82 74 94 63 90 93 0 0 -15 82 1
97 0 101 102 0 17 94 0 82 84 103 68 30 104 0 0 +16 93 534 105 ?90 106 32 107 0 0
 1 81 1 105 668 108 93 0 0 109 110 111 16 106 319 112 ?113 99 93 114 0 0 1 16 32
 544 115 ?31 93 116 117 0 0 1 30 107 601 0 93 118 100 0 +-1 -1 1 0 0 -1 30 118 6
04 0 1 119 107 120 +0 0 0 -1 0 0 30 100 399 0 78 107 121 0 +0 -1 1 1 0 0 30 121
 395 0 99 100 122 0 +0 -1 -1 1 0 0 16 99 325 123 ?91 78 106 121 0 0 1 30 122 391
 0 96 121 124 0 +1 -1 1 0 0 -1 16 96 331 125 ?95 126 98 122 0 0 1 30 124 390 0 1
 122 127 128 +0 -1 1 0 0 -1 30 127 389 0 1 124 88 129 +0 0 1 0 0 -1 141 255 128
 130 128 128 124 133 255 130 478 0 126 131 132 0 +124 0 -1 0 0 -1 -1 1 2 16 126
 327 133 ?59 87 96 130 0 0 1 30 131 414 0 1 114 130 134 +0 0 -1 0 -1 0 133 132 4
84 0 135 130 136 0 +137 -1 0 0 -1 0 -1 1 2 16 135 160 138 ?48 139 86 132 0 0 1 1
33 136 490 0 98 132 117 0 +127 0 0 0 0 0 -1 1 2 30 137 225 0 1 140 141 142 +-1 0
 1 0 0 -1 30 140 231 0 87 88 137 0 +-1 1 -1 0 -1 0 30 141 224 0 86 137 143 0 +-1
 1 1 0 0 -1 141 142 132 142 142 137 16 86 156 144 ?83 135 75 141 0 0 1 30 143 19
 0 41 141 145 0 +1 0 1 0 1 0 16 41 16 146 ?34 24 147 143 0 0 1 30 145 22 0 24 14
3 148 0 +1 1 1 -1 0 0 16 24 20 149 ?38 9 41 145 0 0 1 30 148 65 0 1 145 150 151
 +0 0 -1 1 0 0 30 150 64 0 152 148 153 0 +1 0 -1 0 1 0 141 151 154 151 151 148 1
33 154 294 0 139 25 114 0 +148 -1 0 -1 0 0 -1 -1 0 16 139 50 155 ?156 152 135 15
4 0 0 1 30 25 83 0 9 153 154 0 +1 1 1 0 0 -1 133 114 413 0 106 154 131 0 +131 0
 0 -1 0 -1 -1 0 1 30 153 63 0 147 150 25 0 +1 1 -1 -1 0 0 16 147 46 157 ?51 41 1
52 153 0 0 1 81 1 157 269 108 147 0 0 149 144 158 17 51 0 159 81 23 49 160 147 0
 83 +16 152 48 161 ?43 147 139 150 0 0 1 81 1 161 447 108 152 0 0 146 123 162 17
 43 0 163 42 95 35 56 152 0 23 +15 163 77 0 43 164 0 17 42 0 163 40 43 27 23 9 0
 80 -17 95 0 163 43 40 54 79 96 0 0 +17 56 0 165 166 160 54 43 152 0 91 -17 23 0
 159 51 80 35 42 9 0 160 +15 159 75 0 51 167 0 17 80 0 159 23 81 27 38 24 0 0 -1
7 160 0 165 56 168 35 51 147 0 0 -15 165 45 0 169 170 0 17 168 0 165 160 169 49
 101 87 0 0 -17 169 0 165 168 171 46 156 139 0 101 -17 101 0 82 103 83 46 168 87
 0 0 +16 87 154 172 ?101 75 126 140 0 0 1 81 1 172 272 108 87 0 0 144 173 174 80
 255 1 108 175 176 9000 1 1 1 1 1 1 1 1 0 FFFFTFTFFFFFFF3 81 1 144 271 108 86 0
 0 157 172 177 81 1 173 275 108 167 0 178 172 155 179 84 255 32 174 73bc06be7574
8904648171d206e9602114 255 167 76 178 ?77 164 159 4 180 -0 0 77 164 21 81 1 178
 677 181 167 173 0 182 183 184 81 1 155 445 108 139 0 0 173 146 185 84 32 179 48
c9be9f46bcb3205fe35d8983e5c8b181 1 146 446 108 41 0 0 155 161 186 84 32 185 6d06
43490542d813aaea31a57338c03d84 32 186 bd3b4b9855236458eceb2314b584213380 1 181 0
 187 8001 0 0 0 0 3 5 0 0 0 FFFFTFTFFFFFFF2 81 1 182 676 181 164 188 0 189 178 1
90 81 1 183 678 181 77 110 0 178 191 192 83 255 3 184 .5960784 .6666667 .6862745
 14 77 24 183 ?170 167 37 4 193 +0 0 170 167 21 81 1 110 669 108 77 0 183 105 19
4 195 81 1 191 679 181 170 196 0 183 197 198 83 3 192 .5960784 .6666667 .6862745
 14 170 42 191 ?102 77 165 4 199 -0 0 102 77 21 81 1 196 455 108 170 0 191 112 1
88 200 81 1 197 680 181 102 201 0 191 202 203 83 3 198 .5960784 .6666667 .686274
5 14 102 194 197 ?204 170 82 4 205 -0 0 204 170 21 81 1 201 671 108 102 0 197 19
4 206 207 81 1 202 681 181 204 206 0 197 208 209 83 3 203 .5960784 .6666667 .686
2745 14 204 359 202 ?92 102 210 4 211 -0 0 92 102 21 81 1 206 672 108 204 0 202
 201 212 213 81 1 208 682 181 92 212 0 202 214 215 83 3 209 .5960784 .6666667 .6
862745 14 92 363 208 ?216 204 89 4 217 -0 0 216 204 21 81 1 212 673 108 92 0 208
 206 218 219 81 1 214 683 181 216 218 0 208 0 220 83 3 215 .5960784 .6666667 .68
62745 14 216 588 214 ?0 92 28 4 221 -0 0 0 92 21 81 1 218 674 108 216 0 214 212
 0 222 83 3 220 .5960784 .6666667 .6862745 84 32 222 6240660505881b03b19dabd3c4a
b6fce15 28 591 0 30 216 0 50 221 598 0 216 0 217 0 +0 0 0 0 0 1 1 0 0 13 21 3 0
 0 0 0 0 0 8 15 14 15 80 189 ?164 0 223 4 5 -0 0 164 0 21 81 1 189 675 181 15 19
4 0 0 182 224 14 164 78 182 ?167 15 163 4 17 -0 0 167 15 21 15 223 302 0 225 15
 0 17 225 0 223 31 156 10 62 98 0 0 -17 31 0 223 48 225 71 26 32 0 103 +17 156 0
 223 225 48 60 169 139 0 171 +17 62 0 210 113 33 60 225 98 0 156 +16 98 321 226
 ?62 96 78 136 0 0 1 81 1 226 661 108 98 0 0 138 133 227 81 1 138 660 108 135 0
 0 85 226 228 81 1 133 662 108 126 0 0 226 97 229 84 32 227 7ac072176dc8c8e9b10f
ebacb84cb83881 1 97 663 108 78 0 0 133 230 231 84 32 229 f93fe1b3954ac9276860deb
5bc99362181 1 230 664 108 232 0 0 97 233 234 84 32 231 0c225ec2cf5e510acb25e95e3
3f42bc416 232 532 230 ?67 116 104 235 0 0 1 81 1 233 665 108 104 0 0 230 115 236
 84 32 234 37af6ac86dba9c05b6b1c13bce4f23bd16 104 526 233 ?94 232 0 18 0 0 1 81
 1 115 666 108 32 0 0 233 109 237 84 32 236 33faec1da077449fdadd62fb1c22163181 1
 109 667 108 116 0 0 115 105 238 84 32 237 43c067c81284c68c285b7cd7e19d9c9716 11
6 536 109 ?33 32 232 239 0 0 1 84 32 238 0c105efc27238bc40c407d4e4fc048a717 33 0
 210 62 240 10 29 116 0 225 +133 239 622 0 116 117 235 0 +119 0 -1 0 0 0 0 0 1 1
33 117 621 0 32 136 239 0 +118 0 0 0 -1 0 0 0 1 133 235 623 0 232 239 241 0 +241
 -1 -1 0 0 -1 0 0 1 30 119 605 0 1 0 118 242 +0 -1 0 0 1 0 141 242 239 242 242 1
19 30 241 624 0 1 235 18 243 +-1 -1 0 1 0 0 133 18 633 0 104 241 6 0 +6 -1 0 0 -
1 -1 0 0 1 141 243 235 243 243 241 15 210 362 0 240 204 0 17 240 0 210 33 113 65
 59 126 0 0 -17 29 0 28 70 26 65 33 116 0 240 -17 70 0 28 30 29 68 67 232 0 90 -
17 30 0 28 26 70 71 94 104 0 31 -17 67 0 89 59 90 65 70 232 0 29 +17 59 0 89 91
 67 57 240 126 0 166 +17 91 0 89 79 59 54 166 99 0 95 +17 166 0 165 171 56 57 91
 99 0 113 -17 171 0 165 169 166 60 113 106 0 0 -17 113 0 210 240 62 57 171 106 0
 0 +81 1 85 659 108 75 0 0 188 138 244 84 32 228 4c4e3f4d65df5bf4265a3f3437f8177
281 1 188 458 108 164 0 182 196 85 245 84 32 244 22d6f90ed492d2da7f02e8d01cdb215
f84 32 245 e9377ecc3c03bba6e5c45c3b5a6e5b7617 48 0 223 156 31 46 103 135 0 169 +
17 103 0 82 94 101 71 48 135 0 0 -50 17 88 0 164 180 5 0 +1 0 1 -1 0 0 0 0 1 50
 180 87 0 167 199 17 0 +1 1 1 0 -1 0 0 0 -1 50 199 62 0 170 193 180 0 +0 0 -1 0
 0 1 1 0 0 50 193 25 0 77 205 199 0 +0 0 1 0 0 1 1 0 0 50 205 218 0 102 211 193
 0 +-1 1 1 1 0 0 0 0 -1 50 211 383 0 204 217 205 0 +0 0 1 1 0 0 0 0 -1 50 217 38
4 0 92 221 211 0 +0 -1 1 0 1 0 0 0 1 81 1 194 670 108 15 0 189 110 201 246 83 3
 224 .5960784 .6666667 .6862745 84 32 246 1255acc6663d5ca1f4ca19689fd237d984 32
 219 e82b81bbafe8ffb3df06173a510d06eb84 32 213 0effdac663df5137ff9ceb66dc1a45988
4 32 207 d9c7f487e120b29e827b73a159202bd181 1 112 452 108 106 0 0 125 196 247 84
 32 200 345b281e598bac4c7c72e9977f3d0f2f81 1 125 449 108 96 0 0 123 112 248 84 3
2 247 fcf080a1a62029da8e9e1f6fceb6d55781 1 123 448 108 99 0 0 161 125 249 84 32
 248 4abd4563204703f2cd8355ba2073adcb84 32 249 fea1ef90d2833e4de50d2bf1d0c506448
4 32 195 0be82129504d02e7389dac6793efb26683 3 190 .5960784 .6666667 .6862745 79
 255 15 187 SDL/TYSA_COLOUR84 32 177 a561ef922bbab03e3bedad01ba22ff8679 15 176 U
GS/ObjectState17 83 0 82 101 74 49 81 86 0 168 +17 81 0 159 80 51 44 83 86 0 74
 -17 40 0 163 95 42 52 34 41 0 39 -84 32 162 2e58435141508a9c043f58b908d1f2b681
 1 149 268 108 24 0 0 22 157 250 84 32 158 f50d9acd22e429435d60c38d9811c78381 1
 22 122 108 9 0 0 0 149 251 84 32 250 28749f2c7abc7f2ce33d2a074e94655784 32 251
 d1572be19c61e95569a3f281bfdc9bf030 88 235 0 75 127 140 0 +-1 1 1 0 -1 0 141 134
 114 134 134 131 141 129 136 129 129 127 141 120 117 120 120 118 84 32 111 7cc16
e67b11ff216095589079f0bea2919 16 92 0 1 0 8 4 S0 141 19 18 19 19 6 74 4 CI16 ind
ex_map_offset0 0 1 dCCZ20 14 4 0 0 218 12 214 2 0 0 0 0 0 0 0 0 0 0 0 0 0 0 0 0
 81 2 12 658 252 1 0 2 0 0 253 254 80 2 252 255 256 8004 0 0 0 0 3 5 0 0 0 FFTFF
FFFFFFFFF2 3 83 1 253 7830.64 84 8 254 Kg/Cu M 79 16 256 SDL/TYSA_DENSITY80 1 11
 257 258 9000 0 0 0 0 3 5 0 0 0 FFTFFFFFFFFFFF1 82 255 1 13 129 79 24 258 UG2/BO
DY_COLOR_ATTRIBUTE1 0 
