DBRep_DrawableShape

CASCADE Topology V1, (c) Matra-Datavision
Locations 0
Curve2ds 10
1 3.1415926535897931 0 0 1 
1 3.1415926535897931 0 0 1 
1 0 0 1 0 
1 4.7123889803846897 0 0 1 
1 4.7123889803846897 0 0 1 
1 0 1 1 0 
1 0 1 1 0 
1 0 -0 0 1 
1 6.2831853071795862 -0 0 1 
1 0 0 1 0 
Curves 23
1 -1 -1 0 0 0 1 
1 -1 -1 2 -0 1 0 
1 -1 0 0 0 0 1 
1 -1 -1 0 -0 1 0 
1 -1 -1 0 1 0 -0 
1 0 -1 0 0 0 1 
1 -1 -1 2 1 0 -0 
1 -1 0 2 1 0 -0 
1 0 -1 2 -0 1 0 
1 -1 0 0 1 0 -0 
7 0 0  1 2 2  -0.5 6.123233995736766e-17 0  -0.5 6.123233995736766e-17 1 
 0 2 1 2
1 -0.5 0 1 1 0 -0 
1 0 0 0 0 0 1 
2 0 0 0 0 0 1 1 0 0 0 1 0 0.5
1 0 -1 0 -0 1 0 
1 0 -0.5 1 0 -1 0 
1 0 -0.5 0 0 0 1 
2 0 0 1 0 0 1 1 0 0 0 1 0 0.5
2 0 0 1 0 0 1 1 0 0 0 1 0 0.5
1 0.5 -1.2246467991473532e-16 0 0 0 1 
2 0 0 0 0 0 1 1 0 0 0 1 0 0.5
2 0 0 1 0 0 1 1 0 0 0 1 0 0.5
2 0 0 0 0 0 1 1 0 0 0 1 0 0.5
Polygon3D 0
PolygonOnTriangulations 0
Surfaces 12
1 -1 -1 0 1 0 -0 0 0 1 0 -1 0 
1 -1 -1 0 -0 1 0 0 0 1 1 0 -0 
1 -1 -1 2 0 0 1 1 0 -0 -0 1 0 
1 -1 0 0 -0 1 0 0 0 1 1 0 -0 
10 3.1415926535897931 6.2831853071795862 0 1
2 0 0 0 0 0 1 1 0 0 0 1 0 0.5
10 0 3.1415926535897931 0 1
2 0 0 0 0 0 1 1 0 0 0 1 0 0.5
1 -1 -1 0 0 0 1 1 0 -0 -0 1 0 
1 0 -1 0 1 0 -0 0 0 1 0 -1 0 
10 3.1415926535897931 6.2831853071795862 0 1
2 0 0 0 0 0 1 1 0 0 0 1 0 0.5
1 0 0 1 0 0 1 1 0 0 0 1 0 
1 0 0 1 0 0 1 1 0 0 0 1 0 
1 0 0 0 0 0 1 1 0 0 0 1 0 
Triangulations 0

TShapes 63
Ve
1e-07
-1 -1 2
0 0

0101101
*
Ve
1e-07
-1 -1 0
0 0

0101101
*
Ed
 1e-07 1 1 0
1  1 0 0 2
0

0101000
-63 0 +62 0 *
Ve
1e-07
-1 0 2
0 0

0101101
*
Ed
 1e-07 1 1 0
1  2 0 0 1
0

0101000
-60 0 +63 0 *
Ve
1e-07
-1 0 0
0 0

0101101
*
Ed
 1e-07 1 1 0
1  3 0 0 2
0

0101000
-60 0 +58 0 *
Ed
 1e-07 1 1 0
1  4 0 0 1
0

0101000
-58 0 +62 0 *
Wi

0101100
-61 0 -59 0 +57 0 +56 0 *
Fa
0  1e-07 1 0

0111000
+55 0 *
Ve
1e-07
0 -1 0
0 0

0101101
*
Ed
 1e-07 1 1 0
1  5 0 0 1
0

0101000
-53 0 +62 0 *
Ve
1e-07
0 -1 2
0 0

0101101
*
Ed
 1e-07 1 1 0
1  6 0 0 2
0

0101000
-51 0 +53 0 *
Ed
 1e-07 1 1 0
1  7 0 0 1
0

0101000
-51 0 +63 0 *
Wi

0101100
-52 0 -50 0 +49 0 +61 0 *
Fa
0  1e-07 2 0

0111000
+48 0 *
Ve
1e-07
0 0 2
0 0

0101101
*
Ed
 1e-07 1 1 0
1  8 0 0 1
0

0101000
-46 0 +60 0 *
Ed
 1e-07 1 1 0
1  9 0 0 1
0

0101000
-46 0 +51 0 *
Wi

0101100
-59 0 -45 0 +44 0 +49 0 *
Fa
0  1e-07 3 0

0111000
+43 0 *
Ve
1e-05
-0.5 6.12323399573677e-17 0
0 0

0101101
*
Ed
 1e-07 1 1 0
1  10 0 0 0.5
0

0101000
+58 0 -41 0 *
Ve
1e-05
-0.5 6.12323399573677e-17 1
0 0

0101101
*
Ed
 1e-05 1 1 0
1  11 0 0 1
2  1 5 0 0 1
2  2 6 0 0 1
0

0101000
+41 0 -39 0 *
Ve
1.5e-07
0 0 1
0 0

0101101
*
Ed
 1.5e-07 1 1 0
1  12 0 0 0.5
0

0101000
+39 0 -37 0 *
Ed
 1e-07 1 1 0
1  13 0 1 2
0

0101000
+37 0 -46 0 *
Wi

0101100
-40 0 -38 0 -36 0 -35 0 +45 0 +57 0 *
Fa
0  1e-07 4 0

0111000
+34 0 *
Ve
1.00000010612217e-07
1.06122167814335e-14 -0.5 0
0 0

0101101
*
Ed
 1.00000000433556e-07 1 1 0
1  14 0 3.14159265358979 4.71238898038471
2  3 5 0 3.14159265358979 4.71238898038471
0

0101000
+41 0 -32 0 *
Ed
 1e-07 1 1 0
1  15 0 0 0.5
0

0101000
+53 0 -32 0 *
Wi

0101100
-40 0 -31 0 +30 0 +52 0 -56 0 *
Fa
0  1e-07 7 0

0111000
+29 0 *
Ve
1.50000000091849e-07
-9.18485099360515e-17 -0.5 1
0 0

0101101
*
Ed
 1.5e-07 1 1 0
1  16 0 -0.5 0
0

0101000
+37 0 -27 0 *
Ed
 1.00000000091849e-07 1 1 0
1  17 0 0 1
2  4 5 0 0 1
2  5 9 0 0 1
0

0101000
+32 0 -27 0 *
Wi

0101100
-44 0 +35 0 -26 0 +25 0 +30 0 -50 0 *
Fa
0  1e-07 8 0

0111000
+24 0 *
Ed
 1.00000000433556e-07 1 1 0
1  18 0 3.14159265358979 4.71238898038469
2  6 5 0 3.14159265358979 4.71238898038469
0

0101000
+39 0 -27 0 *
Wi

0101100
-38 0 -22 0 +25 0 +31 0 *
Fa
0  1e-07 5 0

0111000
+21 0 *
Ve
1e-07
0.5 -1.22464679914735e-16 1
0 0

0101101
*
Ed
 1e-07 1 1 0
1  19 0 0 3.14159265358979
2  7 6 0 0 3.14159265358979
0

0101000
+19 0 -39 0 *
Ve
1e-07
0.5 -1.22464679914735e-16 0
0 0

0101101
*
Ed
 1e-07 1 1 0
1  20 0 0 1
2  8 6 0 0 1
2  9 9 0 0 1
0

0101000
-19 0 +17 0 *
Ed
 1e-07 1 1 0
1  21 0 0 3.14159265358979
2  10 6 0 0 3.14159265358979
0

0101000
+17 0 -41 0 *
Wi

0101100
-18 0 -16 0 +15 0 +38 0 *
Fa
0  1e-07 6 0

0111000
+14 0 *
Wi

0101100
-36 0 -26 0 +22 0 *
Fa
0  1e-07 10 0

0111000
+12 0 *
Ed
 1e-07 1 1 0
1  22 0 4.71238898038469 6.28318530717959
2  6 9 0 4.71238898038469 6.28318530717959
0

0101000
+27 0 -19 0 *
Wi

0101100
+10 0 +26 0 +36 0 +18 0 *
Fa
0  1e-07 11 0

0111000
+9 0 *
Ed
 1e-07 1 1 0
1  23 0 4.71238898038471 6.28318530717959
2  3 9 0 4.71238898038471 6.28318530717959
0

0101000
+32 0 -17 0 *
Wi

0101100
-15 0 -31 0 -7 0 *
Fa
0  1e-07 12 0

0111000
-6 0 *
Wi

0101100
-25 0 -10 0 +16 0 +7 0 *
Fa
0  1e-07 9 0

0111000
+4 0 *
Sh

0101000
-54 0 -47 0 +42 0 +33 0 -28 0 +23 0 -20 0 +13 0 -11 0 +8 0 
-5 0 +3 0 *
Co

1100000
+2 0 *

+1 0 
##EGADS HEADER FILE-REV 1 ##
0
  0  1  12  12  23  14  5
3 7 39
capsAIM
#egadsTessAIM;aflr4AIM;tetgenAIM;pumiAIM
2 14 1
capsMeshLength
 1.000000000000e+00
1 5 1
_body
9
1 5 1
_brch
11
2 8 3
_tParams
 7.288690597426e-02  2.186607179228e-02  2.000000000000e+01 
    2 0 6
1 5 2
_body
2 1 
1 5 2
_brch
7 4 
1 5 4
_hist
2 4 6 9 
1 7 3
_faceID
2 1 1 
3 8 11
AFLR_GBC
#STD_UG3_GBC
3 9 5
capsGroup
#shell
    2 1 6
1 5 2
_body
2 3 
1 5 2
_brch
7 4 
1 5 4
_hist
2 4 6 9 
1 7 3
_faceID
2 3 1 
3 8 11
AFLR_GBC
#STD_UG3_GBC
3 9 5
capsGroup
#shell
    2 2 6
1 5 2
_body
2 6 
1 5 2
_brch
7 4 
1 5 4
_hist
2 4 6 9 
1 7 3
_faceID
2 6 1 
3 8 11
AFLR_GBC
#STD_UG3_GBC
3 9 5
capsGroup
#shell
    2 3 6
1 5 2
_body
2 4 
1 5 2
_brch
7 4 
1 5 4
_hist
2 4 6 9 
1 7 3
_faceID
2 4 1 
3 8 11
AFLR_GBC
#STD_UG3_GBC
3 9 5
capsGroup
#shell
    2 4 6
1 5 2
_body
2 5 
1 5 2
_brch
7 4 
1 5 4
_hist
2 4 6 9 
1 7 3
_faceID
2 5 1 
3 8 11
AFLR_GBC
#STD_UG3_GBC
3 9 5
capsGroup
#shell
    2 5 6
1 5 2
_body
2 2 
1 5 2
_brch
7 4 
1 5 4
_hist
2 4 6 9 
1 7 3
_faceID
2 2 1 
3 8 11
AFLR_GBC
#STD_UG3_GBC
3 9 5
capsGroup
#shell
    2 6 6
1 5 2
_body
1 4 
1 5 2
_brch
9 1 
1 5 3
_hist
1 8 9 
1 7 3
_faceID
1 4 1 
3 8 14
AFLR_GBC
#TRANSP_UG3_GBC
3 9 5
capsGroup
#shell
    2 7 6
1 5 2
_body
1 3 
1 5 2
_brch
9 1 
1 5 3
_hist
1 8 9 
1 7 3
_faceID
1 3 1 
3 8 11
AFLR_GBC
#STD_UG3_GBC
3 9 5
capsGroup
#shell
    2 8 6
1 5 2
_body
1 2 
1 5 2
_brch
9 1 
1 5 3
_hist
1 8 9 
1 7 3
_faceID
1 2 1 
3 8 14
AFLR_GBC
#TRANSP_UG3_GBC
3 9 5
capsGroup
#shell
    2 9 6
1 5 2
_body
1 2 
1 5 2
_brch
9 1 
1 5 3
_hist
1 8 9 
1 7 3
_faceID
1 2 2 
3 8 11
AFLR_GBC
#STD_UG3_GBC
3 9 5
capsGroup
#shell
    2 10 6
1 5 2
_body
1 1 
1 5 2
_brch
9 1 
1 5 3
_hist
1 8 9 
1 7 3
_faceID
1 1 1 
3 8 11
AFLR_GBC
#STD_UG3_GBC
3 9 5
capsGroup
#shell
    2 11 6
1 5 2
_body
1 4 
1 5 2
_brch
9 1 
1 5 3
_hist
1 8 9 
1 7 3
_faceID
1 4 2 
3 8 11
AFLR_GBC
#STD_UG3_GBC
3 9 5
capsGroup
#shell
    4 0 3
1 5 2
_body
2 103 
1 7 5
_edgeID
2 1 2 3 1 
1 6 1
_nface
2
    4 1 3
1 5 2
_body
2 106 
1 7 5
_edgeID
2 1 2 6 1 
1 6 1
_nface
2
    4 2 3
1 5 2
_body
2 401 
1 7 5
_edgeID
2 1 2 4 1 
1 6 1
_nface
2
    4 3 3
1 5 2
_body
2 501 
1 7 5
_edgeID
2 1 2 5 1 
1 6 1
_nface
2
    4 4 3
1 5 2
_body
2 305 
1 7 5
_edgeID
2 3 2 5 1 
1 6 1
_nface
2
    4 5 3
1 5 2
_body
2 302 
1 7 5
_edgeID
2 2 2 3 1 
1 6 1
_nface
2
    4 6 3
1 5 2
_body
2 603 
1 7 5
_edgeID
2 3 2 6 1 
1 6 1
_nface
2
    4 7 3
1 5 2
_body
2 406 
1 7 5
_edgeID
2 4 2 6 1 
1 6 1
_nface
2
    4 8 3
1 5 2
_body
2 602 
1 7 5
_edgeID
2 2 2 6 1 
1 6 1
_nface
2
    4 9 3
1 5 2
_body
2 504 
1 7 5
_edgeID
2 4 2 5 1 
1 6 1
_nface
2
    4 10 3
1 5 2
_body
9 0 
1 7 5
_edgeID
1 3 2 4 1 
1 6 1
_nface
3
    4 11 3
1 5 2
_body
9 0 
1 7 5
_edgeID
1 2 2 4 1 
1 6 1
_nface
3
    4 12 3
1 5 2
_body
2 204 
1 7 5
_edgeID
2 2 2 4 1 
1 6 1
_nface
2
    4 13 3
1 5 2
_body
9 0 
1 7 5
_edgeID
1 1 2 5 1 
1 6 1
_nface
3
    4 14 3
1 5 2
_body
2 205 
1 7 5
_edgeID
2 2 2 5 1 
1 6 1
_nface
2
    4 15 3
1 5 2
_body
9 0 
1 7 5
_edgeID
1 2 2 2 1 
1 6 1
_nface
3
    4 16 3
1 5 2
_body
9 0 
1 7 5
_edgeID
1 4 2 2 1 
1 6 1
_nface
3
    4 17 3
1 5 2
_body
1 402 
1 7 5
_edgeID
1 2 1 4 1 
1 6 1
_nface
2
    4 18 3
1 5 2
_body
1 203 
1 7 5
_edgeID
1 2 1 3 1 
1 6 1
_nface
2
    4 19 3
1 5 2
_body
1 403 
1 7 5
_edgeID
1 3 1 4 1 
1 6 1
_nface
2
    4 20 3
1 5 2
_body
1 301 
1 7 5
_edgeID
1 1 1 3 1 
1 6 1
_nface
2
    4 21 3
1 5 2
_body
1 204 
1 7 5
_edgeID
1 2 1 4 2 
1 6 1
_nface
2
    4 22 3
1 5 2
_body
1 401 
1 7 5
_edgeID
1 1 1 4 1 
1 6 1
_nface
2
    5 0 2
1 7 1
_nodeID
1
1 6 1
_nedge
3
    5 1 2
1 7 1
_nodeID
2
1 6 1
_nedge
3
    5 2 2
1 7 1
_nodeID
3
1 6 1
_nedge
3
    5 3 2
1 7 1
_nodeID
4
1 6 1
_nedge
3
    5 4 2
1 7 1
_nodeID
5
1 6 1
_nedge
3
    5 5 2
1 7 1
_nodeID
6
1 6 1
_nedge
3
    5 6 2
1 7 1
_nodeID
7
1 6 1
_nedge
3
    5 7 2
1 7 1
_nodeID
8
1 6 1
_nedge
4
    5 8 2
1 7 1
_nodeID
9
1 6 1
_nedge
4
    5 9 2
1 7 1
_nodeID
10
1 6 1
_nedge
3
    5 10 2
1 7 1
_nodeID
11
1 6 1
_nedge
4
    5 11 2
1 7 1
_nodeID
12
1 6 1
_nedge
4
    5 12 2
1 7 1
_nodeID
13
1 6 1
_nedge
3
    5 13 2
1 7 1
_nodeID
14
1 6 1
_nedge
3
    0 0 0
