DBRep_DrawableShape

CASCADE Topology V1, (c) Matra-Datavision
Locations 0
Curve2ds 0
Curves 6
1 -1 0 0 -0 1 0 
1 0 -1 0 1 0 -0 
1 2 0 0 -0 1 0 
1 0 1 0 1 0 -0 
7 0 0  3 103 101  1 -3.3306690738754695e-17 0  0.99967115781247118 4.7778162768967516e-05 0  0.99835707610455171 0.00023870382307952307 0  0.9954042519052464 0.00066648021899174607 0  0.99049930437345857 0.0013735423388704919 0  0.98365380791329571 0.0023528377802482041 0  0.97490499406886422 0.0035919312409179527 0  0.96427762564611641 0.0050785874403519709 0  0.95182071176306837 0.0067958518709506479 0  0.93757937505912137 0.0087264452418955359 0  0.92161160146188081 0.010850688342309749 0  0.90397977050030753 0.01314805835093099 0  0.88475362857083806 0.015597048786010108 0  0.86400901617949444 0.018175590558043183 0  0.84182780888779463 0.020861229417387932 0  0.81829755007341387 0.023631273353315496 0  0.79351111009701403 0.026462859896089479 0  0.76756631816120346 0.029332955699581803 0  0.74056557488180752 0.032218297624582261 0  0.71261544668859467 0.035095290700082146 0  0.68382624374728873 0.037939882383479569 0  0.65431158314403859 0.04072743532171913 0  0.62418793913610848 0.04343262202886123 0  0.59357418232933912 0.046029364418431175 0  0.56259110969017967 0.048490838946652522 0  0.53136096733230853 0.050789564334566766 0  0.50000696802916855 0.05289758365125298 0  0.46865280538907206 0.05478674626205482 0  0.43742216658566307 0.056429088158680557 0  0.40643824546316837 0.057797301931208023 0  0.37582325773542247 0.058865280582360346 0  0.34569795987459995 0.059608712987981351 0  0.31618117314448152 0.060005703510772793 0  0.28738931407523877 0.060037384456567151 0  0.25943593249520225 0.059688488022605582 0  0.2324312580069394 0.058947844324098726 0  0.20648175546904232 0.057808774081787591 0  0.18168968952152253 0.05626934856412228 0  0.15815269728644854 0.054332495214799777 0  0.13596336674639276 0.052005934697333493 0  0.11520881531905963 0.049301943232859295 0  0.095970257638432116 0.046236941889348536 0  0.078322541365080614 0.042830920525172553 0  0.062333607992026897 0.039106696713993798 0  0.048063816698380495 0.03508900275279736 0  0.035564927269936639 0.03080326140497076 0  0.024878743901711655 0.026273699841312212 0  0.016034705704483714 0.021519927895112742 0  0.0090489359838890147 0.016547816252526652 0  0.0039305346851139311 0.011335195998349191 0  0.00073198825485944522 0.0058060867961758278 0  -0.00034991274043943429 6.5052130349130266e-18 0  0.00073198825485946387 -0.0058060867961758546 0  0.0039305346851138618 -0.011335195998349104 0  0.0090489359838890511 -0.016547816252526687 0  0.016034705704483652 -0.021519927895112683 0  0.02487874390171143 -0.026273699841312118 0  0.035564927269936701 -0.030803261404970778 0  0.048063816698380439 -0.035089002752797332 0  0.062333607992026863 -0.039106696713993784 0  0.078322541365080475 -0.042830920525172511 0  0.095970257638432074 -0.04623694188934855 0  0.1152088153190593 -0.049301943232859226 0  0.13596336674639281 -0.052005934697333514 0  0.15815269728644837 -0.054332495214799742 0  0.18168968952152256 -0.056269348564122301 0  0.20648175546904238 -0.057808774081787598 0  0.23243125800693967 -0.058947844324098733 0  0.25943593249520219 -0.059688488022605631 0  0.28738931407523899 -0.060037384456567158 0  0.31618117314448158 -0.060005703510772779 0  0.34569795987460006 -0.059608712987981344 0  0.37582325773542247 -0.05886528058236034 0  0.40643824546316842 -0.057797301931208037 0  0.43742216658566296 -0.056429088158680515 0  0.46865280538907195 -0.05478674626205482 0  0.50000696802916811 -0.052897583651252973 0  0.53136096733230831 -0.050789564334566779 0  0.56259110969017956 -0.048490838946652549 0  0.5935741823293389 -0.04602936441843114 0  0.62418793913610837 -0.043432622028861251 0  0.6543115831440387 -0.040727435321719123 0  0.68382624374728829 -0.037939882383479596 0  0.71261544668859456 -0.035095290700082195 0  0.74056557488180741 -0.032218297624582302 0  0.76756631816120346 -0.02933295569958181 0  0.79351111009701358 -0.026462859896089461 0  0.81829755007341354 -0.023631273353315545 0  0.84182780888779418 -0.02086122941738798 0  0.86400901617949444 -0.018175590558043225 0  0.88475362857083806 -0.015597048786010067 0  0.90397977050030753 -0.013148058350930974 0  0.92161160146188081 -0.010850688342309857 0  0.93757937505912115 -0.0087264452418955498 0  0.95182071176306826 -0.0067958518709506834 0  0.96427762564611652 -0.0050785874403519561 0  0.97490499406886322 -0.0035919312409179731 0  0.98365380791329615 -0.0023528377802482171 0  0.99049930437345934 -0.0013735423388704549 0  0.99540425190524617 -0.00066648021899178434 0  0.9983570761045516 -0.00023870382307953405 0  0.99967115781247129 -4.7778162768967415e-05 0  1 3.3306690738754695e-17 0 
 0 4 0.00048887286860067186 1 0.0019534848954336987 1 0.0043878280227966845 1 0.0077819273858305638 1 0.012121897914785382 1 0.017390021215116319 1 0.023564840640268897 1 0.030621272232787062 1 0.038530729173664319 1 0.047261257534658312 1 0.056777681440741627 1 0.067041756173541661 1 0.078012328229054712 1 0.089645501833058527 1 0.10189481187180599 1 0.11471140358097884 1 0.128044219631367 1 0.14184019544406123 1 0.15604446365631949 1 0.17060056863964146 1 0.1854506918416966 1 0.20053588848024229 1 0.21579633575709004 1 0.23117159228492171 1 0.24660086784050081 1 0.26202330190124618 1 0.27737824873487343 1 0.29260556616219108 1 0.30764590458930513 1 0.32244099260975756 1 0.33693391551739837 1 0.35106938355099343 1 0.36479398770419935 1 0.37805644255964221 1 0.39080781792239883 1 0.40300176414640554 1 0.41459474017550962 1 0.42554625889176201 1 0.43581917226886691 1 0.44538003086519323 1 0.45419957194200561 1 0.46225342514820961 1 0.46952318895714262 1 0.47599815552058194 1 0.48167821099243474 1 0.48657894478763408 1 0.49074098690102302 1 0.49424708632577463 1 0.49725003221810515 1 0.5 1 0.50274996778189485 1 0.50575291367422537 1 0.50925901309897703 1 0.51342105521236592 1 0.51832178900756531 1 0.524001844479418 1 0.53047681104285727 1 0.53774657485179045 1 0.54580042805799434 1 0.55461996913480671 1 0.56418082773113321 1 0.57445374110823799 1 0.58540525982449054 1 0.59699823585359457 1 0.60919218207760117 1 0.6219435574403579 1 0.63520601229580076 1 0.64893061644900674 1 0.66306608448260163 1 0.67755900739024244 1 0.69235409541069515 1 0.70739443383780909 1 0.72262175126512662 1 0.73797669809875399 1 0.75339913215949927 1 0.76882840771507821 1 0.78420366424290999 1 0.79946411151975771 1 0.81454930815830362 1 0.82939943136035854 1 0.84395553634368037 1 0.85815980455593854 1 0.87195578036863308 1 0.88528859641902113 1 0.89810518812819384 1 0.91035449816694136 1 0.92198767177094509 1 0.93295824382645831 1 0.94322231855925842 1 0.95273874246534174 1 0.96146927082633571 1 0.9693787277672129 1 0.97643515935973102 1 0.98260997878488365 1 0.98787810208521465 1 0.99221807261416939 1 0.9956121719772032 1 0.99804651510456621 1 0.99951112713139934 1 1 4
7 0 0  3 103 101  1 -3.3306690738754695e-17 0  0.99967115781247118 4.7778162768967516e-05 0  0.99835707610455171 0.00023870382307952307 0  0.9954042519052464 0.00066648021899174607 0  0.99049930437345857 0.0013735423388704919 0  0.98365380791329571 0.0023528377802482041 0  0.97490499406886422 0.0035919312409179527 0  0.96427762564611641 0.0050785874403519709 0  0.95182071176306837 0.0067958518709506479 0  0.93757937505912137 0.0087264452418955359 0  0.92161160146188081 0.010850688342309749 0  0.90397977050030753 0.01314805835093099 0  0.88475362857083806 0.015597048786010108 0  0.86400901617949444 0.018175590558043183 0  0.84182780888779463 0.020861229417387932 0  0.81829755007341387 0.023631273353315496 0  0.79351111009701403 0.026462859896089479 0  0.76756631816120346 0.029332955699581803 0  0.74056557488180752 0.032218297624582261 0  0.71261544668859467 0.035095290700082146 0  0.68382624374728873 0.037939882383479569 0  0.65431158314403859 0.04072743532171913 0  0.62418793913610848 0.04343262202886123 0  0.59357418232933912 0.046029364418431175 0  0.56259110969017967 0.048490838946652522 0  0.53136096733230853 0.050789564334566766 0  0.50000696802916855 0.05289758365125298 0  0.46865280538907206 0.05478674626205482 0  0.43742216658566307 0.056429088158680557 0  0.40643824546316837 0.057797301931208023 0  0.37582325773542247 0.058865280582360346 0  0.34569795987459995 0.059608712987981351 0  0.31618117314448152 0.060005703510772793 0  0.28738931407523877 0.060037384456567151 0  0.25943593249520225 0.059688488022605582 0  0.2324312580069394 0.058947844324098726 0  0.20648175546904232 0.057808774081787591 0  0.18168968952152253 0.05626934856412228 0  0.15815269728644854 0.054332495214799777 0  0.13596336674639276 0.052005934697333493 0  0.11520881531905963 0.049301943232859295 0  0.095970257638432116 0.046236941889348536 0  0.078322541365080614 0.042830920525172553 0  0.062333607992026897 0.039106696713993798 0  0.048063816698380495 0.03508900275279736 0  0.035564927269936639 0.03080326140497076 0  0.024878743901711655 0.026273699841312212 0  0.016034705704483714 0.021519927895112742 0  0.0090489359838890147 0.016547816252526652 0  0.0039305346851139311 0.011335195998349191 0  0.00073198825485944522 0.0058060867961758278 0  -0.00034991274043943429 6.5052130349130266e-18 0  0.00073198825485946387 -0.0058060867961758546 0  0.0039305346851138618 -0.011335195998349104 0  0.0090489359838890511 -0.016547816252526687 0  0.016034705704483652 -0.021519927895112683 0  0.02487874390171143 -0.026273699841312118 0  0.035564927269936701 -0.030803261404970778 0  0.048063816698380439 -0.035089002752797332 0  0.062333607992026863 -0.039106696713993784 0  0.078322541365080475 -0.042830920525172511 0  0.095970257638432074 -0.04623694188934855 0  0.1152088153190593 -0.049301943232859226 0  0.13596336674639281 -0.052005934697333514 0  0.15815269728644837 -0.054332495214799742 0  0.18168968952152256 -0.056269348564122301 0  0.20648175546904238 -0.057808774081787598 0  0.23243125800693967 -0.058947844324098733 0  0.25943593249520219 -0.059688488022605631 0  0.28738931407523899 -0.060037384456567158 0  0.31618117314448158 -0.060005703510772779 0  0.34569795987460006 -0.059608712987981344 0  0.37582325773542247 -0.05886528058236034 0  0.40643824546316842 -0.057797301931208037 0  0.43742216658566296 -0.056429088158680515 0  0.46865280538907195 -0.05478674626205482 0  0.50000696802916811 -0.052897583651252973 0  0.53136096733230831 -0.050789564334566779 0  0.56259110969017956 -0.048490838946652549 0  0.5935741823293389 -0.04602936441843114 0  0.62418793913610837 -0.043432622028861251 0  0.6543115831440387 -0.040727435321719123 0  0.68382624374728829 -0.037939882383479596 0  0.71261544668859456 -0.035095290700082195 0  0.74056557488180741 -0.032218297624582302 0  0.76756631816120346 -0.02933295569958181 0  0.79351111009701358 -0.026462859896089461 0  0.81829755007341354 -0.023631273353315545 0  0.84182780888779418 -0.02086122941738798 0  0.86400901617949444 -0.018175590558043225 0  0.88475362857083806 -0.015597048786010067 0  0.90397977050030753 -0.013148058350930974 0  0.92161160146188081 -0.010850688342309857 0  0.93757937505912115 -0.0087264452418955498 0  0.95182071176306826 -0.0067958518709506834 0  0.96427762564611652 -0.0050785874403519561 0  0.97490499406886322 -0.0035919312409179731 0  0.98365380791329615 -0.0023528377802482171 0  0.99049930437345934 -0.0013735423388704549 0  0.99540425190524617 -0.00066648021899178434 0  0.9983570761045516 -0.00023870382307953405 0  0.99967115781247129 -4.7778162768967415e-05 0  1 3.3306690738754695e-17 0 
 0 4 0.00048887286860067186 1 0.0019534848954336987 1 0.0043878280227966845 1 0.0077819273858305638 1 0.012121897914785382 1 0.017390021215116319 1 0.023564840640268897 1 0.030621272232787062 1 0.038530729173664319 1 0.047261257534658312 1 0.056777681440741627 1 0.067041756173541661 1 0.078012328229054712 1 0.089645501833058527 1 0.10189481187180599 1 0.11471140358097884 1 0.128044219631367 1 0.14184019544406123 1 0.15604446365631949 1 0.17060056863964146 1 0.1854506918416966 1 0.20053588848024229 1 0.21579633575709004 1 0.23117159228492171 1 0.24660086784050081 1 0.26202330190124618 1 0.27737824873487343 1 0.29260556616219108 1 0.30764590458930513 1 0.32244099260975756 1 0.33693391551739837 1 0.35106938355099343 1 0.36479398770419935 1 0.37805644255964221 1 0.39080781792239883 1 0.40300176414640554 1 0.41459474017550962 1 0.42554625889176201 1 0.43581917226886691 1 0.44538003086519323 1 0.45419957194200561 1 0.46225342514820961 1 0.46952318895714262 1 0.47599815552058194 1 0.48167821099243474 1 0.48657894478763408 1 0.49074098690102302 1 0.49424708632577463 1 0.49725003221810515 1 0.5 1 0.50274996778189485 1 0.50575291367422537 1 0.50925901309897703 1 0.51342105521236592 1 0.51832178900756531 1 0.524001844479418 1 0.53047681104285727 1 0.53774657485179045 1 0.54580042805799434 1 0.55461996913480671 1 0.56418082773113321 1 0.57445374110823799 1 0.58540525982449054 1 0.59699823585359457 1 0.60919218207760117 1 0.6219435574403579 1 0.63520601229580076 1 0.64893061644900674 1 0.66306608448260163 1 0.67755900739024244 1 0.69235409541069515 1 0.70739443383780909 1 0.72262175126512662 1 0.73797669809875399 1 0.75339913215949927 1 0.76882840771507821 1 0.78420366424290999 1 0.79946411151975771 1 0.81454930815830362 1 0.82939943136035854 1 0.84395553634368037 1 0.85815980455593854 1 0.87195578036863308 1 0.88528859641902113 1 0.89810518812819384 1 0.91035449816694136 1 0.92198767177094509 1 0.93295824382645831 1 0.94322231855925842 1 0.95273874246534174 1 0.96146927082633571 1 0.9693787277672129 1 0.97643515935973102 1 0.98260997878488365 1 0.98787810208521465 1 0.99221807261416939 1 0.9956121719772032 1 0.99804651510456621 1 0.99951112713139934 1 1 4
Polygon3D 0
PolygonOnTriangulations 0
Surfaces 1
1 0 0 0 0 0 1 1 0 -0 -0 1 0 
Triangulations 0

TShapes 17
Ve
1e-07
-1 -1 0
0 0

0101101
*
Ve
1e-07
-1 1 0
0 0

0101101
*
Ed
 1e-07 1 1 0
1  1 0 -1 1
0

0101000
+17 0 -16 0 *
Ve
1e-07
2 -1 0
0 0

0101101
*
Ed
 1e-07 1 1 0
1  2 0 -1 2
0

0101000
+17 0 -14 0 *
Ve
1e-07
2 1 0
0 0

0101101
*
Ed
 1e-07 1 1 0
1  3 0 -1 1
0

0101000
+14 0 -12 0 *
Ed
 1e-07 1 1 0
1  4 0 -1 2
0

0101000
+16 0 -12 0 *
Wi

0101100
-15 0 +13 0 +11 0 -10 0 *
Ve
1e-07
0 0 0
0 0

0101101
*
Ve
1e-07
1 -3.33066907387547e-17 0
0 0

0101101
*
Ed
 1e-07 1 1 0
1  5 0 0.500000000000005 1
0

0101000
+8 0 -7 0 *
Ed
 1e-07 1 1 0
1  6 0 0 0.500000000000005
0

0101000
+7 0 -8 0 *
Wi

0101100
-6 0 -5 0 *
Fa
0  1e-07 1 0

0111000
+9 0 +4 0 *
Sh

0101000
+3 0 *
Co

1100000
+2 0 *

+1 0 
##EGADS HEADER FILE-REV 1 ##
0
  0  1  1  2  6  6  6
3 16 3
__keepEdgeAttr__
#yes
3 7 39
capsAIM
#egadsTessAIM;aflr4AIM;tetgenAIM;pumiAIM
2 14 1
capsMeshLength
 1.000000000000e+00
1 5 1
_body
3
1 5 1
_brch
3
2 8 3
_tParams
 9.013878882035e-02  2.704163664611e-02  2.000000000000e+01 
    2 0 5
1 5 2
_body
1 1 
1 5 2
_brch
1 1 
1 5 2
_hist
1 3 
1 7 3
_faceID
1 1 1 
3 9 3
capsGroup
#air
    4 0 3
1 5 2
_body
1 -3 
1 6 1
_nface
1
1 7 5
_edgeID
0 0 1 1 1 
    4 1 3
1 5 2
_body
1 -3 
1 6 1
_nface
1
1 7 5
_edgeID
0 0 1 1 4 
    4 2 3
1 5 2
_body
1 -3 
1 6 1
_nface
1
1 7 5
_edgeID
0 0 1 1 6 
    4 3 3
1 5 2
_body
1 -3 
1 6 1
_nface
1
1 7 5
_edgeID
0 0 1 1 5 
    4 4 5
1 5 2
_body
1 -3 
1 6 1
_nface
1
1 7 5
_edgeID
0 0 1 1 2 
3 9 7
capsGroup
#airfoil
1 5 1
.nPos
6
    4 5 5
1 5 2
_body
1 -3 
1 6 1
_nface
1
1 7 5
_edgeID
0 0 1 1 3 
3 9 7
capsGroup
#airfoil
1 5 1
.nPos
6
    5 0 2
1 7 1
_nodeID
1
1 6 1
_nedge
2
    5 1 2
1 7 1
_nodeID
2
1 6 1
_nedge
2
    5 2 2
1 7 1
_nodeID
3
1 6 1
_nedge
2
    5 3 2
1 7 1
_nodeID
4
1 6 1
_nedge
2
    5 4 2
1 7 1
_nodeID
5
1 6 1
_nedge
2
    5 5 2
1 7 1
_nodeID
6
1 6 1
_nedge
2
    0 0 0
