DBRep_DrawableShape

CASCADE Topology V1, (c) Matra-Datavision
Locations 0
Curve2ds 8
1 0 1.5707963267948966 1 0 
1 3.1415926535897931 0 0 1 
1 3.1415926535897931 0 0 1 
1 0 -1.5707963267948966 1 0 
1 6.2831853071795862 -6.2831853071795862 0 1 
1 0 -6.2831853071795862 0 1 
1 0 1.5707963267948966 1 0 
1 0 -1.5707963267948966 1 0 
Curves 2
7 0 0  7 8 2  -1.1102230246251565e-16 0 -0.5  -0.22439947525641535 2.7481009910311487e-17 -0.49999999999999994  -0.44860247963703337 5.493795907770566e-17 -0.38247814366166327  -0.60023228945838025 7.3507255203009828e-17 -0.14768786911909718  -0.60023228945836471 7.3507255203006697e-17 0.14768786911909676  -0.44860247963704197 5.4937959077707429e-17 0.38247814366166377  -0.22439947525641304 2.7481009910311016e-17 0.50000000000000022  -1.1102230246251565e-16 0 0.5 
 -1.5707963267948966 8 1.5707963267948966 8
2 0 0 0 -2.4492935982947064e-16 -1 0 1 -2.4492935982947064e-16 0 0 0 1 0.5
Polygon3D 0
PolygonOnTriangulations 0
Surfaces 2
10 3.1415926535897931 6.2831853071795862 -1.5707963267948966 1.5707963267948966
4 0 0 0 0 0 1 1 0 -0 -0 1 0 0.5
10 0 3.1415926535897931 -1.5707963267948966 1.5707963267948966
4 0 0 0 0 0 1 1 0 -0 -0 1 0 0.5
Triangulations 0

TShapes 15
Ve
1e-07
3.06161699786838e-17 -7.49879891330929e-33 0.5
0 0

0101101
*
Ed
 1e-07 1 1 1
2  1 1 0 3.14159265358979 6.28318530717959
0

0101000
-15 0 +15 0 *
Ve
1e-07
3.06161699786838e-17 -7.49879891330929e-33 -0.5
0 0

0101101
*
Ed
 1e-05 1 1 0
1  1 0 -1.5707963267949 1.5707963267949
2  2 1 0 -1.5707963267949 1.5707963267949
2  3 2 0 -1.5707963267949 1.5707963267949
0

0101000
-15 0 +13 0 *
Ed
 1e-07 1 1 1
2  4 1 0 3.14159265358979 6.28318530717959
0

0101000
+13 0 -13 0 *
Ed
 1e-07 1 1 0
1  2 0 4.71238898038469 7.85398163397448
2  5 1 0 4.71238898038469 7.85398163397448
2  6 2 0 4.71238898038469 7.85398163397448
0

0101000
+13 0 -15 0 *
Wi

0101100
-14 0 -12 0 +11 0 +10 0 *
Fa
0  1e-07 1 0

0111000
+9 0 *
Ed
 1e-07 1 1 1
2  7 2 0 0 3.14159265358979
0

0101000
-15 0 +15 0 *
Ed
 1e-07 1 1 1
2  8 2 0 0 3.14159265358979
0

0101000
+13 0 -13 0 *
Wi

0101100
-7 0 -10 0 +6 0 +12 0 *
Fa
0  1e-07 2 0

0111000
+5 0 *
Sh

0101100
+8 0 +4 0 *
So

0100000
+3 0 *
Co

1100000
+2 0 *

+1 0 
##EGADS HEADER FILE-REV 1 ##
0
  1  1  2  2  6  2  5
3 7 39
capsAIM
#egadsTessAIM;aflr4AIM;tetgenAIM;pumiAIM
2 14 1
capsMeshLength
 1.000000000000e+00
1 5 1
_body
1
1 5 1
_brch
1
2 8 3
_tParams
 4.330127018922e-02  1.299038105677e-02  2.000000000000e+01 
    2 0 6
1 5 2
_body
1 1 
1 5 2
_brch
1 1 
1 5 1
_hist
1
1 7 3
_faceID
1 1 1 
3 8 11
AFLR_GBC
#STD_UG3_GBC
3 9 5
capsGroup
#shell
    2 1 6
1 5 2
_body
1 2 
1 5 2
_brch
1 2 
1 5 1
_hist
1
1 7 3
_faceID
1 2 1 
3 8 11
AFLR_GBC
#STD_UG3_GBC
3 9 5
capsGroup
#shell
    4 0 3
1 5 2
_body
1 -3 
1 7 5
_edgeID
0 0 1 1 2 
1 6 1
_nface
1
    4 1 3
1 5 2
_body
1 201 
1 7 5
_edgeID
1 1 1 2 1 
1 6 1
_nface
2
    4 2 3
1 5 2
_body
1 -3 
1 7 5
_edgeID
0 0 1 1 1 
1 6 1
_nface
1
    4 3 3
1 5 2
_body
1 102 
1 7 5
_edgeID
1 1 1 2 2 
1 6 1
_nface
2
    4 4 3
1 5 2
_body
1 -3 
1 7 5
_edgeID
0 0 1 2 2 
1 6 1
_nface
1
    4 5 3
1 5 2
_body
1 -3 
1 7 5
_edgeID
0 0 1 2 1 
1 6 1
_nface
1
    5 0 2
1 7 1
_nodeID
1
1 6 1
_nedge
4
    5 1 2
1 7 1
_nodeID
2
1 6 1
_nedge
4
    0 0 0
