**ABCDEFGHIJKLMNOPQRSTUVWXYZabcdefghijklmnopqrstuvwxyz**************************
**PARASOLID !"#$%&'()*+,-./:;<=>?@[\]^_`{|}~0123456789**************************
**PART1;
MC=unknown;
MC_MODEL=unknown;
MC_ID=unknown;
OS=unknown;
OS_RELEASE=unknown;
FRU=sdl_parasolid_customer_support;
APPL=parasolid_acceptance_tests;
SITE=unknown;
USER=unknown;
FORMAT=text;
GUISE=transmit;
KEY=/users/hakimm2/Desktop/crack/nx/crack_nat.x_t;
FILE=/users/hakimm2/Desktop/crack/nx/crack_nat.x_t;
DATE=unknown;
**PART2;
SCH=SCH_2700142_26105;
USFLD_SIZE=1;
**PART3;
**END_OF_HEADER*****************************************************************
T51 : TRANSMIT FILE created by modeller version 270014223 SCH_2700142_26105_1300
6196 1 12 30 CCCCCCCCCCCCCDI5 owner1040 0 CCCCCCCCCA13 boundary_mesh1006 0 A16 i
ndex_map_offset0 0 1 dA9 index_map82 0 A17 node_id_index_map82 0 A20 schema_embe
dding_map82 0 A5 child12 0 A14 lowest_node_id0 0 1 dZ1 171 2 3 0 0 0 0 1e3 1e-8
 0 0 0 1 0 3 1 4 5 6 7 8 9 10 0 0 0 0 0 0 0 0 81 255 1 2 171 11 1 12 0 0 0 13 0
 70 11 CI9 list_type0 0 1 uI10 notransmit0 0 1 lCCCDCCDI12 finger_index0 0 1 dI1
2 finger_block1012 0 CZ3 0 4 T1 0 0 6 20 1 14 14 0 13 255 4 3 0 1 0 15 0 0 8 15
 0 50 255 5 29 0 15 0 0 0 +.45 .3 0 0 0 -1 -1 0 0 0 31 255 6 63 0 9 16 0 0 -0 .2
 0 0 0 -1 -1 0 0 .25 0 29 255 7 59 0 10 17 0 -.15 0 0 0 19 8 CCCCCCCA5 owner12 0
 Z8 1 0 1 0 0 4 V0 0 16 255 9 61 18 ?19 0 20 6 0 0 1 0 18 255 10 57 0 21 0 22 7
 ?1 0 17 255 21 0 23 19 19 10 24 20 0 25 +0 18 22 54 0 24 10 26 17 ?1 0 17 24 0
 0 0 0 22 21 20 0 19 -0 18 26 5 0 27 22 28 29 ?1 0 29 17 56 0 22 30 7 .150000000
0000225 -1695865670114925e-29 0 0 29 30 21 0 31 32 17 -.45 -.3 0 0 18 31 16 0 33
 28 34 30 ?1 0 29 32 22 0 34 29 30 -.45 .3 0 0 18 34 18 0 35 31 0 32 ?1 0 29 29
 7 0 26 36 32 .45 -.3 0 0 29 36 4 0 28 0 29 .45 .3 0 0 18 28 2 0 37 26 31 36 ?1
 0 17 37 0 38 27 35 28 39 40 0 41 +0 15 255 38 25 0 35 15 0 0 17 27 0 38 42 37 2
6 41 43 0 44 +0 17 35 0 38 37 42 34 33 45 0 39 +0 17 39 0 0 0 0 34 37 40 0 0 -0
 16 40 24 46 ?37 43 45 47 0 0 1 0 17 41 0 0 0 0 28 27 43 0 0 -0 16 43 6 48 ?27 4
9 40 50 0 0 1 0 81 1 48 161 51 43 0 0 0 52 53 0 16 49 23 54 ?42 20 43 55 0 0 1 0
 30 255 50 9 0 43 0 56 0 +.45 .3 0 0 -1 0 0 30 56 20 0 45 50 55 0 --.45 .3 0 0 -
1 0 0 16 45 14 52 ?35 40 0 56 0 0 1 0 30 55 27 0 49 56 47 0 +.45 -.3 0 -1 0 0 0
 30 47 28 0 40 55 16 0 -.45 .3 0 -1 0 0 0 31 16 60 0 20 47 6 0 -0 -.2 0 0 0 -1 -
1 0 0 .25 0 16 20 58 57 ?21 9 49 16 0 0 1 0 81 1 57 166 51 20 0 0 18 58 59 0 80
 255 1 51 60 61 9000 1 1 1 1 1 1 1 1 0 FFFFTFTFFFFFFF3 0 81 1 18 165 51 9 0 0 46
 57 62 0 81 1 58 167 51 15 0 63 57 0 64 0 84 255 32 59 46ffb90113931be1ef54bbea5
2458fc80 14 255 15 26 65 ?0 0 23 4 5 +0 0 0 0 4 0 81 1 63 169 66 15 58 65 0 0 67
 0 84 32 64 8a5b5249cc7b7125d6daa95ce724ab420 80 1 66 68 69 8015 0 0 0 0 3 5 0 0
 0 FFFFTFFFFFFFFF2 0 81 1 65 170 70 15 63 0 0 0 71 0 83 255 1 67 0 0 80 1 70 0 7
2 8001 0 0 0 0 3 5 0 0 0 FFFFTFTFFFFFFF2 0 83 3 71 .5019608 .6352941 .7058824 0
 79 255 15 72 SDL/TYSA_COLOUR0 79 21 69 SDL/TYSA_TRANSLUCENCY0 15 23 55 0 21 15
 38 0 81 1 46 164 51 40 0 0 54 18 73 0 84 32 62 652205e561b7c0a910c8b57c912787fc
0 81 1 54 163 51 49 0 0 52 46 74 0 84 32 73 ede732e19a8f3069eb3511e8e3d818710 81
 1 52 162 51 45 0 0 48 54 75 0 84 32 74 4eb76fe8cc49a3fcd9019ceea2dce9580 84 32
 75 8cde98940b514c6de7277907e8e021040 79 15 61 UGS/ObjectState0 17 42 0 38 35 27
 31 44 49 0 0 +0 17 44 0 0 0 0 26 42 49 0 0 -0 84 32 53 51f9af28cb73e34a09dcb815
b77d90010 17 33 0 0 0 0 31 35 45 0 42 -0 17 19 0 23 21 21 22 25 9 0 0 +0 17 25 0
 0 0 0 10 19 9 0 0 -0 74 4 CI16 index_map_offset0 0 1 dCCZ20 14 6 0 0 76 58 12 6
3 65 2 0 0 0 0 0 0 0 0 0 0 0 0 0 0 0 81 2 76 160 77 1 0 12 0 0 78 79 0 81 1 12 1
68 80 1 76 2 0 0 81 0 80 1 80 51 82 9000 0 0 0 0 3 5 0 0 0 FFTFFFFFFFFFFF1 0 82
 255 1 81 9 0 79 7 82 body_id0 80 2 77 83 84 8004 0 0 0 0 3 5 0 0 0 FFTFFFFFFFFF
FF2 3 0 83 1 78 7830.64 0 84 8 79 Kg/Cu M 0 79 16 84 SDL/TYSA_DENSITY0 80 1 11 8
0 85 9000 0 0 0 0 3 5 0 0 0 FFTFFFFFFFFFFF1 0 82 1 13 171 0 79 24 85 UG2/BODY_CO
LOR_ATTRIBUTE0 1 0 
