**ABCDEFGHIJKLMNOPQRSTUVWXYZabcdefghijklmnopqrstuvwxyz**************************
**PARASOLID !"#$%&'()*+,-./:;<=>?@[\]^_`{|}~0123456789**************************
**PART1;
MC=unknown;
MC_MODEL=unknown;
MC_ID=unknown;
OS=unknown;
OS_RELEASE=unknown;
FRU=sdl_parasolid_customer_support;
APPL=parasolid_acceptance_tests;
SITE=unknown;
USER=unknown;
FORMAT=text;
GUISE=transmit;
KEY=/lore/cwsmith/geometries/pumi-meshes/curved/Kova_nat.x_t;
FILE=/lore/cwsmith/geometries/pumi-meshes/curved/Kova_nat.x_t;
DATE=unknown;
**PART2;
SCH=SCH_3100154_31001;
USFLD_SIZE=1;
**PART3;
**END_OF_HEADER*****************************************************************
T51 : TRANSMIT FILE created by modeller version 310015423 SCH_3100154_31001_1300
6215 1 12 34 CCCCCCI4 mesh1006 0 I8 polyline1008 0 CCCCCCCDI5 owner1040 0 CCCCCC
I13 boundary_mesh1006 0 I17 boundary_polyline1008 0 CCCA16 index_map_offset0 0 1
 dA9 index_map82 0 A17 node_id_index_map82 0 A20 schema_embedding_map82 0 A5 chi
ld12 0 A14 lowest_node_id0 0 1 dA16 mesh_offset_data206 0 Z1 223 2 3 0 0 0 0 0 0
 1e3 1e-8 0 0 0 1 0 1 1 4 5 6 7 0 0 8 9 10 0 0 0 0 0 0 0 0 81 255 1 2 188 11 1 1
2 0 0 0 13 0 70 11 CI9 list_type0 0 1 uI10 notransmit0 0 1 lCCCDCCDI12 finger_in
dex0 0 1 dI12 finger_block1012 0 CZ3 0 4 T1 0 0 5 20 1 14 14 0 13 255 4 127 0 1
 0 15 0 0 16 0 0 50 255 5 126 0 15 17 0 0 +-.5 .860998942748213 1 1 161837843240
675e-30 0 -161837843240675e-30 1 0 0 30 255 6 120 0 18 19 0 0 +-.5 .860998942748
213 1 0 0 -1 0 29 255 7 91 0 20 21 0 .1390010572517868 1.5 0 0 19 8 CCCCCCCA5 ow
ner12 0 Z8 1 0 1 16 0 22 V0 0 16 255 9 101 23 ?24 0 25 19 0 0 1 0 18 255 10 25 0
 26 0 27 28 ?1 0 17 255 26 0 29 30 31 10 32 33 0 34 +0 18 27 20 0 31 10 35 36 ?1
 0 29 28 27 0 10 36 37 .1390010572517868 1.5 1 0 29 36 22 0 27 38 28 1 1.5 1 0 2
9 37 96 0 39 28 40 -.5 .860998942748213 0 0 18 39 82 0 41 42 0 37 ?1 0 29 40 95
 0 42 37 43 -.5 .174989414696048 0 0 18 42 80 0 44 45 39 40 ?1 0 29 43 94 0 45 4
0 46 .174989414696047 -.5 0 0 18 45 78 0 47 48 42 43 ?1 0 29 46 93 0 48 43 21 1
 -.5 0 0 18 48 76 0 49 50 45 46 ?1 0 29 21 92 0 50 46 7 1 1.5 0 0 18 50 74 0 51
 20 48 21 ?1 0 17 51 0 52 53 54 50 55 56 0 57 +0 18 20 72 0 58 59 50 7 ?1 0 17 5
8 0 60 34 57 20 61 62 0 63 +0 18 59 2 0 30 64 20 65 ?1 0 17 30 0 29 66 26 59 67
 68 0 69 +0 18 64 5 0 70 71 59 72 ?1 0 29 65 4 0 59 0 72 -.5 .860998942748213 1
 0 29 72 7 0 64 65 73 -.5 .174989414696048 1 0 29 73 12 0 71 72 38 .174989414696
047 -.5 1 0 18 71 10 0 74 35 64 73 ?1 0 29 38 17 0 35 73 36 1 -.5 1 0 18 35 15 0
 75 27 71 38 ?1 0 17 75 0 29 31 74 35 76 77 0 78 +0 15 255 29 33 0 66 79 0 0 17
 31 0 29 26 75 27 80 81 0 53 +0 17 74 0 29 75 66 71 70 82 0 83 +0 17 76 0 84 85
 78 71 75 77 0 0 -0 16 77 16 86 ?75 81 82 87 0 0 1 0 17 78 0 84 76 49 35 54 88 0
 80 -0 15 84 109 0 49 89 0 0 17 49 0 84 78 85 48 90 91 0 54 +0 17 54 0 52 51 80
 48 78 88 0 55 +0 16 88 99 92 ?54 25 93 94 0 0 1 0 17 80 0 52 54 53 35 31 81 0 0
 -0 15 52 107 0 51 95 0 0 17 53 0 52 80 51 27 57 93 0 32 -0 16 81 21 96 ?31 33 7
7 97 0 0 1 0 81 1 96 156 98 81 0 0 99 23 100 0 16 33 26 101 ?26 68 81 102 0 0 1
 0 30 97 24 0 81 87 102 0 +1 -.5 1 -1110223024625156e-31 1 0 0 30 87 19 0 77 103
 97 0 +.1749894146960485 -.5 1 1 0 0 0 30 102 29 0 33 97 104 0 +1 1.5 1 -1 0 0 0
 31 255 104 32 0 68 102 105 0 +.139001057251787 .860998942748213 1 0 0 1 1 0 0 .
639001057251787 0 16 68 30 106 ?30 18 33 104 0 0 1 0 30 105 90 0 107 104 108 0 +
-.5 .860998942748213 0 161837843240675e-30 -1 0 0 16 107 70 109 ?110 111 0 105 0
 0 1 0 31 108 89 0 111 105 112 0 +.1749894146960485 .1749894146960485 0 0 0 1 1
 0 0 .674989414696048 0 16 111 68 113 ?47 91 107 108 0 0 1 0 30 112 88 0 91 108
 114 0 +.1749894146960485 -.5 0 1 0 0 0 16 91 66 115 ?49 56 111 112 0 0 1 0 30 1
14 87 0 56 112 116 0 +1 -.5 0 -1110223024625156e-31 1 0 0 16 56 64 117 ?51 62 91
 114 0 0 1 0 30 116 86 0 62 114 118 0 +1 1.5 0 -1 0 0 0 16 62 62 119 ?58 120 56
 116 0 0 1 0 31 118 85 0 120 116 121 0 +.139001057251787 .860998942748213 0 0 0
 1 1 0 0 .639001057251787 0 16 120 60 99 ?41 122 62 118 0 0 1 0 30 121 115 0 123
 118 124 0 +.1390010572517868 1.5 1 0 0 -1 0 16 123 97 125 ?63 93 18 121 0 0 1 0
 30 124 116 0 93 121 94 0 +1 1.5 1 0 0 -1 0 16 93 98 126 ?57 88 123 124 0 0 1 0
 30 94 117 0 88 124 127 0 +1 -.5 1 0 0 -1 0 30 127 118 0 25 94 19 0 +.1749894146
96047 -.5 1 0 0 -1 0 16 25 100 128 ?85 9 88 127 0 0 1 0 30 19 119 0 9 127 6 0 +-
.5 .174989414696048 1 0 0 -1 0 81 1 128 162 98 25 0 0 129 106 130 0 17 85 0 84 4
9 76 45 83 25 0 90 +0 17 83 0 131 70 47 71 85 25 0 76 -0 17 90 0 132 44 55 45 49
 91 0 0 -0 15 132 59 0 133 134 0 0 17 44 0 132 133 90 42 47 111 0 24 -0 17 55 0
 132 90 61 48 51 56 0 0 -0 17 61 0 132 55 135 50 58 62 0 0 -0 17 135 0 132 61 13
3 20 41 120 0 0 -0 17 133 0 132 135 44 39 110 107 0 0 -0 17 41 0 136 69 63 39 13
5 120 0 137 +0 15 136 103 0 41 138 0 0 17 69 0 136 67 41 59 137 18 0 139 -0 17 6
3 0 136 41 67 20 34 123 0 135 +0 17 137 0 140 110 139 39 69 18 0 133 +0 15 140 1
13 0 110 15 0 0 17 110 0 140 141 137 42 133 107 0 0 +0 17 139 0 140 137 141 59 6
6 122 0 0 -0 16 18 102 142 ?137 123 68 6 0 0 1 0 81 1 142 166 98 18 0 0 113 109
 143 0 80 255 1 98 144 145 9000 1 1 1 1 1 1 1 1 0 FFFFTFTFFFFFFF3 0 81 1 113 165
 98 111 0 0 86 142 146 0 81 1 109 167 98 107 0 0 142 125 147 0 84 255 32 143 e01
33d0a274ad6dae35817e003cac7de0 81 1 125 168 98 123 0 0 109 119 148 0 84 32 147 7
4f22b21f039e3a6ac7931fe8932a5520 81 1 119 169 98 62 0 0 125 149 150 0 84 32 148
 acd61ea4c8be62b78e9852176f30a4550 81 1 149 192 98 15 151 0 119 152 153 0 84 32
 150 8d0eff17801a7eb54b3eb74f8c5221200 14 255 15 114 149 ?154 0 140 4 5 -0 0 154
 0 22 0 81 1 151 191 155 15 0 149 0 156 0 0 81 1 152 200 98 138 157 0 149 158 15
9 0 84 32 153 415f8090dedd9057aae31f62f0b534e90 14 138 104 152 ?79 160 136 4 161
 -0 0 79 160 22 0 81 1 157 199 155 138 0 152 156 162 0 0 81 1 158 204 98 95 162
 0 152 163 164 0 84 32 159 9a7c21dd752b6ae7d38d08b5eca460b60 14 95 108 158 ?160
 89 52 4 165 -0 0 160 89 22 0 81 1 162 203 155 95 0 158 157 166 0 0 81 1 163 212
 98 89 167 0 158 168 169 0 84 32 164 a652734a899d6b9de0ab3374074f52830 14 89 110
 163 ?95 154 84 4 170 -0 0 95 154 22 0 81 1 167 211 155 89 0 163 166 171 0 0 81
 1 168 216 98 160 171 0 163 172 173 0 84 32 169 a65a3edd3b0754bed4b0abe972cef0d9
0 14 160 106 168 ?138 95 60 4 174 -0 0 138 95 22 0 81 1 171 215 155 160 0 168 16
7 175 0 0 81 1 172 217 98 79 166 0 168 176 177 0 84 32 173 d1f66d1574e353d3605ef
a9a8be928270 14 79 34 172 ?134 138 29 4 178 +0 0 134 138 22 0 81 1 166 207 155 7
9 0 172 162 167 0 0 81 1 176 222 98 154 156 0 172 179 180 0 84 32 177 2eda161693
05e8b87f034319cc9663cb0 14 154 112 176 ?89 15 131 4 17 -0 0 89 15 22 0 81 1 156
 195 155 154 0 176 151 157 0 0 81 1 179 223 98 134 175 0 176 0 181 0 84 32 180 5
67582872ae46d7afc7f71f141028fe60 14 134 56 179 ?0 79 132 4 182 -0 0 0 79 22 0 81
 1 175 220 155 134 0 179 171 0 0 0 84 32 181 59eef558892982058fc012b04ce30e510 8
0 1 155 0 183 8001 0 0 0 0 3 5 0 0 0 FFFFTFTFFFFFFF2 0 79 255 15 183 SDL/TYSA_CO
LOUR0 50 182 84 0 134 178 161 0 +.1749894146960485 .1749894146960485 0 0 0 1 1 0
 0 0 13 22 3 0 0 0 0 0 0 8 15 0 50 178 35 0 79 0 182 0 +.1749894146960485 .17498
94146960485 1 0 0 1 1 0 0 0 51 255 161 121 0 138 182 174 0 -.139001057251787 .86
0998942748213 1 0 0 -1 .639001057251787 -1 0 0 0 50 174 122 0 160 161 165 0 +1 1
.5 1 0 -1 0 0 0 -1 0 50 165 123 0 95 174 170 0 +1 -.5 1 -1 -1110223024625156e-31
 0 1110223024625156e-31 -1 0 0 50 170 124 0 89 165 17 0 +.1749894146960485 -.5 1
 0 1 0 0 0 1 0 51 17 125 0 154 170 5 0 -.1749894146960485 .1749894146960485 1 0
 0 -1 .674989414696048 -1 0 0 0 15 131 111 0 47 154 0 0 17 47 0 131 83 24 45 44
 111 0 85 +0 17 24 0 131 47 70 42 141 9 0 110 +0 17 70 0 131 24 83 64 74 82 0 66
 -0 17 141 0 140 139 110 64 24 9 0 0 -0 16 82 11 184 ?74 77 122 103 0 0 1 0 17 6
6 0 29 74 30 64 139 122 0 141 +0 16 122 6 129 ?66 82 120 185 0 0 1 0 81 1 129 16
1 98 122 0 0 126 128 186 0 30 185 9 0 122 0 103 0 +-.5 .860998942748213 1 161837
843240675e-30 -1 0 0 31 103 14 0 82 185 87 0 +.1749894146960485 .174989414696048
5 1 0 0 1 1 0 0 .674989414696048 0 81 1 126 160 98 93 0 0 184 129 187 0 84 32 18
6 f26c7a3c61e3aedc6bb1e6f1b0e4e2240 81 1 184 159 98 82 0 0 101 126 188 0 84 32 1
87 0e305e88c1bed3a69ebc0ebee326188e0 81 1 101 158 98 33 0 0 23 184 189 0 84 32 1
88 04acbae21e24b9d7c8cb705326a5bdce0 81 1 23 157 98 9 0 0 96 101 190 0 84 32 189
 cc269817b9e21a66d21d60effd84665b0 84 32 190 69e9732e7b92342dff88348ced3b60f50 1
5 60 105 0 58 160 0 0 81 1 86 164 98 77 0 0 106 113 191 0 84 32 146 0ac5d0ee3721
3df988bfcfe7a89236e70 81 1 106 163 98 68 0 0 128 86 192 0 84 32 191 f3b3cf913878
a42afe5099f9154b08020 84 32 192 6490dfa2b2ce4099bfb82f12aa2942a30 79 15 145 UGS/
ObjectState0 17 67 0 136 63 69 10 30 68 0 0 -0 17 34 0 60 32 58 10 63 123 0 67 -
0 17 32 0 60 57 34 27 26 33 0 0 -0 17 57 0 60 58 32 50 53 93 0 61 +0 84 32 130 2
3f2d0d1982a7ae57e28eb97e0618c7c0 81 1 99 155 98 120 0 0 92 96 193 0 81 1 92 154
 98 88 0 0 115 99 194 0 84 32 193 aeb3c617f9efd5cd4594fdbb1fa4d92f0 81 1 115 153
 98 91 0 0 117 92 195 0 84 32 194 182f297ced608d62d8b0e28d582b5faf0 81 1 117 152
 98 56 0 0 0 115 196 0 84 32 195 d8f45e66bdc1570ee4c522614ea3a99b0 84 32 196 3a8
6e5ca064430cb660d916fb8c3cd0d0 84 32 100 6ce37655f732f67dad146e77456099620 19 16
 128 0 1 0 8 4 S0 0 74 4 CI16 index_map_offset0 0 1 dCCZ20 14 5 0 0 179 197 12 1
75 2 0 0 0 0 0 0 0 0 0 0 0 0 0 0 0 0 81 2 197 178 198 1 0 12 0 0 199 200 0 81 1
 12 179 201 1 197 2 0 0 202 0 80 1 201 98 203 9000 0 0 0 0 3 5 0 0 0 FFTFFFFFFFF
FFF1 0 82 255 1 202 13 0 79 7 203 body_id0 80 2 198 204 205 8004 0 0 0 0 3 5 0 0
 0 FFTFFFFFFFFFFF2 3 0 83 255 1 199 7830.64 0 84 8 200 Kg/Cu M 0 79 16 205 SDL/T
YSA_DENSITY0 80 1 11 201 206 9000 0 0 0 0 3 5 0 0 0 FFTFFFFFFFFFFF1 0 82 1 13 12
9 0 79 24 206 UG2/BODY_COLOR_ATTRIBUTE0 1 0 
