**ABCDEFGHIJKLMNOPQRSTUVWXYZabcdefghijklmnopqrstuvwxyz**************************
**PARASOLID !"#$%&'()*+,-./:;<=>?@[\]^_`{|}~0123456789**************************
**PART1;
MC=unknown;
MC_MODEL=unknown;
MC_ID=unknown;
OS=unknown;
OS_RELEASE=unknown;
FRU=sdl_parasolid_customer_support;
APPL=parasolid_acceptance_tests;
SITE=unknown;
USER=unknown;
FORMAT=text;
GUISE=transmit;
KEY=/lore/gicam/code_dist/scorec_core/curvedfacecube/cubecurvetest_parasolid_nat.x_t;
FILE=/lore/gicam/code_dist/scorec_core/curvedfacecube/cubecurvetest_parasolid_nat.x_t;
DATE=unknown;
**PART2;
SCH=SCH_3600198_36001;
USFLD_SIZE=1;
**PART3;
**END_OF_HEADER*****************************************************************
T51 : TRANSMIT FILE created by modeller version 360019823 SCH_3600198_36001_1300
6231 1 12 36 CCCI7 lattice222 0 CCCI4 mesh1006 0 I8 polyline1008 0 CCCCCCCDI5 ow
ner1040 0 CCCI16 boundary_lattice222 0 CCCI13 boundary_mesh1006 0 I17 boundary_p
olyline1008 0 CCCA16 index_map_offset0 0 1 dA9 index_map82 0 A17 node_id_index_m
ap82 0 A20 schema_embedding_map82 0 A5 child12 0 A14 lowest_node_id0 0 1 dA16 me
sh_offset_data206 0 Z1 206 2 3 0 0 0 0 0 0 0 1e3 1e-8 0 0 0 1 0 1 1 4 0 5 6 7 0
 0 8 9 10 0 0 0 0 0 0 0 0 81 255 1 2 188 11 1 12 0 0 0 13 0 70 11 CI9 list_type0
 0 1 uI10 notransmit0 0 1 lCCCDCCDI12 finger_index0 0 1 dI12 finger_block1012 0
 CZ3 0 4 T1 0 0 5 20 1 14 14 0 13 255 4 3 0 1 0 15 0 0 16 0 0 50 255 5 120 0 15
 17 0 0 +.5 -.500000000000007 .5 0 0 1 1 0 0 0 30 255 6 126 0 18 19 0 0 +.5 -.50
0000000000007 .5 -1 0 0 0 29 255 7 91 0 20 21 0 -.5 -.183012701892219 .316987298
107779 0 19 9 CCCCCCI5 frame230 0 CA5 owner12 0 Z8 1 0 1 16 0 22 0 V0 0 16 255 9
 101 23 ?24 0 25 19 0 0 1 0 18 255 10 25 0 26 0 27 28 ?1 0 17 255 26 0 29 30 31
 10 32 33 0 34 -0 18 27 20 0 35 10 36 37 ?1 0 29 28 27 0 10 37 38 .5 -.183012701
892219 .316987298107779 0 29 37 22 0 27 39 28 .5 -.183012701892219 -.31698729810
7779 0 29 38 96 0 40 28 41 -.5 -.500000000000007 .5 0 18 40 82 0 42 43 0 38 ?1 0
 29 41 95 0 43 38 44 -.5 .5 .5 0 18 43 80 0 24 45 40 41 ?1 0 29 44 94 0 45 41 46
 -.5 .500000000000007 -.5 0 18 45 78 0 47 48 43 44 ?1 0 29 46 93 0 48 44 21 -.5
 -.5 -.5 0 18 48 76 0 49 50 45 46 ?1 0 29 21 92 0 50 46 7 -.5 -.183012701892219
 -.316987298107779 0 18 50 74 0 51 20 48 21 ?1 0 17 51 0 52 53 54 50 35 55 0 56
 +0 18 20 72 0 32 57 50 7 ?1 0 17 32 0 58 56 34 20 26 33 0 31 +0 18 57 2 0 59 60
 20 61 ?1 0 17 59 0 62 63 64 57 42 18 0 30 -0 18 60 5 0 65 66 57 67 ?1 0 29 61 4
 0 57 0 67 .5 -.500000000000007 .5 0 29 67 7 0 60 61 68 .5 .5 .5 0 29 68 12 0 66
 67 39 .5 .500000000000007 -.5 0 18 66 10 0 69 36 60 68 ?1 0 29 39 17 0 36 68 37
 .5 -.5 -.5 0 18 36 15 0 70 27 66 39 ?1 0 17 70 0 52 54 53 36 49 71 0 72 -0 15 2
55 52 107 0 53 73 0 0 17 54 0 52 51 70 27 74 75 0 76 +0 17 53 0 52 70 51 48 77 7
8 0 79 -0 17 49 0 80 81 72 48 70 71 0 53 +0 16 71 99 82 ?49 25 55 83 0 0 1 0 17
 72 0 80 49 69 36 84 85 0 74 +0 15 80 109 0 81 86 0 0 17 69 0 80 72 81 66 47 25
 0 87 -0 17 84 0 88 89 74 66 72 85 0 0 -0 16 85 16 90 ?72 75 91 92 0 0 1 0 17 74
 0 88 84 76 36 54 75 0 0 -0 15 88 33 0 93 94 0 0 17 76 0 88 74 95 27 34 96 0 0 -
0 16 75 21 97 ?54 96 85 98 0 0 1 0 81 1 97 197 99 75 100 0 101 90 102 0 16 96 26
 101 ?34 103 75 104 0 0 1 0 30 98 24 0 75 92 104 0 +.5 -.5 -.5 0 .86602540378444
 .5 0 30 92 19 0 85 105 98 0 +.5 .500000000000007 -.5 0 -1 0 0 31 255 104 29 0 9
6 98 106 0 +.5 -.3660254037844365 -555111512312578e-31 1 0 0 0 1 -61232339957367
7e-31 .3660254037844365 0 30 106 32 0 103 104 107 0 +.5 -.183012701892219 .31698
7298107779 0 -.86602540378444 .5 0 16 103 30 108 ?30 18 96 106 0 0 1 0 30 107 90
 0 109 106 110 0 +-.5 -.500000000000007 .5 0 1 0 0 16 109 70 111 ?112 113 0 107
 0 0 1 0 30 110 89 0 113 107 114 0 +-.5 .500000000000006 .5 0 1221245327087672e-
30 -1 0 16 113 68 115 ?116 117 109 110 0 0 1 0 30 114 88 0 117 110 118 0 +-.5 .5
00000000000007 -.5 0 -1 0 0 16 117 66 119 ?79 78 113 114 0 0 1 0 30 118 87 0 78
 114 120 0 +-.5 -.5 -.5 0 .86602540378444 .5 0 16 78 64 121 ?77 122 117 118 0 0
 1 0 31 120 86 0 122 118 123 0 +-.5 -.3660254037844365 -555111512312578e-31 1 0
 0 0 1 -612323399573677e-31 .3660254037844365 0 16 122 62 124 ?125 126 78 120 0
 0 1 0 30 123 85 0 126 120 127 0 +-.5 -.183012701892219 .316987298107779 0 -.866
02540378444 .5 0 16 126 60 128 ?129 130 122 123 0 0 1 0 30 127 121 0 33 123 131
 0 +.5 -.183012701892219 .316987298107779 -1 0 0 0 16 33 97 132 ?32 55 18 127 0
 0 1 0 30 131 122 0 55 127 83 0 +.5 -.183012701892219 -.316987298107779 -1 0 0 0
 16 55 98 133 ?51 71 33 131 0 0 1 0 30 83 123 0 71 131 134 0 +.5 -.5 -.5 -1 0 0
 0 30 134 124 0 25 83 19 0 +.5 .500000000000007 -.5 -1 0 0 0 16 25 100 135 ?47 9
 71 134 0 0 1 0 30 19 125 0 9 134 6 0 +.5 .5 .5 -1 0 0 0 81 1 135 190 99 25 136
 0 23 82 137 0 17 47 0 138 139 87 45 69 25 0 81 +0 15 138 111 0 139 140 0 0 17 1
39 0 138 65 47 43 116 113 0 112 -0 17 87 0 138 47 65 66 89 91 0 84 +0 17 81 0 80
 69 49 45 79 117 0 116 -0 17 79 0 141 77 116 48 81 117 0 0 +0 17 116 0 141 79 11
2 45 139 113 0 0 +0 15 141 59 0 112 142 0 0 17 112 0 141 116 129 43 64 109 0 0 +
0 17 129 0 141 112 125 40 31 126 0 64 +0 17 64 0 62 59 24 40 112 109 0 0 -0 15 6
2 113 0 64 15 0 0 17 24 0 62 64 63 43 65 9 0 139 +0 17 63 0 62 24 59 60 93 130 0
 0 +0 17 65 0 138 87 139 60 24 9 0 89 -0 17 89 0 88 93 84 60 87 91 0 63 -0 17 93
 0 88 95 89 57 63 130 0 0 -0 16 91 11 143 ?87 85 130 105 0 0 1 0 81 1 143 199 99
 91 144 0 90 145 146 0 16 130 6 145 ?63 91 126 147 0 0 1 0 30 105 14 0 91 147 92
 0 +.5 .500000000000006 .5 0 1221245327087672e-30 -1 0 30 147 9 0 130 0 105 0 +.
5 -.500000000000007 .5 0 1 0 0 81 1 145 200 99 130 148 0 143 128 149 0 80 7 CCCC
CDI12 legal_owners0 17 1 lCZ1 99 0 150 8001 0 0 0 0 3 5 0 0 0 FFFFTFTFFFFFFFFFF2
 0 81 1 148 156 151 130 0 145 100 152 153 0 81 1 128 201 99 126 154 0 145 124 15
5 0 83 255 3 149 .596078431372549 .666666666666667 .686274509803922 0 81 1 154 1
60 151 126 0 128 156 136 157 0 81 1 124 202 99 122 158 0 128 121 159 0 83 3 155
 .596078431372549 .666666666666667 .686274509803922 0 81 1 158 166 151 122 0 124
 160 161 162 0 81 1 121 203 99 78 163 0 124 119 164 0 83 3 159 .596078431372549
 .666666666666667 .686274509803922 0 81 1 163 158 151 78 0 121 152 156 165 0 81
 1 119 204 99 117 156 0 121 115 166 0 83 3 164 .596078431372549 .666666666666667
 .686274509803922 0 81 1 156 159 151 117 0 119 163 154 167 0 81 1 115 205 99 113
 168 0 119 111 169 0 83 3 166 .596078431372549 .666666666666667 .686274509803922
 0 81 1 168 153 151 113 0 115 170 171 172 0 81 1 111 206 99 109 170 0 115 0 173
 0 83 3 169 .596078431372549 .666666666666667 .686274509803922 0 81 1 170 152 15
1 109 0 111 0 168 174 0 83 3 173 .596078431372549 .666666666666667 .686274509803
922 0 80 1 151 175 176 9000 1 1 1 1 1 1 1 1 0 FFFFTFTFFFFFFFFFF3 0 84 255 32 174
 24a9ca0be5f218bfb6b705f8a04a6e350 79 255 15 176 UGS/ObjectState0 81 1 171 154 1
51 71 0 82 168 100 177 0 84 32 172 46a116e4a62eecaa755a5e16ea1214b30 81 1 82 191
 99 71 171 0 135 133 178 0 81 1 100 155 151 75 0 97 171 148 179 0 84 32 177 32ea
6a0d191e6555956e59c1c12f02de0 84 32 179 a8e84fc7b3751ca7758881fcb2f6132b0 81 1 1
33 192 99 55 180 0 82 132 181 0 83 3 178 .596078431372549 .666666666666667 .6862
74509803922 0 81 1 180 164 151 55 0 133 144 160 182 0 81 1 132 193 99 33 152 0 1
33 183 184 0 83 3 181 .596078431372549 .666666666666667 .686274509803922 0 81 1
 152 157 151 33 0 132 148 163 185 0 81 1 183 194 99 18 161 0 132 108 186 0 83 3
 184 .596078431372549 .666666666666667 .686274509803922 0 16 18 102 183 ?42 33 1
03 6 0 0 1 0 81 1 161 167 151 18 0 183 158 187 188 0 81 1 108 195 99 103 189 0 1
83 101 190 0 83 3 186 .596078431372549 .666666666666667 .686274509803922 0 81 1
 189 169 151 103 0 108 187 191 192 0 81 1 101 196 99 96 193 0 108 97 194 0 83 3
 190 .596078431372549 .666666666666667 .686274509803922 0 81 1 193 162 151 96 0
 101 136 144 195 0 83 3 194 .596078431372549 .666666666666667 .686274509803922 0
 81 1 136 161 151 25 0 135 154 193 196 0 81 1 144 163 151 91 0 143 193 180 197 0
 84 32 195 328fa4fc4172b88c663d4543745682390 84 32 197 07d44845e8141986d1bd6a580
36102510 84 32 196 d48629885bb57a7370cc4796830411520 81 1 187 168 151 9 0 23 161
 189 198 0 81 1 191 170 151 199 0 200 189 201 202 0 84 32 192 114d4d72114d1f6d08
380f08ea0d2ae50 14 255 199 104 200 ?94 203 29 4 204 +0 0 94 203 22 0 81 1 200 18
5 99 199 191 0 205 206 207 0 81 1 201 171 151 142 0 208 191 209 210 0 84 32 202
 a72b5cf2345cd25259316b52f19ccbeb0 14 142 56 208 ?0 94 141 4 211 -0 0 0 94 22 0
 81 1 208 187 99 142 201 0 206 23 212 0 81 1 209 172 151 86 0 213 201 214 215 0
 84 32 210 aba60d1460af49855ee857003088bd660 14 86 110 213 ?73 140 80 4 216 +0 0
 73 140 22 0 81 1 213 182 99 86 209 0 217 218 219 0 81 1 214 173 151 140 0 217 2
09 220 221 0 84 32 215 69ffbfa8901d8652a5d02e4543f578c80 14 140 112 217 ?86 15 1
38 4 17 +0 0 86 15 22 0 81 1 217 181 99 140 214 0 222 213 223 0 81 1 220 174 151
 203 0 205 214 224 225 0 84 32 221 61f18b1bd60b6c84ee967ea08f2477880 14 203 106
 205 ?199 73 58 4 226 +0 0 199 73 22 0 81 1 205 184 99 203 220 0 218 200 227 0 8
1 1 224 175 151 94 0 206 220 228 229 0 84 32 225 0cb3fa2dfcd44e1b21e4aaae708622f
f0 14 94 34 206 ?142 199 88 4 230 +0 0 142 199 22 0 81 1 206 186 99 94 224 0 200
 208 231 0 81 1 228 176 151 15 0 222 224 232 233 0 84 32 229 c6a842b40b057fe4302
7ec1f27bfb6480 14 15 114 222 ?140 0 62 4 5 +0 0 140 0 22 0 81 1 222 180 99 15 22
8 0 0 217 234 0 81 1 232 177 151 73 0 218 228 0 235 0 84 32 233 2b3bb91e4d854c9a
c2960b3c127c33b90 14 73 108 218 ?203 86 52 4 236 +0 0 203 86 22 0 81 1 218 183 9
9 73 232 0 213 205 237 0 84 32 235 733318eab8ee38c235b215d308ab2aea0 83 3 237 .5
96078431372549 .666666666666667 .686274509803922 0 50 236 117 0 73 226 216 0 +.5
 -.5 -.5 0 -.5 .86602540378444 0 -.86602540378444 -.5 0 13 22 127 0 0 0 0 0 0 8
 15 0 51 255 226 116 0 203 204 236 0 -.5 -.3660254037844365 -555111512312578e-31
 -1 0 0 .3660254037844365 0 0 1 0 50 216 118 0 86 236 17 0 +.5 .500000000000007
 -.5 0 0 -1 -1 0 0 0 50 17 119 0 140 216 5 0 +.5 .500000000000006 .5 0 1 1221245
327087672e-30 0 -1221245327087672e-30 1 0 50 204 115 0 199 211 226 0 +.5 -.18301
2701892219 .316987298107779 0 -.5 -.86602540378444 0 .86602540378444 -.5 0 50 21
1 84 0 142 230 204 0 +-.5 -.3660254037844365 -555111512312578e-31 1 0 0 0 0 -1 0
 50 230 35 0 94 0 211 0 +.5 -.3660254037844365 -555111512312578e-31 1 0 0 0 0 -1
 0 83 3 234 .596078431372549 .666666666666667 .686274509803922 0 83 3 231 .59607
8431372549 .666666666666667 .686274509803922 0 83 3 227 .596078431372549 .666666
666666667 .686274509803922 0 15 58 105 0 56 203 0 0 17 56 0 58 35 32 50 125 122
 0 77 -0 17 35 0 58 34 56 27 51 55 0 54 -0 17 125 0 141 129 77 20 56 122 0 0 +0
 17 77 0 141 125 79 50 53 78 0 0 +0 17 34 0 58 32 35 10 76 96 0 95 +0 17 95 0 88
 76 93 10 30 103 0 0 -0 17 30 0 29 42 26 57 95 103 0 93 +0 15 29 103 0 31 199 0
 0 17 42 0 29 31 30 40 59 18 0 129 +0 17 31 0 29 26 42 20 129 126 0 125 -0 83 3
 223 .596078431372549 .666666666666667 .686274509803922 0 83 3 219 .596078431372
549 .666666666666667 .686274509803922 0 81 1 23 189 99 9 187 0 208 135 238 0 83
 3 212 .596078431372549 .666666666666667 .686274509803922 0 83 3 238 .5960784313
72549 .666666666666667 .686274509803922 0 83 3 207 .596078431372549 .66666666666
6667 .686274509803922 0 84 32 198 15d001e188d48fbd7bddc5f6a67474630 84 32 188 ab
90f36a4b806570ca06edb7ce1bc3730 84 32 185 0c7eb08c32a1460fc43c32ae2da1e98b0 81 1
 160 165 151 85 0 90 180 158 239 0 84 32 182 dcf9b61bf8e750768c7e3a0b5df54dac0 8
1 1 90 198 99 85 160 0 97 143 240 0 84 32 239 2ed92d2908c5d708067eeb967aed66230
 83 3 240 .596078431372549 .666666666666667 .686274509803922 0 84 32 167 f0e4450
48a263defc6c96d6d75a667500 84 32 165 e6a708cbd27b5d34f43ce4b8e06a16ca0 84 32 162
 ed62103d28e5eecb18f4af9c7e6be1500 84 32 157 142cfb9e55ea32e739dfe221881864320 8
4 32 153 d7daa6b56a7b0890c53a586d3c36ec200 79 15 150 SDL/TYSA_COLOUR0 83 3 146 .
596078431372549 .666666666666667 .686274509803922 0 83 3 137 .596078431372549 .6
66666666666667 .686274509803922 0 83 3 102 .596078431372549 .666666666666667 .68
6274509803922 0 19 16 128 0 1 0 8 4 0 S0 0 74 4 CI16 index_map_offset0 0 1 dCCZ2
0 14 5 0 0 241 12 232 111 2 0 0 0 0 0 0 0 0 0 0 0 0 0 0 0 0 81 2 241 149 242 1 0
 12 0 0 243 244 0 81 1 12 150 245 1 241 2 0 0 246 0 80 1 245 247 248 8051 0 0 0
 0 3 5 0 0 0 TFTFFFFFFFFFFFFFF1 0 82 255 1 246 0 0 79 21 248 SDL/TYSA_SCALE_FACT
OR0 80 2 242 249 250 8004 0 0 0 0 3 5 0 0 0 FFTFFFFFFFFFFFFFF2 3 0 83 1 243 7830
.64 0 84 8 244 Kg/Cu M 0 79 16 250 SDL/TYSA_DENSITY0 80 1 11 99 251 8040 0 0 0 0
 3 5 0 0 0 TTTFFFFFFFFFFFFFF2 0 83 3 13 .596078431372549 .666666666666667 .68627
4509803922 0 79 17 251 SDL/TYSA_COLOUR_20 1 0 
